  0
SECTION
  2
HEADER
  9
$ACADVER
  1
AC1024
  9
$ACADMAINTVER
 70
     6
  9
$DWGCODEPAGE
  3
ANSI_1252
  9
$INSBASE
 10
0.0
 20
0.0
 30
0.0
  9
$EXTMIN
 10
1.000000000000000E+20
 20
1.000000000000000E+20
 30
1.000000000000000E+20
  9
$EXTMAX
 10
-1.000000000000000E+20
 20
-1.000000000000000E+20
 30
-1.000000000000000E+20
  9
$LIMMIN
 10
0.0
 20
0.0
  9
$LIMMAX
 10
12.0
 20
9.0
  9
$ORTHOMODE
 70
     0
  9
$REGENMODE
 70
     1
  9
$FILLMODE
 70
     1
  9
$QTEXTMODE
 70
     0
  9
$MIRRTEXT
 70
     1
  9
$LTSCALE
 40
1.0
  9
$ATTMODE
 70
     1
  9
$TEXTSIZE
 40
0.2
  9
$TRACEWID
 40
0.05
  9
$TEXTSTYLE
  7
Standard
  9
$CLAYER
  8
0
  9
$CELTYPE
  6
ByLayer
  9
$CECOLOR
 62
   256
  9
$CELTSCALE
 40
1.0
  9
$DISPSILH
 70
     0
  9
$DIMSCALE
 40
1.0
  9
$DIMASZ
 40
0.18
  9
$DIMEXO
 40
0.0625
  9
$DIMDLI
 40
0.38
  9
$DIMRND
 40
0.0
  9
$DIMDLE
 40
0.0
  9
$DIMEXE
 40
0.18
  9
$DIMTP
 40
0.0
  9
$DIMTM
 40
0.0
  9
$DIMTXT
 40
0.18
  9
$DIMCEN
 40
0.09
  9
$DIMTSZ
 40
0.0
  9
$DIMTOL
 70
     0
  9
$DIMLIM
 70
     0
  9
$DIMTIH
 70
     1
  9
$DIMTOH
 70
     1
  9
$DIMSE1
 70
     0
  9
$DIMSE2
 70
     0
  9
$DIMTAD
 70
     0
  9
$DIMZIN
 70
     0
  9
$DIMBLK
  1

  9
$DIMASO
 70
     1
  9
$DIMSHO
 70
     1
  9
$DIMPOST
  1

  9
$DIMAPOST
  1

  9
$DIMALT
 70
     0
  9
$DIMALTD
 70
     2
  9
$DIMALTF
 40
25.4
  9
$DIMLFAC
 40
1.0
  9
$DIMTOFL
 70
     0
  9
$DIMTVP
 40
0.0
  9
$DIMTIX
 70
     0
  9
$DIMSOXD
 70
     0
  9
$DIMSAH
 70
     0
  9
$DIMBLK1
  1

  9
$DIMBLK2
  1

  9
$DIMSTYLE
  2
Standard
  9
$DIMCLRD
 70
     0
  9
$DIMCLRE
 70
     0
  9
$DIMCLRT
 70
     0
  9
$DIMTFAC
 40
1.0
  9
$DIMGAP
 40
0.09
  9
$DIMJUST
 70
     0
  9
$DIMSD1
 70
     0
  9
$DIMSD2
 70
     0
  9
$DIMTOLJ
 70
     1
  9
$DIMTZIN
 70
     0
  9
$DIMALTZ
 70
     0
  9
$DIMALTTZ
 70
     0
  9
$DIMUPT
 70
     0
  9
$DIMDEC
 70
     4
  9
$DIMTDEC
 70
     4
  9
$DIMALTU
 70
     2
  9
$DIMALTTD
 70
     2
  9
$DIMTXSTY
  7
Standard
  9
$DIMAUNIT
 70
     0
  9
$DIMADEC
 70
     0
  9
$DIMALTRND
 40
0.0
  9
$DIMAZIN
 70
     0
  9
$DIMDSEP
 70
    46
  9
$DIMATFIT
 70
     3
  9
$DIMFRAC
 70
     0
  9
$DIMLDRBLK
  1

  9
$DIMLUNIT
 70
     2
  9
$DIMLWD
 70
    -2
  9
$DIMLWE
 70
    -2
  9
$DIMTMOVE
 70
     0
  9
$DIMFXL
 40
1.0
  9
$DIMFXLON
 70
     0
  9
$DIMJOGANG
 40
0.7853981633974483
  9
$DIMTFILL
 70
     0
  9
$DIMTFILLCLR
 70
     0
  9
$DIMARCSYM
 70
     0
  9
$DIMLTYPE
  6

  9
$DIMLTEX1
  6

  9
$DIMLTEX2
  6

  9
$DIMTXTDIRECTION
 70
     0
  9
$LUNITS
 70
     2
  9
$LUPREC
 70
     4
  9
$SKETCHINC
 40
0.1
  9
$FILLETRAD
 40
0.5
  9
$AUNITS
 70
     0
  9
$AUPREC
 70
     0
  9
$MENU
  1
.
  9
$ELEVATION
 40
0.0
  9
$PELEVATION
 40
0.0
  9
$THICKNESS
 40
0.0
  9
$LIMCHECK
 70
     0
  9
$CHAMFERA
 40
0.5
  9
$CHAMFERB
 40
0.5
  9
$CHAMFERC
 40
1.0
  9
$CHAMFERD
 40
0.0
  9
$SKPOLY
 70
     0
  9
$TDCREATE
 40
2458380.916181296
  9
$TDUCREATE
 40
2458381.207847963
  9
$TDUPDATE
 40
2458380.916181447
  9
$TDUUPDATE
 40
2458381.207848113
  9
$TDINDWG
 40
0.0000000116
  9
$TDUSRTIMER
 40
0.0000000116
  9
$USRTIMER
 70
     1
  9
$ANGBASE
 50
0.0
  9
$ANGDIR
 70
     0
  9
$PDMODE
 70
     0
  9
$PDSIZE
 40
0.0
  9
$PLINEWID
 40
0.0
  9
$SPLFRAME
 70
     0
  9
$SPLINETYPE
 70
     6
  9
$SPLINESEGS
 70
     8
  9
$HANDSEED
  5
139
  9
$SURFTAB1
 70
     6
  9
$SURFTAB2
 70
     6
  9
$SURFTYPE
 70
     6
  9
$SURFU
 70
     6
  9
$SURFV
 70
     6
  9
$UCSBASE
  2

  9
$UCSNAME
  2

  9
$UCSORG
 10
0.0
 20
0.0
 30
0.0
  9
$UCSXDIR
 10
1.0
 20
0.0
 30
0.0
  9
$UCSYDIR
 10
0.0
 20
1.0
 30
0.0
  9
$UCSORTHOREF
  2

  9
$UCSORTHOVIEW
 70
     0
  9
$UCSORGTOP
 10
0.0
 20
0.0
 30
0.0
  9
$UCSORGBOTTOM
 10
0.0
 20
0.0
 30
0.0
  9
$UCSORGLEFT
 10
0.0
 20
0.0
 30
0.0
  9
$UCSORGRIGHT
 10
0.0
 20
0.0
 30
0.0
  9
$UCSORGFRONT
 10
0.0
 20
0.0
 30
0.0
  9
$UCSORGBACK
 10
0.0
 20
0.0
 30
0.0
  9
$PUCSBASE
  2

  9
$PUCSNAME
  2

  9
$PUCSORG
 10
0.0
 20
0.0
 30
0.0
  9
$PUCSXDIR
 10
1.0
 20
0.0
 30
0.0
  9
$PUCSYDIR
 10
0.0
 20
1.0
 30
0.0
  9
$PUCSORTHOREF
  2

  9
$PUCSORTHOVIEW
 70
     0
  9
$PUCSORGTOP
 10
0.0
 20
0.0
 30
0.0
  9
$PUCSORGBOTTOM
 10
0.0
 20
0.0
 30
0.0
  9
$PUCSORGLEFT
 10
0.0
 20
0.0
 30
0.0
  9
$PUCSORGRIGHT
 10
0.0
 20
0.0
 30
0.0
  9
$PUCSORGFRONT
 10
0.0
 20
0.0
 30
0.0
  9
$PUCSORGBACK
 10
0.0
 20
0.0
 30
0.0
  9
$USERI1
 70
     0
  9
$USERI2
 70
     0
  9
$USERI3
 70
     0
  9
$USERI4
 70
     0
  9
$USERI5
 70
     0
  9
$USERR1
 40
0.0
  9
$USERR2
 40
0.0
  9
$USERR3
 40
0.0
  9
$USERR4
 40
0.0
  9
$USERR5
 40
0.0
  9
$WORLDVIEW
 70
     1
  9
$SHADEDGE
 70
     3
  9
$SHADEDIF
 70
    70
  9
$TILEMODE
 70
     1
  9
$MAXACTVP
 70
    64
  9
$PINSBASE
 10
0.0
 20
0.0
 30
0.0
  9
$PLIMCHECK
 70
     0
  9
$PEXTMIN
 10
1.000000000000000E+20
 20
1.000000000000000E+20
 30
1.000000000000000E+20
  9
$PEXTMAX
 10
-1.000000000000000E+20
 20
-1.000000000000000E+20
 30
-1.000000000000000E+20
  9
$PLIMMIN
 10
0.0
 20
0.0
  9
$PLIMMAX
 10
12.0
 20
9.0
  9
$UNITMODE
 70
     0
  9
$VISRETAIN
 70
     1
  9
$PLINEGEN
 70
     0
  9
$PSLTSCALE
 70
     1
  9
$TREEDEPTH
 70
  3020
  9
$CMLSTYLE
  2
Standard
  9
$CMLJUST
 70
     0
  9
$CMLSCALE
 40
1.0
  9
$PROXYGRAPHICS
 70
     1
  9
$MEASUREMENT
 70
     0
  9
$CELWEIGHT
370
    -1
  9
$ENDCAPS
280
     0
  9
$JOINSTYLE
280
     0
  9
$LWDISPLAY
290
     1
  9
$INSUNITS
 70
     1
  9
$HYPERLINKBASE
  1

  9
$STYLESHEET
  1

  9
$XEDIT
290
     1
  9
$CEPSNTYPE
380
     0
  9
$PSTYLEMODE
290
     1
  9
$FINGERPRINTGUID
  2
{4771B868-C368-4437-AFCD-95045465758B}
  9
$VERSIONGUID
  2
{FAEB1C32-E019-11D5-929B-00C0DF256EC4}
  9
$EXTNAMES
290
     1
  9
$PSVPSCALE
 40
0.0
  9
$OLESTARTUP
290
     0
  9
$SORTENTS
280
   127
  9
$INDEXCTL
280
     0
  9
$HIDETEXT
280
     1
  9
$XCLIPFRAME
280
     2
  9
$HALOGAP
280
     0
  9
$OBSCOLOR
 70
   257
  9
$OBSLTYPE
280
     0
  9
$INTERSECTIONDISPLAY
280
     0
  9
$INTERSECTIONCOLOR
 70
   257
  9
$DIMASSOC
280
     2
  9
$PROJECTNAME
  1

  9
$CAMERADISPLAY
290
     0
  9
$LENSLENGTH
 40
50.0
  9
$CAMERAHEIGHT
 40
0.0
  9
$STEPSPERSEC
 40
2.0
  9
$STEPSIZE
 40
6.0
  9
$3DDWFPREC
 40
2.0
  9
$PSOLWIDTH
 40
0.25
  9
$PSOLHEIGHT
 40
4.0
  9
$LOFTANG1
 40
1.570796326794897
  9
$LOFTANG2
 40
1.570796326794897
  9
$LOFTMAG1
 40
0.0
  9
$LOFTMAG2
 40
0.0
  9
$LOFTPARAM
 70
     7
  9
$LOFTNORMALS
280
     1
  9
$LATITUDE
 40
37.795
  9
$LONGITUDE
 40
-122.394
  9
$NORTHDIRECTION
 40
0.0
  9
$TIMEZONE
 70
 -8000
  9
$LIGHTGLYPHDISPLAY
280
     1
  9
$TILEMODELIGHTSYNCH
280
     1
  9
$CMATERIAL
347
3C
  9
$SOLIDHIST
280
     1
  9
$SHOWHIST
280
     1
  9
$DWFFRAME
280
     2
  9
$DGNFRAME
280
     2
  9
$REALWORLDSCALE
290
     1
  9
$INTERFERECOLOR
 62
   256
  9
$CSHADOW
280
     0
  9
$SHADOWPLANELOCATION
 40
0.0
  0
ENDSEC
  0
SECTION
  2
CLASSES
  0
CLASS
  1
ACDBDICTIONARYWDFLT
  2
AcDbDictionaryWithDefault
  3
ObjectDBX Classes
 90
        0
 91
        4
280
     0
281
     0
  0
CLASS
  1
VISUALSTYLE
  2
AcDbVisualStyle
  3
ObjectDBX Classes
 90
     4095
 91
        4
280
     0
281
     0
  0
CLASS
  1
MATERIAL
  2
AcDbMaterial
  3
ObjectDBX Classes
 90
     1153
 91
        4
280
     0
281
     0
  0
CLASS
  1
SUN
  2
AcDbSun
  3
SCENEOE
 90
     1024
 91
        4
280
     0
281
     0
  0
ENDSEC
  0
SECTION
  2
TABLES
  0
TABLE
  2
VPORT
  5
8
330
0
100
AcDbSymbolTable
 70
     1
  0
VPORT
  5
29
330
8
100
AcDbSymbolTableRecord
100
AcDbViewportTableRecord
  2
*Active
 70
     0
 10
0.0
 20
0.0
 11
1.0
 21
1.0
 12
0.0
 22
0.0
 13
0.0
 23
0.0
 14
0.5
 24
0.5
 15
0.5
 25
0.5
 16
0.0
 26
0.0
 36
1.0
 17
2.5
 27
-2.5
 37
0.0
 40
5.0
 41
1.0
 42
50.0
 43
0.0
 44
0.0
 50
0.0
 51
0.0
 71
     0
 72
   100
 73
     1
 74
     3
 75
     0
 76
     0
 77
     0
 78
     0
281
     0
 65
     1
110
0.0
120
0.0
130
0.0
111
1.0
121
0.0
131
0.0
112
0.0
122
1.0
132
0.0
 79
     0
146
0.0
 60
     3
 61
     5
292
     1
282
     1
141
0.0
142
0.0
 63
   250
361
3F
  0
ENDTAB
  0
TABLE
  2
LTYPE
  5
5
330
0
100
AcDbSymbolTable
 70
     1
  0
LTYPE
  5
14
330
5
100
AcDbSymbolTableRecord
100
AcDbLinetypeTableRecord
  2
ByBlock
 70
     0
  3

 72
    65
 73
     0
 40
0.0
  0
LTYPE
  5
15
330
5
100
AcDbSymbolTableRecord
100
AcDbLinetypeTableRecord
  2
ByLayer
 70
     0
  3

 72
    65
 73
     0
 40
0.0
  0
LTYPE
  5
16
330
5
100
AcDbSymbolTableRecord
100
AcDbLinetypeTableRecord
  2
Continuous
 70
     0
  3
Solid line
 72
    65
 73
     0
 40
0.0
  0
ENDTAB
  0
TABLE
  2
LAYER
  5
2
330
0
100
AcDbSymbolTable
 70
     2
  0
LAYER
  5
10
330
2
100
AcDbSymbolTableRecord
100
AcDbLayerTableRecord
  2
0
 70
     0
 62
     7
  6
Continuous
370
    -3
390
F
347
3E
  0
LAYER
  5
40
330
2
100
AcDbSymbolTableRecord
100
AcDbLayerTableRecord
  2
Layer 1
 70
     0
 62
     7
  6
Continuous
370
    -3
390
F
347
3E
  0
ENDTAB
  0
TABLE
  2
STYLE
  5
3
330
0
100
AcDbSymbolTable
 70
     1
  0
STYLE
  5
11
330
3
100
AcDbSymbolTableRecord
100
AcDbTextStyleTableRecord
  2
Standard
 70
     0
 40
0.0
 41
1.0
 50
0.0
 71
     0
 42
0.2
  3
txt
  4

  0
ENDTAB
  0
TABLE
  2
VIEW
  5
6
330
0
100
AcDbSymbolTable
 70
     0
  0
ENDTAB
  0
TABLE
  2
UCS
  5
7
330
0
100
AcDbSymbolTable
 70
     0
  0
ENDTAB
  0
TABLE
  2
APPID
  5
9
330
0
100
AcDbSymbolTable
 70
     1
  0
APPID
  5
12
330
9
100
AcDbSymbolTableRecord
100
AcDbRegAppTableRecord
  2
ACAD
 70
     0
  0
ENDTAB
  0
TABLE
  2
DIMSTYLE
  5
A
330
0
100
AcDbSymbolTable
 70
     1
100
AcDbDimStyleTable
  0
DIMSTYLE
105
27
330
A
100
AcDbSymbolTableRecord
100
AcDbDimStyleTableRecord
  2
Standard
 70
     0
178
     0
340
11
  0
ENDTAB
  0
TABLE
  2
BLOCK_RECORD
  5
1
330
0
100
AcDbSymbolTable
 70
    13
  0
BLOCK_RECORD
  5
1F
330
1
100
AcDbSymbolTableRecord
100
AcDbBlockTableRecord
  2
*Model_Space
340
22
 70
     0
280
     1
281
     0
  0
BLOCK_RECORD
  5
1B
330
1
100
AcDbSymbolTableRecord
100
AcDbBlockTableRecord
  2
*Paper_Space
340
1E
 70
     0
280
     1
281
     0
  0
BLOCK_RECORD
  5
23
330
1
100
AcDbSymbolTableRecord
100
AcDbBlockTableRecord
  2
*Paper_Space0
340
26
 70
     0
280
     1
281
     0
  0
BLOCK_RECORD
  5
41
330
1
100
AcDbSymbolTableRecord
100
AcDbBlockTableRecord
  2
block 2
340
0
102
{BLKREFS
331
42
102
}
 70
     0
280
     1
281
     0
  0
BLOCK_RECORD
  5
47
330
1
100
AcDbSymbolTableRecord
100
AcDbBlockTableRecord
  2
block 3
340
0
102
{BLKREFS
331
48
102
}
 70
     0
280
     1
281
     0
  0
BLOCK_RECORD
  5
4F
330
1
100
AcDbSymbolTableRecord
100
AcDbBlockTableRecord
  2
block 4
340
0
102
{BLKREFS
331
50
102
}
 70
     0
280
     1
281
     0
  0
BLOCK_RECORD
  5
74
330
1
100
AcDbSymbolTableRecord
100
AcDbBlockTableRecord
  2
block 5
340
0
102
{BLKREFS
331
75
102
}
 70
     0
280
     1
281
     0
  0
BLOCK_RECORD
  5
9F
330
1
100
AcDbSymbolTableRecord
100
AcDbBlockTableRecord
  2
block 6
340
0
102
{BLKREFS
331
A0
102
}
 70
     0
280
     1
281
     0
  0
BLOCK_RECORD
  5
A6
330
1
100
AcDbSymbolTableRecord
100
AcDbBlockTableRecord
  2
block 7
340
0
102
{BLKREFS
331
A7
102
}
 70
     0
280
     1
281
     0
  0
BLOCK_RECORD
  5
AD
330
1
100
AcDbSymbolTableRecord
100
AcDbBlockTableRecord
  2
block 8
340
0
102
{BLKREFS
331
AE
102
}
 70
     0
280
     1
281
     0
  0
BLOCK_RECORD
  5
B6
330
1
100
AcDbSymbolTableRecord
100
AcDbBlockTableRecord
  2
block 9
340
0
102
{BLKREFS
331
B7
102
}
 70
     0
280
     1
281
     0
  0
BLOCK_RECORD
  5
D0
330
1
100
AcDbSymbolTableRecord
100
AcDbBlockTableRecord
  2
block 10
340
0
102
{BLKREFS
331
D1
102
}
 70
     0
280
     1
281
     0
  0
BLOCK_RECORD
  5
E0
330
1
100
AcDbSymbolTableRecord
100
AcDbBlockTableRecord
  2
block 11
340
0
102
{BLKREFS
331
E1
102
}
 70
     0
280
     1
281
     0
  0
BLOCK_RECORD
  5
E6
330
1
100
AcDbSymbolTableRecord
100
AcDbBlockTableRecord
  2
block 12
340
0
102
{BLKREFS
331
E7
102
}
 70
     0
280
     1
281
     0
  0
BLOCK_RECORD
  5
122
330
1
100
AcDbSymbolTableRecord
100
AcDbBlockTableRecord
  2
block 13
340
0
102
{BLKREFS
331
123
102
}
 70
     0
280
     1
281
     0
  0
ENDTAB
  0
ENDSEC
  0
SECTION
  2
BLOCKS
  0
BLOCK
  5
20
330
1F
100
AcDbEntity
  8
0
100
AcDbBlockBegin
  2
*Model_Space
 70
     0
 10
0.0
 20
0.0
 30
0.0
  3
*Model_Space
  1

  0
ENDBLK
  5
21
330
1F
100
AcDbEntity
  8
0
100
AcDbBlockEnd
  0
BLOCK
  5
1C
330
1B
100
AcDbEntity
 67
     1
  8
0
100
AcDbBlockBegin
  2
*Paper_Space
 70
     0
 10
0.0
 20
0.0
 30
0.0
  3
*Paper_Space
  1

  0
ENDBLK
  5
1D
330
1B
100
AcDbEntity
 67
     1
  8
0
100
AcDbBlockEnd
  0
BLOCK
  5
24
330
23
100
AcDbEntity
  8
0
100
AcDbBlockBegin
  2
*Paper_Space0
 70
     0
 10
0.0
 20
0.0
 30
0.0
  3
*Paper_Space0
  1

  0
ENDBLK
  5
25
330
23
100
AcDbEntity
  8
0
100
AcDbBlockEnd
  0
BLOCK
  5
43
330
41
100
AcDbEntity
  8
0
100
AcDbBlockBegin
  2
block 2
 70
     0
 10
0.0
 20
0.0
 30
0.0
  3
block 2
  1

  0
SPLINE
  5
45
330
41
100
AcDbEntity
  8
Layer 1
370
     0
100
AcDbSpline
210
0.0
220
0.0
230
1.0
 70
    11
 71
     3
 72
    17
 73
    13
 74
     0
 42
0.0000000001
 43
0.0000000001
 12
1.0
 22
0.0
 32
0.0
 13
1.0
 23
0.0
 33
0.0
 40
0.0
 40
0.0
 40
0.0
 40
0.0
 40
1.0
 40
1.0
 40
1.0
 40
2.0
 40
2.0
 40
2.0
 40
3.0
 40
3.0
 40
3.0
 40
4.0
 40
4.0
 40
4.0
 40
4.0
 10
3.442232086399549
 20
-1.844914133325346
 30
0.0
 10
3.444719420828808
 20
-1.882700034567279
 30
0.0
 10
3.022460510593949
 20
-1.939126554321559
 30
0.0
 10
2.499090413101056
 20
-1.970946292670103
 30
0.0
 10
1.975720315608265
 20
-2.002766031018635
 30
0.0
 10
1.54942863946149
 20
-1.997929500382017
 30
0.0
 10
1.54694130503223
 20
-1.960143599140072
 30
0.0
 10
1.54445397060297
 20
-1.92235769789814
 30
0.0
 10
1.966712880837829
 20
-1.865931178143834
 30
0.0
 10
2.490082978330747
 20
-1.834111439795316
 30
0.0
 10
3.013453075823539
 20
-1.802291701446772
 30
0.0
 10
3.439744751970314
 20
-1.807128232083414
 30
0.0
 10
3.442232086399549
 20
-1.844914133325346
 30
0.0
  0
HATCH
  5
46
330
41
100
AcDbEntity
  8
Layer 1
 62
     1
100
AcDbHatch
 10
0.0
 20
0.0
 30
0.0
210
0.0
220
0.0
230
1.0
  2
SOLID
 70
     1
 71
     0
 91
        1
 92
        1
 93
        1
 72
     4
 94
        3
 73
     0
 74
     1
 95
       17
 96
       13
 40
0.0
 40
0.0
 40
0.0
 40
0.0
 40
1.0
 40
1.0
 40
1.0
 40
2.0
 40
2.0
 40
2.0
 40
3.0
 40
3.0
 40
3.0
 40
4.0
 40
4.0
 40
4.0
 40
4.0
 10
3.442232086399549
 20
-1.844914133325346
 10
3.444719420828808
 20
-1.882700034567279
 10
3.022460510593949
 20
-1.939126554321559
 10
2.499090413101056
 20
-1.970946292670103
 10
1.975720315608265
 20
-2.002766031018635
 10
1.54942863946149
 20
-1.997929500382017
 10
1.54694130503223
 20
-1.960143599140072
 10
1.54445397060297
 20
-1.92235769789814
 10
1.966712880837829
 20
-1.865931178143834
 10
2.490082978330747
 20
-1.834111439795316
 10
3.013453075823539
 20
-1.802291701446772
 10
3.439744751970314
 20
-1.807128232083414
 10
3.442232086399549
 20
-1.844914133325346
 97
        0
 97
        0
 75
     2
 76
     1
 98
        0
  0
INSERT
  5
48
330
41
100
AcDbEntity
  8
Layer 1
100
AcDbBlockReference
  2
block 3
 10
0.0
 20
0.0
 30
0.0
  0
POLYLINE
  5
58
330
41
100
AcDbEntity
  8
Layer 1
370
     0
100
AcDb2dPolyline
 66
     1
 10
0.0
 20
0.0
 30
0.0
  0
VERTEX
  5
59
330
58
100
AcDbEntity
  8
Layer 1
370
     0
100
AcDbVertex
100
AcDb2dVertex
 10
2.574959553973612
 20
-2.10836984649288
 30
0.0
  0
VERTEX
  5
5A
330
58
100
AcDbEntity
  8
Layer 1
370
     0
100
AcDbVertex
100
AcDb2dVertex
 10
2.427455929041773
 20
-2.10836984649288
 30
0.0
  0
VERTEX
  5
5B
330
58
100
AcDbEntity
  8
Layer 1
370
     0
100
AcDbVertex
100
AcDb2dVertex
 10
2.427455929041773
 20
-2.049866644652765
 30
0.0
  0
VERTEX
  5
5C
330
58
100
AcDbEntity
  8
Layer 1
370
     0
100
AcDbVertex
100
AcDb2dVertex
 10
2.574959553973612
 20
-2.049866644652765
 30
0.0
  0
VERTEX
  5
5D
330
58
100
AcDbEntity
  8
Layer 1
370
     0
100
AcDbVertex
100
AcDb2dVertex
 10
2.574959553973612
 20
-2.10836984649288
 30
0.0
  0
SEQEND
  5
5F
330
58
100
AcDbEntity
  8
Layer 1
370
     0
  0
HATCH
  5
5E
330
41
100
AcDbEntity
  8
Layer 1
 62
     1
100
AcDbHatch
 10
0.0
 20
0.0
 30
0.0
210
0.0
220
0.0
230
1.0
  2
SOLID
 70
     1
 71
     0
 91
        1
 92
        1
 93
        4
 72
     1
 10
2.574959553973612
 20
-2.10836984649288
 11
2.427455929041773
 21
-2.10836984649288
 72
     1
 10
2.427455929041773
 20
-2.10836984649288
 11
2.427455929041773
 21
-2.049866644652765
 72
     1
 10
2.427455929041773
 20
-2.049866644652765
 11
2.574959553973612
 21
-2.049866644652765
 72
     1
 10
2.574959553973612
 20
-2.049866644652765
 11
2.574959553973612
 21
-2.10836984649288
 97
        0
 75
     2
 76
     1
 98
        0
  0
SPLINE
  5
60
330
41
100
AcDbEntity
  8
Layer 1
370
     0
100
AcDbSpline
210
0.0
220
0.0
230
1.0
 70
    11
 71
     3
 72
    14
 73
    10
 74
     0
 42
0.0000000001
 43
0.0000000001
 12
1.0
 22
0.0
 32
0.0
 13
1.0
 23
0.0
 33
0.0
 40
0.0
 40
0.0
 40
0.0
 40
0.0
 40
1.0
 40
1.0
 40
1.0
 40
2.0
 40
2.0
 40
2.0
 40
3.0
 40
3.0
 40
3.0
 40
3.0
 10
2.304696230714651
 20
-2.555319043840099
 30
0.0
 10
2.304696230714651
 20
-2.555319043840099
 30
0.0
 10
2.360202201867474
 20
-2.638010166756531
 30
0.0
 10
2.516160677709675
 20
-2.638010166756531
 30
0.0
 10
2.6721191535518
 20
-2.638010166756531
 30
0.0
 10
2.727625124704774
 20
-2.555319043840099
 30
0.0
 10
2.727625124704774
 20
-2.555319043840099
 30
0.0
 10
2.727625124704774
 20
-2.555319043840099
 30
0.0
 10
2.304696230714651
 20
-2.555319043840099
 30
0.0
 10
2.304696230714651
 20
-2.555319043840099
 30
0.0
  0
HATCH
  5
61
330
41
100
AcDbEntity
  8
Layer 1
 62
     7
100
AcDbHatch
 10
0.0
 20
0.0
 30
0.0
210
0.0
220
0.0
230
1.0
  2
SOLID
 70
     1
 71
     0
 91
        1
 92
        1
 93
        1
 72
     4
 94
        3
 73
     0
 74
     1
 95
       14
 96
       10
 40
0.0
 40
0.0
 40
0.0
 40
0.0
 40
1.0
 40
1.0
 40
1.0
 40
2.0
 40
2.0
 40
2.0
 40
3.0
 40
3.0
 40
3.0
 40
3.0
 10
2.304696230714651
 20
-2.555319043840099
 10
2.304696230714651
 20
-2.555319043840099
 10
2.360202201867474
 20
-2.638010166756531
 10
2.516160677709675
 20
-2.638010166756531
 10
2.6721191535518
 20
-2.638010166756531
 10
2.727625124704774
 20
-2.555319043840099
 10
2.727625124704774
 20
-2.555319043840099
 10
2.727625124704774
 20
-2.555319043840099
 10
2.304696230714651
 20
-2.555319043840099
 10
2.304696230714651
 20
-2.555319043840099
 97
        0
 97
        0
 75
     2
 76
     1
 98
        0
  0
SPLINE
  5
62
330
41
100
AcDbEntity
  8
Layer 1
370
     0
100
AcDbSpline
210
0.0
220
0.0
230
1.0
 70
    11
 71
     3
 72
    20
 73
    16
 74
     0
 42
0.0000000001
 43
0.0000000001
 12
1.0
 22
0.0
 32
0.0
 13
1.0
 23
0.0
 33
0.0
 40
0.0
 40
0.0
 40
0.0
 40
0.0
 40
1.0
 40
1.0
 40
1.0
 40
2.0
 40
2.0
 40
2.0
 40
3.0
 40
3.0
 40
3.0
 40
4.0
 40
4.0
 40
4.0
 40
5.0
 40
5.0
 40
5.0
 40
5.0
 10
1.251537340583177
 20
-3.706780876086845
 30
0.0
 10
1.251537340583177
 20
-3.706780876086845
 30
0.0
 10
1.292997535893493
 20
-3.34027833401107
 30
0.0
 10
1.292997535893493
 20
-3.34027833401107
 30
0.0
 10
1.305933388425097
 20
-3.22592714002192
 30
0.0
 10
1.395798975549294
 20
-3.133478136680221
 30
0.0
 10
1.513631301127184
 20
-3.113301886717712
 30
0.0
 10
1.513631301127184
 20
-3.113301886717712
 30
0.0
 10
2.21589503154635
 20
-2.993054335843605
 30
0.0
 10
2.21589503154635
 20
-2.993054335843605
 30
0.0
 10
2.21589503154635
 20
-2.993054335843605
 30
0.0
 10
2.516160677709675
 20
-3.706780876086845
 30
0.0
 10
2.516160677709675
 20
-3.706780876086845
 30
0.0
 10
2.516160677709675
 20
-3.706780876086845
 30
0.0
 10
1.251537340583177
 20
-3.706780876086845
 30
0.0
 10
1.251537340583177
 20
-3.706780876086845
 30
0.0
  0
HATCH
  5
63
330
41
100
AcDbEntity
  8
Layer 1
 62
     7
100
AcDbHatch
 10
0.0
 20
0.0
 30
0.0
210
0.0
220
0.0
230
1.0
  2
SOLID
 70
     1
 71
     0
 91
        1
 92
        1
 93
        1
 72
     4
 94
        3
 73
     0
 74
     1
 95
       20
 96
       16
 40
0.0
 40
0.0
 40
0.0
 40
0.0
 40
1.0
 40
1.0
 40
1.0
 40
2.0
 40
2.0
 40
2.0
 40
3.0
 40
3.0
 40
3.0
 40
4.0
 40
4.0
 40
4.0
 40
5.0
 40
5.0
 40
5.0
 40
5.0
 10
1.251537340583177
 20
-3.706780876086845
 10
1.251537340583177
 20
-3.706780876086845
 10
1.292997535893493
 20
-3.34027833401107
 10
1.292997535893493
 20
-3.34027833401107
 10
1.305933388425097
 20
-3.22592714002192
 10
1.395798975549294
 20
-3.133478136680221
 10
1.513631301127184
 20
-3.113301886717712
 10
1.513631301127184
 20
-3.113301886717712
 10
2.21589503154635
 20
-2.993054335843605
 10
2.21589503154635
 20
-2.993054335843605
 10
2.21589503154635
 20
-2.993054335843605
 10
2.516160677709675
 20
-3.706780876086845
 10
2.516160677709675
 20
-3.706780876086845
 10
2.516160677709675
 20
-3.706780876086845
 10
1.251537340583177
 20
-3.706780876086845
 10
1.251537340583177
 20
-3.706780876086845
 97
        0
 97
        0
 75
     2
 76
     1
 98
        0
  0
SPLINE
  5
64
330
41
100
AcDbEntity
  8
Layer 1
370
     0
100
AcDbSpline
210
0.0
220
0.0
230
1.0
 70
    11
 71
     3
 72
    20
 73
    16
 74
     0
 42
0.0000000001
 43
0.0000000001
 12
1.0
 22
0.0
 32
0.0
 13
1.0
 23
0.0
 33
0.0
 40
0.0
 40
0.0
 40
0.0
 40
0.0
 40
1.0
 40
1.0
 40
1.0
 40
2.0
 40
2.0
 40
2.0
 40
3.0
 40
3.0
 40
3.0
 40
4.0
 40
4.0
 40
4.0
 40
5.0
 40
5.0
 40
5.0
 40
5.0
 10
3.74069502207668
 20
-3.706780876107662
 30
0.0
 10
3.74069502207668
 20
-3.706780876107662
 30
0.0
 10
3.704901487310331
 20
-3.3424740205529
 30
0.0
 10
3.704901487310331
 20
-3.3424740205529
 30
0.0
 10
3.693959492707411
 20
-3.2311063203994
 30
0.0
 10
3.60741123372908
 20
-3.140257840917355
 30
0.0
 10
3.492941297679989
 20
-3.119982416840104
 30
0.0
 10
3.492941297679989
 20
-3.119982416840104
 30
0.0
 10
2.77633733114673
 20
-2.993054335822788
 30
0.0
 10
2.77633733114673
 20
-2.993054335822788
 30
0.0
 10
2.77633733114673
 20
-2.993054335822788
 30
0.0
 10
2.476071684950057
 20
-3.706780876053143
 30
0.0
 10
2.476071684950057
 20
-3.706780876053143
 30
0.0
 10
2.476071684950057
 20
-3.706780876053143
 30
0.0
 10
3.74069502207668
 20
-3.706780876107662
 30
0.0
 10
3.74069502207668
 20
-3.706780876107662
 30
0.0
  0
HATCH
  5
65
330
41
100
AcDbEntity
  8
Layer 1
 62
     7
100
AcDbHatch
 10
0.0
 20
0.0
 30
0.0
210
0.0
220
0.0
230
1.0
  2
SOLID
 70
     1
 71
     0
 91
        1
 92
        1
 93
        1
 72
     4
 94
        3
 73
     0
 74
     1
 95
       20
 96
       16
 40
0.0
 40
0.0
 40
0.0
 40
0.0
 40
1.0
 40
1.0
 40
1.0
 40
2.0
 40
2.0
 40
2.0
 40
3.0
 40
3.0
 40
3.0
 40
4.0
 40
4.0
 40
4.0
 40
5.0
 40
5.0
 40
5.0
 40
5.0
 10
3.74069502207668
 20
-3.706780876107662
 10
3.74069502207668
 20
-3.706780876107662
 10
3.704901487310331
 20
-3.3424740205529
 10
3.704901487310331
 20
-3.3424740205529
 10
3.693959492707411
 20
-3.2311063203994
 10
3.60741123372908
 20
-3.140257840917355
 10
3.492941297679989
 20
-3.119982416840104
 10
3.492941297679989
 20
-3.119982416840104
 10
2.77633733114673
 20
-2.993054335822788
 10
2.77633733114673
 20
-2.993054335822788
 10
2.77633733114673
 20
-2.993054335822788
 10
2.476071684950057
 20
-3.706780876053143
 10
2.476071684950057
 20
-3.706780876053143
 10
2.476071684950057
 20
-3.706780876053143
 10
3.74069502207668
 20
-3.706780876107662
 10
3.74069502207668
 20
-3.706780876107662
 97
        0
 97
        0
 75
     2
 76
     1
 98
        0
  0
POLYLINE
  5
66
330
41
100
AcDbEntity
  8
Layer 1
370
     0
100
AcDb2dPolyline
 66
     1
 10
0.0
 20
0.0
 30
0.0
  0
VERTEX
  5
67
330
66
100
AcDbEntity
  8
Layer 1
370
     0
100
AcDbVertex
100
AcDb2dVertex
 10
2.495831034407527
 20
-3.660361203991442
 30
0.0
  0
VERTEX
  5
68
330
66
100
AcDbEntity
  8
Layer 1
370
     0
100
AcDbVertex
100
AcDb2dVertex
 10
2.495831034407527
 20
-2.993054335837087
 30
0.0
  0
VERTEX
  5
69
330
66
100
AcDbEntity
  8
Layer 1
370
     0
100
AcDbVertex
100
AcDb2dVertex
 10
2.21589503154635
 20
-2.993054335837087
 30
0.0
  0
VERTEX
  5
6A
330
66
100
AcDbEntity
  8
Layer 1
370
     0
100
AcDbVertex
100
AcDb2dVertex
 10
2.495831034407527
 20
-3.660361203991442
 30
0.0
  0
SEQEND
  5
6C
330
66
100
AcDbEntity
  8
Layer 1
370
     0
  0
HATCH
  5
6B
330
41
100
AcDbEntity
  8
Layer 1
 62
     1
100
AcDbHatch
 10
0.0
 20
0.0
 30
0.0
210
0.0
220
0.0
230
1.0
  2
SOLID
 70
     1
 71
     0
 91
        1
 92
        1
 93
        3
 72
     1
 10
2.495831034407527
 20
-3.660361203991442
 11
2.495831034407527
 21
-2.993054335837087
 72
     1
 10
2.495831034407527
 20
-2.993054335837087
 11
2.21589503154635
 21
-2.993054335837087
 72
     1
 10
2.21589503154635
 20
-2.993054335837087
 11
2.495831034407527
 21
-3.660361203991442
 97
        0
 75
     2
 76
     1
 98
        0
  0
POLYLINE
  5
6D
330
41
100
AcDbEntity
  8
Layer 1
370
     0
100
AcDb2dPolyline
 66
     1
 10
0.0
 20
0.0
 30
0.0
  0
VERTEX
  5
6E
330
6D
100
AcDbEntity
  8
Layer 1
370
     0
100
AcDbVertex
100
AcDb2dVertex
 10
2.495831034407527
 20
-3.660361203985404
 30
0.0
  0
VERTEX
  5
6F
330
6D
100
AcDbEntity
  8
Layer 1
370
     0
100
AcDbVertex
100
AcDb2dVertex
 10
2.495831034438829
 20
-2.993054335831074
 30
0.0
  0
VERTEX
  5
70
330
6D
100
AcDbEntity
  8
Layer 1
370
     0
100
AcDbVertex
100
AcDb2dVertex
 10
2.77576703729993
 20
-2.993054335843125
 30
0.0
  0
VERTEX
  5
71
330
6D
100
AcDbEntity
  8
Layer 1
370
     0
100
AcDbVertex
100
AcDb2dVertex
 10
2.495831034407527
 20
-3.660361203985404
 30
0.0
  0
SEQEND
  5
73
330
6D
100
AcDbEntity
  8
Layer 1
370
     0
  0
HATCH
  5
72
330
41
100
AcDbEntity
  8
Layer 1
 62
     2
100
AcDbHatch
 10
0.0
 20
0.0
 30
0.0
210
0.0
220
0.0
230
1.0
  2
SOLID
 70
     1
 71
     0
 91
        1
 92
        1
 93
        3
 72
     1
 10
2.495831034407527
 20
-3.660361203985404
 11
2.495831034438829
 21
-2.993054335831074
 72
     1
 10
2.495831034438829
 20
-2.993054335831074
 11
2.77576703729993
 21
-2.993054335843125
 72
     1
 10
2.77576703729993
 20
-2.993054335843125
 11
2.495831034407527
 21
-3.660361203985404
 97
        0
 75
     2
 76
     1
 98
        0
  0
INSERT
  5
75
330
41
100
AcDbEntity
  8
Layer 1
100
AcDbBlockReference
  2
block 5
 10
0.0
 20
0.0
 30
0.0
  0
POLYLINE
  5
7A
330
41
100
AcDbEntity
  8
Layer 1
370
     0
100
AcDb2dPolyline
 66
     1
 10
0.0
 20
0.0
 30
0.0
  0
VERTEX
  5
7B
330
7A
100
AcDbEntity
  8
Layer 1
370
     0
100
AcDbVertex
100
AcDb2dVertex
 10
2.494285623156631
 20
-3.706780704541895
 30
0.0
  0
VERTEX
  5
7C
330
7A
100
AcDbEntity
  8
Layer 1
370
     0
100
AcDbVertex
100
AcDb2dVertex
 10
2.896301390216397
 20
-3.142768551196696
 30
0.0
  0
VERTEX
  5
7D
330
7A
100
AcDbEntity
  8
Layer 1
370
     0
100
AcDbVertex
100
AcDb2dVertex
 10
2.092269856096664
 20
-3.142768551196696
 30
0.0
  0
VERTEX
  5
7E
330
7A
100
AcDbEntity
  8
Layer 1
370
     0
100
AcDbVertex
100
AcDb2dVertex
 10
2.494285623156631
 20
-3.706780704541895
 30
0.0
  0
SEQEND
  5
80
330
7A
100
AcDbEntity
  8
Layer 1
370
     0
  0
HATCH
  5
7F
330
41
100
AcDbEntity
  8
Layer 1
 62
     7
100
AcDbHatch
 10
0.0
 20
0.0
 30
0.0
210
0.0
220
0.0
230
1.0
  2
SOLID
 70
     1
 71
     0
 91
        1
 92
        1
 93
        3
 72
     1
 10
2.494285623156631
 20
-3.706780704541895
 11
2.896301390216397
 21
-3.142768551196696
 72
     1
 10
2.896301390216397
 20
-3.142768551196696
 11
2.092269856096664
 21
-3.142768551196696
 72
     1
 10
2.092269856096664
 20
-3.142768551196696
 11
2.494285623156631
 21
-3.706780704541895
 97
        0
 75
     2
 76
     1
 98
        0
  0
SPLINE
  5
81
330
41
100
AcDbEntity
  8
Layer 1
370
     0
100
AcDbSpline
210
0.0
220
0.0
230
1.0
 70
    11
 71
     3
 72
    17
 73
    13
 74
     0
 42
0.0000000001
 43
0.0000000001
 12
1.0
 22
0.0
 32
0.0
 13
1.0
 23
0.0
 33
0.0
 40
0.0
 40
0.0
 40
0.0
 40
0.0
 40
1.0
 40
1.0
 40
1.0
 40
2.0
 40
2.0
 40
2.0
 40
3.0
 40
3.0
 40
3.0
 40
4.0
 40
4.0
 40
4.0
 40
4.0
 10
2.290119316866442
 20
-2.136419886220425
 30
0.0
 10
2.290119316866442
 20
-2.164079279332807
 30
0.0
 10
2.266787968828011
 20
-2.186501647707018
 30
0.0
 10
2.238007292476292
 20
-2.186501647707018
 30
0.0
 10
2.209226616124498
 20
-2.186501647707018
 30
0.0
 10
2.185895268086041
 20
-2.164079279332807
 30
0.0
 10
2.185895268086041
 20
-2.136419886220425
 30
0.0
 10
2.185895268086041
 20
-2.108760493108321
 30
0.0
 10
2.209226616124498
 20
-2.086338124734261
 30
0.0
 10
2.238007292476292
 20
-2.086338124734261
 30
0.0
 10
2.266787968828011
 20
-2.086338124734261
 30
0.0
 10
2.290119316866442
 20
-2.108760493108321
 30
0.0
 10
2.290119316866442
 20
-2.136419886220425
 30
0.0
  0
HATCH
  5
82
330
41
100
AcDbEntity
  8
Layer 1
 62
     7
100
AcDbHatch
 10
0.0
 20
0.0
 30
0.0
210
0.0
220
0.0
230
1.0
  2
SOLID
 70
     1
 71
     0
 91
        1
 92
        1
 93
        1
 72
     4
 94
        3
 73
     0
 74
     1
 95
       17
 96
       13
 40
0.0
 40
0.0
 40
0.0
 40
0.0
 40
1.0
 40
1.0
 40
1.0
 40
2.0
 40
2.0
 40
2.0
 40
3.0
 40
3.0
 40
3.0
 40
4.0
 40
4.0
 40
4.0
 40
4.0
 10
2.290119316866442
 20
-2.136419886220425
 10
2.290119316866442
 20
-2.164079279332807
 10
2.266787968828011
 20
-2.186501647707018
 10
2.238007292476292
 20
-2.186501647707018
 10
2.209226616124498
 20
-2.186501647707018
 10
2.185895268086041
 20
-2.164079279332807
 10
2.185895268086041
 20
-2.136419886220425
 10
2.185895268086041
 20
-2.108760493108321
 10
2.209226616124498
 20
-2.086338124734261
 10
2.238007292476292
 20
-2.086338124734261
 10
2.266787968828011
 20
-2.086338124734261
 10
2.290119316866442
 20
-2.108760493108321
 10
2.290119316866442
 20
-2.136419886220425
 97
        0
 97
        0
 75
     2
 76
     1
 98
        0
  0
SPLINE
  5
83
330
41
100
AcDbEntity
  8
Layer 1
370
     0
100
AcDbSpline
210
0.0
220
0.0
230
1.0
 70
    11
 71
     3
 72
    17
 73
    13
 74
     0
 42
0.0000000001
 43
0.0000000001
 12
1.0
 22
0.0
 32
0.0
 13
1.0
 23
0.0
 33
0.0
 40
0.0
 40
0.0
 40
0.0
 40
0.0
 40
1.0
 40
1.0
 40
1.0
 40
2.0
 40
2.0
 40
2.0
 40
3.0
 40
3.0
 40
3.0
 40
4.0
 40
4.0
 40
4.0
 40
4.0
 10
2.81652021492899
 20
-2.136419886220425
 30
0.0
 10
2.81652021492899
 20
-2.164079279332807
 30
0.0
 10
2.793188866890887
 20
-2.186501647707018
 30
0.0
 10
2.764408190539092
 20
-2.186501647707018
 30
0.0
 10
2.735627514187298
 20
-2.186501647707018
 30
0.0
 10
2.712296166148841
 20
-2.164079279332807
 30
0.0
 10
2.712296166148841
 20
-2.136419886220425
 30
0.0
 10
2.712296166148841
 20
-2.108760493108321
 30
0.0
 10
2.735627514187298
 20
-2.086338124734261
 30
0.0
 10
2.764408190539092
 20
-2.086338124734261
 30
0.0
 10
2.793188866890887
 20
-2.086338124734261
 30
0.0
 10
2.81652021492899
 20
-2.108760493108321
 30
0.0
 10
2.81652021492899
 20
-2.136419886220425
 30
0.0
  0
HATCH
  5
84
330
41
100
AcDbEntity
  8
Layer 1
 62
     7
100
AcDbHatch
 10
0.0
 20
0.0
 30
0.0
210
0.0
220
0.0
230
1.0
  2
SOLID
 70
     1
 71
     0
 91
        1
 92
        1
 93
        1
 72
     4
 94
        3
 73
     0
 74
     1
 95
       17
 96
       13
 40
0.0
 40
0.0
 40
0.0
 40
0.0
 40
1.0
 40
1.0
 40
1.0
 40
2.0
 40
2.0
 40
2.0
 40
3.0
 40
3.0
 40
3.0
 40
4.0
 40
4.0
 40
4.0
 40
4.0
 10
2.81652021492899
 20
-2.136419886220425
 10
2.81652021492899
 20
-2.164079279332807
 10
2.793188866890887
 20
-2.186501647707018
 10
2.764408190539092
 20
-2.186501647707018
 10
2.735627514187298
 20
-2.186501647707018
 10
2.712296166148841
 20
-2.164079279332807
 10
2.712296166148841
 20
-2.136419886220425
 10
2.712296166148841
 20
-2.108760493108321
 10
2.735627514187298
 20
-2.086338124734261
 10
2.764408190539092
 20
-2.086338124734261
 10
2.793188866890887
 20
-2.086338124734261
 10
2.81652021492899
 20
-2.108760493108321
 10
2.81652021492899
 20
-2.136419886220425
 97
        0
 97
        0
 75
     2
 76
     1
 98
        0
  0
POLYLINE
  5
85
330
41
100
AcDbEntity
  8
Layer 1
370
     0
100
AcDb2dPolyline
 66
     1
 10
0.0
 20
0.0
 30
0.0
  0
VERTEX
  5
86
330
85
100
AcDbEntity
  8
Layer 1
370
     0
100
AcDbVertex
100
AcDb2dVertex
 10
2.03418940129614
 20
-1.578560915950131
 30
0.0
  0
VERTEX
  5
87
330
85
100
AcDbEntity
  8
Layer 1
370
     0
100
AcDbVertex
100
AcDb2dVertex
 10
1.916277634716127
 20
-1.578560915950131
 30
0.0
  0
VERTEX
  5
88
330
85
100
AcDbEntity
  8
Layer 1
370
     0
100
AcDbVertex
100
AcDb2dVertex
 10
1.916277634716127
 20
-2.07867491716604
 30
0.0
  0
VERTEX
  5
89
330
85
100
AcDbEntity
  8
Layer 1
370
     0
100
AcDbVertex
100
AcDb2dVertex
 10
2.03418940129614
 20
-2.07867491716604
 30
0.0
  0
VERTEX
  5
8A
330
85
100
AcDbEntity
  8
Layer 1
370
     0
100
AcDbVertex
100
AcDb2dVertex
 10
2.03418940129614
 20
-1.578560915950131
 30
0.0
  0
SEQEND
  5
8C
330
85
100
AcDbEntity
  8
Layer 1
370
     0
  0
HATCH
  5
8B
330
41
100
AcDbEntity
  8
Layer 1
 62
     7
100
AcDbHatch
 10
0.0
 20
0.0
 30
0.0
210
0.0
220
0.0
230
1.0
  2
SOLID
 70
     1
 71
     0
 91
        1
 92
        1
 93
        4
 72
     1
 10
2.03418940129614
 20
-1.578560915950131
 11
1.916277634716127
 21
-1.578560915950131
 72
     1
 10
1.916277634716127
 20
-1.578560915950131
 11
1.916277634716127
 21
-2.07867491716604
 72
     1
 10
1.916277634716127
 20
-2.07867491716604
 11
2.03418940129614
 21
-2.07867491716604
 72
     1
 10
2.03418940129614
 20
-2.07867491716604
 11
2.03418940129614
 21
-1.578560915950131
 97
        0
 75
     2
 76
     1
 98
        0
  0
SPLINE
  5
8D
330
41
100
AcDbEntity
  8
Layer 1
370
     0
100
AcDbSpline
210
0.0
220
0.0
230
1.0
 70
    11
 71
     3
 72
    29
 73
    25
 74
     0
 42
0.0000000001
 43
0.0000000001
 12
1.0
 22
0.0
 32
0.0
 13
1.0
 23
0.0
 33
0.0
 40
0.0
 40
0.0
 40
0.0
 40
0.0
 40
1.0
 40
1.0
 40
1.0
 40
2.0
 40
2.0
 40
2.0
 40
3.0
 40
3.0
 40
3.0
 40
4.0
 40
4.0
 40
4.0
 40
5.0
 40
5.0
 40
5.0
 40
6.0
 40
6.0
 40
6.0
 40
7.0
 40
7.0
 40
7.0
 40
8.0
 40
8.0
 40
8.0
 40
8.0
 10
2.706916702545742
 20
-2.446269411190972
 30
0.0
 10
2.706916702545742
 20
-2.446269411190972
 30
0.0
 10
2.540409685787709
 20
-2.433322313492252
 30
0.0
 10
2.516161034413067
 20
-2.433322313492252
 30
0.0
 10
2.49191043629364
 20
-2.433322313492252
 30
0.0
 10
2.325405366280317
 20
-2.446269411190972
 30
0.0
 10
2.325405366280317
 20
-2.446269411190972
 30
0.0
 10
2.179909564542363
 20
-2.477342726302923
 30
0.0
 10
2.24996317081415
 20
-2.601634115850655
 30
0.0
 10
2.24996317081415
 20
-2.601634115850655
 30
0.0
 10
2.24996317081415
 20
-2.601634115850655
 30
0.0
 10
2.268823232994539
 20
-2.562793290479526
 30
0.0
 10
2.268823232994539
 20
-2.562793290479526
 30
0.0
 10
2.287685241919588
 20
-2.523951997383316
 30
0.0
 10
2.516161034413067
 20
-2.521152662831582
 30
0.0
 10
2.516161034413067
 20
-2.521152662831582
 30
0.0
 10
2.516161034413067
 20
-2.521152662831582
 30
0.0
 10
2.74463682690647
 20
-2.523951997383316
 30
0.0
 10
2.763496889086759
 20
-2.562793290479526
 30
0.0
 10
2.763496889086759
 20
-2.562793290479526
 30
0.0
 10
2.7823569512673
 20
-2.601634115850655
 30
0.0
 10
2.7823569512673
 20
-2.601634115850655
 30
0.0
 10
2.7823569512673
 20
-2.601634115850655
 30
0.0
 10
2.852412504283696
 20
-2.477342726302923
 30
0.0
 10
2.706916702545742
 20
-2.446269411190972
 30
0.0
  0
HATCH
  5
8E
330
41
100
AcDbEntity
  8
Layer 1
 62
     7
100
AcDbHatch
 10
0.0
 20
0.0
 30
0.0
210
0.0
220
0.0
230
1.0
  2
SOLID
 70
     1
 71
     0
 91
        1
 92
        1
 93
        1
 72
     4
 94
        3
 73
     0
 74
     1
 95
       29
 96
       25
 40
0.0
 40
0.0
 40
0.0
 40
0.0
 40
1.0
 40
1.0
 40
1.0
 40
2.0
 40
2.0
 40
2.0
 40
3.0
 40
3.0
 40
3.0
 40
4.0
 40
4.0
 40
4.0
 40
5.0
 40
5.0
 40
5.0
 40
6.0
 40
6.0
 40
6.0
 40
7.0
 40
7.0
 40
7.0
 40
8.0
 40
8.0
 40
8.0
 40
8.0
 10
2.706916702545742
 20
-2.446269411190972
 10
2.706916702545742
 20
-2.446269411190972
 10
2.540409685787709
 20
-2.433322313492252
 10
2.516161034413067
 20
-2.433322313492252
 10
2.49191043629364
 20
-2.433322313492252
 10
2.325405366280317
 20
-2.446269411190972
 10
2.325405366280317
 20
-2.446269411190972
 10
2.179909564542363
 20
-2.477342726302923
 10
2.24996317081415
 20
-2.601634115850655
 10
2.24996317081415
 20
-2.601634115850655
 10
2.24996317081415
 20
-2.601634115850655
 10
2.268823232994539
 20
-2.562793290479526
 10
2.268823232994539
 20
-2.562793290479526
 10
2.287685241919588
 20
-2.523951997383316
 10
2.516161034413067
 20
-2.521152662831582
 10
2.516161034413067
 20
-2.521152662831582
 10
2.516161034413067
 20
-2.521152662831582
 10
2.74463682690647
 20
-2.523951997383316
 10
2.763496889086759
 20
-2.562793290479526
 10
2.763496889086759
 20
-2.562793290479526
 10
2.7823569512673
 20
-2.601634115850655
 10
2.7823569512673
 20
-2.601634115850655
 10
2.7823569512673
 20
-2.601634115850655
 10
2.852412504283696
 20
-2.477342726302923
 10
2.706916702545742
 20
-2.446269411190972
 97
        0
 97
        0
 75
     2
 76
     1
 98
        0
  0
SPLINE
  5
8F
330
41
100
AcDbEntity
  8
Layer 1
370
     0
100
AcDbSpline
210
0.0
220
0.0
230
1.0
 70
    11
 71
     3
 72
    29
 73
    25
 74
     0
 42
0.0000000001
 43
0.0000000001
 12
1.0
 22
0.0
 32
0.0
 13
1.0
 23
0.0
 33
0.0
 40
0.0
 40
0.0
 40
0.0
 40
0.0
 40
1.0
 40
1.0
 40
1.0
 40
2.0
 40
2.0
 40
2.0
 40
3.0
 40
3.0
 40
3.0
 40
4.0
 40
4.0
 40
4.0
 40
5.0
 40
5.0
 40
5.0
 40
6.0
 40
6.0
 40
6.0
 40
7.0
 40
7.0
 40
7.0
 40
8.0
 40
8.0
 40
8.0
 40
8.0
 10
2.64762664745015
 20
-2.831417153430064
 30
0.0
 10
2.576566574193698
 20
-2.831417153430064
 30
0.0
 10
2.549189504164461
 20
-2.671330296450504
 30
0.0
 10
2.549189504164461
 20
-2.671330296450504
 30
0.0
 10
2.549189504164461
 20
-2.671330296450504
 30
0.0
 10
2.495831180021039
 20
-2.671330296450504
 30
0.0
 10
2.495831180021039
 20
-2.671330296450504
 30
0.0
 10
2.495831180021039
 20
-2.671330296450504
 30
0.0
 10
2.442474802622175
 20
-2.671330296450504
 30
0.0
 10
2.442474802622175
 20
-2.671330296450504
 30
0.0
 10
2.442474802622175
 20
-2.671330296450504
 30
0.0
 10
2.41509578584833
 20
-2.831417153430064
 30
0.0
 10
2.344037659336537
 20
-2.831417153430064
 30
0.0
 10
2.344037659336537
 20
-2.831417153430064
 30
0.0
 10
2.304863316721291
 20
-2.857221545613811
 30
0.0
 10
2.303185222832073
 20
-2.865285593568109
 30
0.0
 10
2.301507128942881
 20
-2.873349641522509
 30
0.0
 10
2.450176124462056
 20
-2.907362608707621
 30
0.0
 10
2.495831180021039
 20
-2.902451963183997
 30
0.0
 10
2.54148623557982
 20
-2.907362608707621
 30
0.0
 10
2.690155231099298
 20
-2.873349641522509
 30
0.0
 10
2.688477137210005
 20
-2.865285593568109
 30
0.0
 10
2.686799043320712
 20
-2.857221545613811
 30
0.0
 10
2.64762664745015
 20
-2.831417153430064
 30
0.0
 10
2.64762664745015
 20
-2.831417153430064
 30
0.0
  0
HATCH
  5
90
330
41
100
AcDbEntity
  8
Layer 1
 62
     7
100
AcDbHatch
 10
0.0
 20
0.0
 30
0.0
210
0.0
220
0.0
230
1.0
  2
SOLID
 70
     1
 71
     0
 91
        1
 92
        1
 93
        1
 72
     4
 94
        3
 73
     0
 74
     1
 95
       29
 96
       25
 40
0.0
 40
0.0
 40
0.0
 40
0.0
 40
1.0
 40
1.0
 40
1.0
 40
2.0
 40
2.0
 40
2.0
 40
3.0
 40
3.0
 40
3.0
 40
4.0
 40
4.0
 40
4.0
 40
5.0
 40
5.0
 40
5.0
 40
6.0
 40
6.0
 40
6.0
 40
7.0
 40
7.0
 40
7.0
 40
8.0
 40
8.0
 40
8.0
 40
8.0
 10
2.64762664745015
 20
-2.831417153430064
 10
2.576566574193698
 20
-2.831417153430064
 10
2.549189504164461
 20
-2.671330296450504
 10
2.549189504164461
 20
-2.671330296450504
 10
2.549189504164461
 20
-2.671330296450504
 10
2.495831180021039
 20
-2.671330296450504
 10
2.495831180021039
 20
-2.671330296450504
 10
2.495831180021039
 20
-2.671330296450504
 10
2.442474802622175
 20
-2.671330296450504
 10
2.442474802622175
 20
-2.671330296450504
 10
2.442474802622175
 20
-2.671330296450504
 10
2.41509578584833
 20
-2.831417153430064
 10
2.344037659336537
 20
-2.831417153430064
 10
2.344037659336537
 20
-2.831417153430064
 10
2.304863316721291
 20
-2.857221545613811
 10
2.303185222832073
 20
-2.865285593568109
 10
2.301507128942881
 20
-2.873349641522509
 10
2.450176124462056
 20
-2.907362608707621
 10
2.495831180021039
 20
-2.902451963183997
 10
2.54148623557982
 20
-2.907362608707621
 10
2.690155231099298
 20
-2.873349641522509
 10
2.688477137210005
 20
-2.865285593568109
 10
2.686799043320712
 20
-2.857221545613811
 10
2.64762664745015
 20
-2.831417153430064
 10
2.64762664745015
 20
-2.831417153430064
 97
        0
 97
        0
 75
     2
 76
     1
 98
        0
  0
SPLINE
  5
91
330
41
100
AcDbEntity
  8
Layer 1
370
     0
100
AcDbSpline
210
0.0
220
0.0
230
1.0
 70
    11
 71
     3
 72
    29
 73
    25
 74
     0
 42
0.0000000001
 43
0.0000000001
 12
1.0
 22
0.0
 32
0.0
 13
1.0
 23
0.0
 33
0.0
 40
0.0
 40
0.0
 40
0.0
 40
0.0
 40
1.0
 40
1.0
 40
1.0
 40
2.0
 40
2.0
 40
2.0
 40
3.0
 40
3.0
 40
3.0
 40
4.0
 40
4.0
 40
4.0
 40
5.0
 40
5.0
 40
5.0
 40
6.0
 40
6.0
 40
6.0
 40
7.0
 40
7.0
 40
7.0
 40
8.0
 40
8.0
 40
8.0
 40
8.0
 10
1.908382028141432
 20
-2.086774500568354
 30
0.0
 10
1.908382028141432
 20
-2.086774500568354
 30
0.0
 10
2.044656220672601
 20
-2.086774500591345
 30
0.0
 10
2.044656220672601
 20
-2.086774500591345
 30
0.0
 10
2.057361543096855
 20
-2.086774500593492
 30
0.0
 10
2.067756806901091
 20
-2.076379236793615
 30
0.0
 10
2.067756806904324
 20
-2.063673914369386
 30
0.0
 10
2.067756806904324
 20
-2.063673914369386
 30
0.0
 10
2.067756806907533
 20
-2.050935509226785
 30
0.0
 10
2.067756806907533
 20
-2.050935509226785
 30
0.0
 10
2.067756806910741
 20
-2.038230186747127
 30
0.0
 10
2.057361543066387
 20
-2.027834922897871
 30
0.0
 10
2.044656220586729
 20
-2.027834922895105
 30
0.0
 10
2.044656220586729
 20
-2.027834922895105
 30
0.0
 10
1.908382028369336
 20
-2.027834922865446
 30
0.0
 10
1.908382028369336
 20
-2.027834922865446
 30
0.0
 10
1.895676705916129
 20
-2.027834922862679
 30
0.0
 10
1.885281442057728
 20
-2.038230186685786
 30
0.0
 10
1.885281442017357
 20
-2.050935509139018
 30
0.0
 10
1.885281442017357
 20
-2.050935509139018
 30
0.0
 10
1.885281441976884
 20
-2.063673914326513
 30
0.0
 10
1.885281441976884
 20
-2.063673914326513
 30
0.0
 10
1.885281441936513
 20
-2.076379236757374
 30
0.0
 10
1.895676705710583
 20
-2.086774500566207
 30
0.0
 10
1.908382028141432
 20
-2.086774500568354
 30
0.0
  0
HATCH
  5
92
330
41
100
AcDbEntity
  8
Layer 1
 62
     2
100
AcDbHatch
 10
0.0
 20
0.0
 30
0.0
210
0.0
220
0.0
230
1.0
  2
SOLID
 70
     1
 71
     0
 91
        1
 92
        1
 93
        1
 72
     4
 94
        3
 73
     0
 74
     1
 95
       29
 96
       25
 40
0.0
 40
0.0
 40
0.0
 40
0.0
 40
1.0
 40
1.0
 40
1.0
 40
2.0
 40
2.0
 40
2.0
 40
3.0
 40
3.0
 40
3.0
 40
4.0
 40
4.0
 40
4.0
 40
5.0
 40
5.0
 40
5.0
 40
6.0
 40
6.0
 40
6.0
 40
7.0
 40
7.0
 40
7.0
 40
8.0
 40
8.0
 40
8.0
 40
8.0
 10
1.908382028141432
 20
-2.086774500568354
 10
1.908382028141432
 20
-2.086774500568354
 10
2.044656220672601
 20
-2.086774500591345
 10
2.044656220672601
 20
-2.086774500591345
 10
2.057361543096855
 20
-2.086774500593492
 10
2.067756806901091
 20
-2.076379236793615
 10
2.067756806904324
 20
-2.063673914369386
 10
2.067756806904324
 20
-2.063673914369386
 10
2.067756806907533
 20
-2.050935509226785
 10
2.067756806907533
 20
-2.050935509226785
 10
2.067756806910741
 20
-2.038230186747127
 10
2.057361543066387
 20
-2.027834922897871
 10
2.044656220586729
 20
-2.027834922895105
 10
2.044656220586729
 20
-2.027834922895105
 10
1.908382028369336
 20
-2.027834922865446
 10
1.908382028369336
 20
-2.027834922865446
 10
1.895676705916129
 20
-2.027834922862679
 10
1.885281442057728
 20
-2.038230186685786
 10
1.885281442017357
 20
-2.050935509139018
 10
1.885281442017357
 20
-2.050935509139018
 10
1.885281441976884
 20
-2.063673914326513
 10
1.885281441976884
 20
-2.063673914326513
 10
1.885281441936513
 20
-2.076379236757374
 10
1.895676705710583
 20
-2.086774500566207
 10
1.908382028141432
 20
-2.086774500568354
 97
        0
 97
        0
 75
     2
 76
     1
 98
        0
  0
SPLINE
  5
93
330
41
100
AcDbEntity
  8
Layer 1
370
     0
100
AcDbSpline
210
0.0
220
0.0
230
1.0
 70
    11
 71
     3
 72
    20
 73
    16
 74
     0
 42
0.0000000001
 43
0.0000000001
 12
1.0
 22
0.0
 32
0.0
 13
1.0
 23
0.0
 33
0.0
 40
0.0
 40
0.0
 40
0.0
 40
0.0
 40
1.0
 40
1.0
 40
1.0
 40
2.0
 40
2.0
 40
2.0
 40
3.0
 40
3.0
 40
3.0
 40
4.0
 40
4.0
 40
4.0
 40
5.0
 40
5.0
 40
5.0
 40
5.0
 10
2.03418940129614
 20
-1.912913199808536
 30
0.0
 10
2.03418940129614
 20
-1.912913199808536
 30
0.0
 10
2.03418940129614
 20
-1.639866576495908
 30
0.0
 10
2.516160533959742
 20
-1.639866576495908
 30
0.0
 10
2.516160533959742
 20
-1.639866576495908
 30
0.0
 10
2.516160533959742
 20
-1.483747185550341
 30
0.0
 10
2.516160533959742
 20
-1.483747185550341
 30
0.0
 10
2.516160533959742
 20
-1.483747185550341
 30
0.0
 10
1.916277634716127
 20
-1.483747185550341
 30
0.0
 10
1.916277634716127
 20
-1.483747185550341
 30
0.0
 10
1.916277634716127
 20
-1.483747185550341
 30
0.0
 10
1.916277634716127
 20
-1.912913199808536
 30
0.0
 10
1.916277634716127
 20
-1.912913199808536
 30
0.0
 10
1.916277634716127
 20
-1.912913199808536
 30
0.0
 10
2.03418940129614
 20
-1.912913199808536
 30
0.0
 10
2.03418940129614
 20
-1.912913199808536
 30
0.0
  0
HATCH
  5
94
330
41
100
AcDbEntity
  8
Layer 1
 62
     7
100
AcDbHatch
 10
0.0
 20
0.0
 30
0.0
210
0.0
220
0.0
230
1.0
  2
SOLID
 70
     1
 71
     0
 91
        1
 92
        1
 93
        1
 72
     4
 94
        3
 73
     0
 74
     1
 95
       20
 96
       16
 40
0.0
 40
0.0
 40
0.0
 40
0.0
 40
1.0
 40
1.0
 40
1.0
 40
2.0
 40
2.0
 40
2.0
 40
3.0
 40
3.0
 40
3.0
 40
4.0
 40
4.0
 40
4.0
 40
5.0
 40
5.0
 40
5.0
 40
5.0
 10
2.03418940129614
 20
-1.912913199808536
 10
2.03418940129614
 20
-1.912913199808536
 10
2.03418940129614
 20
-1.639866576495908
 10
2.516160533959742
 20
-1.639866576495908
 10
2.516160533959742
 20
-1.639866576495908
 10
2.516160533959742
 20
-1.483747185550341
 10
2.516160533959742
 20
-1.483747185550341
 10
2.516160533959742
 20
-1.483747185550341
 10
1.916277634716127
 20
-1.483747185550341
 10
1.916277634716127
 20
-1.483747185550341
 10
1.916277634716127
 20
-1.483747185550341
 10
1.916277634716127
 20
-1.912913199808536
 10
1.916277634716127
 20
-1.912913199808536
 10
1.916277634716127
 20
-1.912913199808536
 10
2.03418940129614
 20
-1.912913199808536
 10
2.03418940129614
 20
-1.912913199808536
 97
        0
 97
        0
 75
     2
 76
     1
 98
        0
  0
POLYLINE
  5
95
330
41
100
AcDbEntity
  8
Layer 1
370
     0
100
AcDb2dPolyline
 66
     1
 10
0.0
 20
0.0
 30
0.0
  0
VERTEX
  5
96
330
95
100
AcDbEntity
  8
Layer 1
370
     0
100
AcDbVertex
100
AcDb2dVertex
 10
2.952133374955262
 20
-1.593887331050774
 30
0.0
  0
VERTEX
  5
97
330
95
100
AcDbEntity
  8
Layer 1
370
     0
100
AcDbVertex
100
AcDb2dVertex
 10
3.070045141535275
 20
-1.593887331055688
 30
0.0
  0
VERTEX
  5
98
330
95
100
AcDbEntity
  8
Layer 1
370
     0
100
AcDbVertex
100
AcDb2dVertex
 10
3.07004514151183
 20
-2.078674917124759
 30
0.0
  0
VERTEX
  5
99
330
95
100
AcDbEntity
  8
Layer 1
370
     0
100
AcDbVertex
100
AcDb2dVertex
 10
2.952133374931817
 20
-2.07867491711982
 30
0.0
  0
VERTEX
  5
9A
330
95
100
AcDbEntity
  8
Layer 1
370
     0
100
AcDbVertex
100
AcDb2dVertex
 10
2.952133374955262
 20
-1.593887331050774
 30
0.0
  0
SEQEND
  5
9C
330
95
100
AcDbEntity
  8
Layer 1
370
     0
  0
HATCH
  5
9B
330
41
100
AcDbEntity
  8
Layer 1
 62
     7
100
AcDbHatch
 10
0.0
 20
0.0
 30
0.0
210
0.0
220
0.0
230
1.0
  2
SOLID
 70
     1
 71
     0
 91
        1
 92
        1
 93
        4
 72
     1
 10
2.952133374955262
 20
-1.593887331050774
 11
3.070045141535275
 21
-1.593887331055688
 72
     1
 10
3.070045141535275
 20
-1.593887331055688
 11
3.07004514151183
 21
-2.078674917124759
 72
     1
 10
3.07004514151183
 20
-2.078674917124759
 11
2.952133374931817
 21
-2.07867491711982
 72
     1
 10
2.952133374931817
 20
-2.07867491711982
 11
2.952133374955262
 21
-1.593887331050774
 97
        0
 75
     2
 76
     1
 98
        0
  0
SPLINE
  5
9D
330
41
100
AcDbEntity
  8
Layer 1
370
     0
100
AcDbSpline
210
0.0
220
0.0
230
1.0
 70
    11
 71
     3
 72
    20
 73
    16
 74
     0
 42
0.0000000001
 43
0.0000000001
 12
1.0
 22
0.0
 32
0.0
 13
1.0
 23
0.0
 33
0.0
 40
0.0
 40
0.0
 40
0.0
 40
0.0
 40
1.0
 40
1.0
 40
1.0
 40
2.0
 40
2.0
 40
2.0
 40
3.0
 40
3.0
 40
3.0
 40
4.0
 40
4.0
 40
4.0
 40
5.0
 40
5.0
 40
5.0
 40
5.0
 10
2.952133374935
 20
-1.912913199816406
 30
0.0
 10
2.952133374931489
 20
-1.974218864016241
 30
0.0
 10
2.952133418046161
 20
-1.639866576503752
 30
0.0
 10
2.470162242287339
 20
-1.639866576482985
 30
0.0
 10
2.470162242287339
 20
-1.639866576482985
 30
0.0
 10
2.470162242291483
 20
-1.483747185537406
 30
0.0
 10
2.470162242291483
 20
-1.483747185537406
 30
0.0
 10
2.470162242291483
 20
-1.483747185537406
 30
0.0
 10
3.070045141535199
 20
-1.499073600699729
 30
0.0
 10
3.070045141535199
 20
-1.499073600699729
 30
0.0
 10
3.070045141535199
 20
-1.499073600699729
 30
0.0
 10
3.070045141515114
 20
-1.912913199821471
 30
0.0
 10
3.070045141515114
 20
-1.912913199821471
 30
0.0
 10
3.070045141515114
 20
-1.912913199821471
 30
0.0
 10
2.952133374935
 20
-1.912913199816406
 30
0.0
 10
2.952133374935
 20
-1.912913199816406
 30
0.0
  0
HATCH
  5
9E
330
41
100
AcDbEntity
  8
Layer 1
 62
     7
100
AcDbHatch
 10
0.0
 20
0.0
 30
0.0
210
0.0
220
0.0
230
1.0
  2
SOLID
 70
     1
 71
     0
 91
        1
 92
        1
 93
        1
 72
     4
 94
        3
 73
     0
 74
     1
 95
       20
 96
       16
 40
0.0
 40
0.0
 40
0.0
 40
0.0
 40
1.0
 40
1.0
 40
1.0
 40
2.0
 40
2.0
 40
2.0
 40
3.0
 40
3.0
 40
3.0
 40
4.0
 40
4.0
 40
4.0
 40
5.0
 40
5.0
 40
5.0
 40
5.0
 10
2.952133374935
 20
-1.912913199816406
 10
2.952133374931489
 20
-1.974218864016241
 10
2.952133418046161
 20
-1.639866576503752
 10
2.470162242287339
 20
-1.639866576482985
 10
2.470162242287339
 20
-1.639866576482985
 10
2.470162242291483
 20
-1.483747185537406
 10
2.470162242291483
 20
-1.483747185537406
 10
2.470162242291483
 20
-1.483747185537406
 10
3.070045141535199
 20
-1.499073600699729
 10
3.070045141535199
 20
-1.499073600699729
 10
3.070045141535199
 20
-1.499073600699729
 10
3.070045141515114
 20
-1.912913199821471
 10
3.070045141515114
 20
-1.912913199821471
 10
3.070045141515114
 20
-1.912913199821471
 10
2.952133374935
 20
-1.912913199816406
 10
2.952133374935
 20
-1.912913199816406
 97
        0
 97
        0
 75
     2
 76
     1
 98
        0
  0
INSERT
  5
A0
330
41
100
AcDbEntity
  8
Layer 1
100
AcDbBlockReference
  2
block 6
 10
0.0
 20
0.0
 30
0.0
  0
INSERT
  5
A7
330
41
100
AcDbEntity
  8
Layer 1
100
AcDbBlockReference
  2
block 7
 10
0.0
 20
0.0
 30
0.0
  0
INSERT
  5
AE
330
41
100
AcDbEntity
  8
Layer 1
100
AcDbBlockReference
  2
block 8
 10
0.0
 20
0.0
 30
0.0
  0
SPLINE
  5
B4
330
41
100
AcDbEntity
  8
Layer 1
370
     0
100
AcDbSpline
210
0.0
220
0.0
230
1.0
 70
    11
 71
     3
 72
    29
 73
    25
 74
     0
 42
0.0000000001
 43
0.0000000001
 12
1.0
 22
0.0
 32
0.0
 13
1.0
 23
0.0
 33
0.0
 40
0.0
 40
0.0
 40
0.0
 40
0.0
 40
1.0
 40
1.0
 40
1.0
 40
2.0
 40
2.0
 40
2.0
 40
3.0
 40
3.0
 40
3.0
 40
4.0
 40
4.0
 40
4.0
 40
5.0
 40
5.0
 40
5.0
 40
6.0
 40
6.0
 40
6.0
 40
7.0
 40
7.0
 40
7.0
 40
8.0
 40
8.0
 40
8.0
 40
8.0
 10
2.958188977835384
 20
-2.086774500661527
 30
0.0
 10
2.958188977835384
 20
-2.086774500661527
 30
0.0
 10
3.09446317009747
 20
-2.086774500604848
 30
0.0
 10
3.09446317009747
 20
-2.086774500604848
 30
0.0
 10
3.107168492512427
 20
-2.086774500599568
 30
0.0
 10
3.117563756322447
 20
-2.076379236801194
 30
0.0
 10
3.117563756341976
 20
-2.063673914386224
 30
0.0
 10
3.117563756341976
 20
-2.063673914386224
 30
0.0
 10
3.117563756361556
 20
-2.050935509181739
 30
0.0
 10
3.117563756361556
 20
-2.050935509181739
 30
0.0
 10
3.117563756381085
 20
-2.038230186680847
 30
0.0
 10
3.107168492532689
 20
-2.027834922821689
 30
0.0
 10
3.094463170031784
 20
-2.027834922828055
 30
0.0
 10
3.094463170031784
 20
-2.027834922828055
 30
0.0
 10
2.958188977526081
 20
-2.02783492289633
 30
0.0
 10
2.958188977526081
 20
-2.02783492289633
 30
0.0
 10
2.945483655133911
 20
-2.027834922902697
 30
0.0
 10
2.935088391365298
 20
-2.038230186683311
 30
0.0
 10
2.935088391373609
 20
-2.05093550907548
 30
0.0
 10
2.935088391373609
 20
-2.05093550907548
 30
0.0
 10
2.935088391381921
 20
-2.063673914232772
 30
0.0
 10
2.935088391381921
 20
-2.063673914232772
 30
0.0
 10
2.935088391390233
 20
-2.076379236773871
 30
0.0
 10
2.945483655294285
 20
-2.086774500666807
 30
0.0
 10
2.958188977835384
 20
-2.086774500661527
 30
0.0
  0
HATCH
  5
B5
330
41
100
AcDbEntity
  8
Layer 1
 62
     2
100
AcDbHatch
 10
0.0
 20
0.0
 30
0.0
210
0.0
220
0.0
230
1.0
  2
SOLID
 70
     1
 71
     0
 91
        1
 92
        1
 93
        1
 72
     4
 94
        3
 73
     0
 74
     1
 95
       29
 96
       25
 40
0.0
 40
0.0
 40
0.0
 40
0.0
 40
1.0
 40
1.0
 40
1.0
 40
2.0
 40
2.0
 40
2.0
 40
3.0
 40
3.0
 40
3.0
 40
4.0
 40
4.0
 40
4.0
 40
5.0
 40
5.0
 40
5.0
 40
6.0
 40
6.0
 40
6.0
 40
7.0
 40
7.0
 40
7.0
 40
8.0
 40
8.0
 40
8.0
 40
8.0
 10
2.958188977835384
 20
-2.086774500661527
 10
2.958188977835384
 20
-2.086774500661527
 10
3.09446317009747
 20
-2.086774500604848
 10
3.09446317009747
 20
-2.086774500604848
 10
3.107168492512427
 20
-2.086774500599568
 10
3.117563756322447
 20
-2.076379236801194
 10
3.117563756341976
 20
-2.063673914386224
 10
3.117563756341976
 20
-2.063673914386224
 10
3.117563756361556
 20
-2.050935509181739
 10
3.117563756361556
 20
-2.050935509181739
 10
3.117563756381085
 20
-2.038230186680847
 10
3.107168492532689
 20
-2.027834922821689
 10
3.094463170031784
 20
-2.027834922828055
 10
3.094463170031784
 20
-2.027834922828055
 10
2.958188977526081
 20
-2.02783492289633
 10
2.958188977526081
 20
-2.02783492289633
 10
2.945483655133911
 20
-2.027834922902697
 10
2.935088391365298
 20
-2.038230186683311
 10
2.935088391373609
 20
-2.05093550907548
 10
2.935088391373609
 20
-2.05093550907548
 10
2.935088391381921
 20
-2.063673914232772
 10
2.935088391381921
 20
-2.063673914232772
 10
2.935088391390233
 20
-2.076379236773871
 10
2.945483655294285
 20
-2.086774500666807
 10
2.958188977835384
 20
-2.086774500661527
 97
        0
 97
        0
 75
     2
 76
     1
 98
        0
  0
INSERT
  5
B7
330
41
100
AcDbEntity
  8
Layer 1
100
AcDbBlockReference
  2
block 9
 10
0.0
 20
0.0
 30
0.0
  0
POLYLINE
  5
BD
330
41
100
AcDbEntity
  8
Layer 1
370
     0
100
AcDb2dPolyline
 66
     1
 10
0.0
 20
0.0
 30
0.0
  0
VERTEX
  5
BE
330
BD
100
AcDbEntity
  8
Layer 1
370
     0
100
AcDbVertex
100
AcDb2dVertex
 10
2.569364217307919
 20
-2.086338124734261
 30
0.0
  0
VERTEX
  5
BF
330
BD
100
AcDbEntity
  8
Layer 1
370
     0
100
AcDbVertex
100
AcDb2dVertex
 10
2.421860592376005
 20
-2.086338124734261
 30
0.0
  0
VERTEX
  5
C0
330
BD
100
AcDbEntity
  8
Layer 1
370
     0
100
AcDbVertex
100
AcDb2dVertex
 10
2.421860592376005
 20
-2.027834922894133
 30
0.0
  0
VERTEX
  5
C1
330
BD
100
AcDbEntity
  8
Layer 1
370
     0
100
AcDbVertex
100
AcDb2dVertex
 10
2.569364217307919
 20
-2.027834922894133
 30
0.0
  0
VERTEX
  5
C2
330
BD
100
AcDbEntity
  8
Layer 1
370
     0
100
AcDbVertex
100
AcDb2dVertex
 10
2.569364217307919
 20
-2.086338124734261
 30
0.0
  0
SEQEND
  5
C4
330
BD
100
AcDbEntity
  8
Layer 1
370
     0
  0
HATCH
  5
C3
330
41
100
AcDbEntity
  8
Layer 1
 62
     2
100
AcDbHatch
 10
0.0
 20
0.0
 30
0.0
210
0.0
220
0.0
230
1.0
  2
SOLID
 70
     1
 71
     0
 91
        1
 92
        1
 93
        4
 72
     1
 10
2.569364217307919
 20
-2.086338124734261
 11
2.421860592376005
 21
-2.086338124734261
 72
     1
 10
2.421860592376005
 20
-2.086338124734261
 11
2.421860592376005
 21
-2.027834922894133
 72
     1
 10
2.421860592376005
 20
-2.027834922894133
 11
2.569364217307919
 21
-2.027834922894133
 72
     1
 10
2.569364217307919
 20
-2.027834922894133
 11
2.569364217307919
 21
-2.086338124734261
 97
        0
 75
     2
 76
     1
 98
        0
  0
POLYLINE
  5
C5
330
41
100
AcDbEntity
  8
Layer 1
370
     0
100
AcDb2dPolyline
 66
     1
 10
0.0
 20
0.0
 30
0.0
  0
VERTEX
  5
C6
330
C5
100
AcDbEntity
  8
Layer 1
370
     0
100
AcDbVertex
100
AcDb2dVertex
 10
2.03418940129614
 20
-1.953665806536694
 30
0.0
  0
VERTEX
  5
136
330
C5
100
AcDbEntity
  8
0
100
AcDbVertex
100
AcDb2dVertex
 10
2.03418940129614
 20
-1.953665806536694
 30
0.0
  0
SEQEND
  5
C7
330
C5
100
AcDbEntity
  8
Layer 1
370
     0
  0
SPLINE
  5
C8
330
41
100
AcDbEntity
  8
Layer 1
370
     0
100
AcDbSpline
210
0.0
220
0.0
230
1.0
 70
    11
 71
     3
 72
    23
 73
    19
 74
     0
 42
0.0000000001
 43
0.0000000001
 12
1.0
 22
0.0
 32
0.0
 13
1.0
 23
0.0
 33
0.0
 40
0.0
 40
0.0
 40
0.0
 40
0.0
 40
1.0
 40
1.0
 40
1.0
 40
2.0
 40
2.0
 40
2.0
 40
3.0
 40
3.0
 40
3.0
 40
4.0
 40
4.0
 40
4.0
 40
5.0
 40
5.0
 40
5.0
 40
6.0
 40
6.0
 40
6.0
 40
6.0
 10
2.03418940129614
 20
-1.991981844377821
 30
0.0
 10
2.03418940129614
 20
-1.991981844377821
 30
0.0
 10
2.069603194646687
 20
-1.926936023245856
 30
0.0
 10
2.233104399899124
 20
-1.926936023245856
 30
0.0
 10
2.396605605151611
 20
-1.926936023245856
 30
0.0
 10
2.64609423625633
 20
-1.926936023245856
 30
0.0
 10
2.64609423625633
 20
-1.926936023245856
 30
0.0
 10
2.64609423625633
 20
-1.926936023245856
 30
0.0
 10
2.744963880007945
 20
-1.924062320407769
 30
0.0
 10
2.808546348837732
 20
-1.966406546274268
 30
0.0
 10
2.808546348837732
 20
-1.966406546274268
 30
0.0
 10
2.81652021492899
 20
-1.780908118074333
 30
0.0
 10
2.81652021492899
 20
-1.780908118074333
 30
0.0
 10
2.81652021492899
 20
-1.780908118074333
 30
0.0
 10
2.043762030619241
 20
-1.780908118074333
 30
0.0
 10
2.043762030619241
 20
-1.780908118074333
 30
0.0
 10
2.043762030619241
 20
-1.780908118074333
 30
0.0
 10
2.022830632129979
 20
-1.914004360474488
 30
0.0
 10
2.03418940129614
 20
-1.991981844377821
 30
0.0
  0
HATCH
  5
C9
330
41
100
AcDbEntity
  8
Layer 1
 62
     1
100
AcDbHatch
 10
0.0
 20
0.0
 30
0.0
210
0.0
220
0.0
230
1.0
  2
SOLID
 70
     1
 71
     0
 91
        1
 92
        1
 93
        1
 72
     4
 94
        3
 73
     0
 74
     1
 95
       23
 96
       19
 40
0.0
 40
0.0
 40
0.0
 40
0.0
 40
1.0
 40
1.0
 40
1.0
 40
2.0
 40
2.0
 40
2.0
 40
3.0
 40
3.0
 40
3.0
 40
4.0
 40
4.0
 40
4.0
 40
5.0
 40
5.0
 40
5.0
 40
6.0
 40
6.0
 40
6.0
 40
6.0
 10
2.03418940129614
 20
-1.991981844377821
 10
2.03418940129614
 20
-1.991981844377821
 10
2.069603194646687
 20
-1.926936023245856
 10
2.233104399899124
 20
-1.926936023245856
 10
2.396605605151611
 20
-1.926936023245856
 10
2.64609423625633
 20
-1.926936023245856
 10
2.64609423625633
 20
-1.926936023245856
 10
2.64609423625633
 20
-1.926936023245856
 10
2.744963880007945
 20
-1.924062320407769
 10
2.808546348837732
 20
-1.966406546274268
 10
2.808546348837732
 20
-1.966406546274268
 10
2.81652021492899
 20
-1.780908118074333
 10
2.81652021492899
 20
-1.780908118074333
 10
2.81652021492899
 20
-1.780908118074333
 10
2.043762030619241
 20
-1.780908118074333
 10
2.043762030619241
 20
-1.780908118074333
 10
2.043762030619241
 20
-1.780908118074333
 10
2.022830632129979
 20
-1.914004360474488
 10
2.03418940129614
 20
-1.991981844377821
 97
        0
 97
        0
 75
     2
 76
     1
 98
        0
  0
SPLINE
  5
CA
330
41
100
AcDbEntity
  8
Layer 1
370
     0
100
AcDbSpline
210
0.0
220
0.0
230
1.0
 70
    11
 71
     3
 72
    20
 73
    16
 74
     0
 42
0.0000000001
 43
0.0000000001
 12
1.0
 22
0.0
 32
0.0
 13
1.0
 23
0.0
 33
0.0
 40
0.0
 40
0.0
 40
0.0
 40
0.0
 40
1.0
 40
1.0
 40
1.0
 40
2.0
 40
2.0
 40
2.0
 40
3.0
 40
3.0
 40
3.0
 40
4.0
 40
4.0
 40
4.0
 40
5.0
 40
5.0
 40
5.0
 40
5.0
 10
1.839271130392869
 20
-1.911185336096183
 30
0.0
 10
1.839271130392869
 20
-1.911185336096183
 30
0.0
 10
1.856688760972095
 20
-1.620755544974738
 30
0.0
 10
1.878901097031656
 20
-1.52650153604423
 30
0.0
 10
1.89843944198598
 20
-1.443594122124119
 30
0.0
 10
1.943534565913094
 20
-1.354612557300432
 30
0.0
 10
2.175108332145151
 20
-1.340533387158303
 30
0.0
 10
2.175108332145151
 20
-1.340533387158303
 30
0.0
 10
2.557220409278797
 20
-1.285072934363484
 30
0.0
 10
2.732529410868362
 20
-1.282649223778599
 30
0.0
 10
2.879882665710915
 20
-1.280612011540572
 30
0.0
 10
3.119065911238143
 20
-1.3060538347803
 30
0.0
 10
3.120436016599165
 20
-1.813056396008607
 30
0.0
 10
3.120436016599165
 20
-1.813056396008607
 30
0.0
 10
1.839271130392869
 20
-1.911185336096183
 30
0.0
 10
1.839271130392869
 20
-1.911185336096183
 30
0.0
  0
HATCH
  5
CB
330
41
100
AcDbEntity
  8
Layer 1
 62
     2
100
AcDbHatch
 10
0.0
 20
0.0
 30
0.0
210
0.0
220
0.0
230
1.0
  2
SOLID
 70
     1
 71
     0
 91
        1
 92
        1
 93
        1
 72
     4
 94
        3
 73
     0
 74
     1
 95
       20
 96
       16
 40
0.0
 40
0.0
 40
0.0
 40
0.0
 40
1.0
 40
1.0
 40
1.0
 40
2.0
 40
2.0
 40
2.0
 40
3.0
 40
3.0
 40
3.0
 40
4.0
 40
4.0
 40
4.0
 40
5.0
 40
5.0
 40
5.0
 40
5.0
 10
1.839271130392869
 20
-1.911185336096183
 10
1.839271130392869
 20
-1.911185336096183
 10
1.856688760972095
 20
-1.620755544974738
 10
1.878901097031656
 20
-1.52650153604423
 10
1.89843944198598
 20
-1.443594122124119
 10
1.943534565913094
 20
-1.354612557300432
 10
2.175108332145151
 20
-1.340533387158303
 10
2.175108332145151
 20
-1.340533387158303
 10
2.557220409278797
 20
-1.285072934363484
 10
2.732529410868362
 20
-1.282649223778599
 10
2.879882665710915
 20
-1.280612011540572
 10
3.119065911238143
 20
-1.3060538347803
 10
3.120436016599165
 20
-1.813056396008607
 10
3.120436016599165
 20
-1.813056396008607
 10
1.839271130392869
 20
-1.911185336096183
 10
1.839271130392869
 20
-1.911185336096183
 97
        0
 97
        0
 75
     2
 76
     1
 98
        0
  0
SPLINE
  5
CC
330
41
100
AcDbEntity
  8
Layer 1
370
     0
100
AcDbSpline
210
0.0
220
0.0
230
1.0
 70
    11
 71
     3
 72
    29
 73
    25
 74
     0
 42
0.0000000001
 43
0.0000000001
 12
1.0
 22
0.0
 32
0.0
 13
1.0
 23
0.0
 33
0.0
 40
0.0
 40
0.0
 40
0.0
 40
0.0
 40
1.0
 40
1.0
 40
1.0
 40
2.0
 40
2.0
 40
2.0
 40
3.0
 40
3.0
 40
3.0
 40
4.0
 40
4.0
 40
4.0
 40
5.0
 40
5.0
 40
5.0
 40
6.0
 40
6.0
 40
6.0
 40
7.0
 40
7.0
 40
7.0
 40
8.0
 40
8.0
 40
8.0
 40
8.0
 10
2.159268304254334
 20
-1.99124185950921
 30
0.0
 10
2.159268304254334
 20
-1.99124185950921
 30
0.0
 10
2.329135607092237
 20
-1.991241859603987
 30
0.0
 10
2.329135607092237
 20
-1.991241859603987
 30
0.0
 10
2.340161896104392
 20
-1.991241859610138
 30
0.0
 10
2.349183405314963
 20
-1.982220350423404
 30
0.0
 10
2.349183405337979
 20
-1.971194061411249
 30
0.0
 10
2.349183405337979
 20
-1.971194061411249
 30
0.0
 10
2.34918340536107
 20
-1.960139061488866
 30
0.0
 10
2.34918340536107
 20
-1.960139061488866
 30
0.0
 10
2.349183405384085
 20
-1.949112772448984
 30
0.0
 10
2.34016189618847
 20
-1.940091263238426
 30
0.0
 10
2.329135607148575
 20
-1.940091263243175
 30
0.0
 10
2.329135607148575
 20
-1.940091263243175
 30
0.0
 10
2.159268304251277
 20
-1.940091263316377
 30
0.0
 10
2.159268304251277
 20
-1.940091263316377
 30
0.0
 10
2.148242015250263
 20
-1.940091263321127
 30
0.0
 10
2.139220506061166
 20
-1.949112772507647
 30
0.0
 10
2.139220506053284
 20
-1.960139061508648
 30
0.0
 10
2.139220506053284
 20
-1.960139061508648
 30
0.0
 10
2.139220506045376
 20
-1.971194061274723
 30
0.0
 10
2.139220506045376
 20
-1.971194061274723
 30
0.0
 10
2.139220506037469
 20
-1.98222035029754
 30
0.0
 10
2.148242015231517
 20
-1.991241859503058
 30
0.0
 10
2.159268304254334
 20
-1.99124185950921
 30
0.0
  0
HATCH
  5
CD
330
41
100
AcDbEntity
  8
Layer 1
 62
     7
100
AcDbHatch
 10
0.0
 20
0.0
 30
0.0
210
0.0
220
0.0
230
1.0
  2
SOLID
 70
     1
 71
     0
 91
        1
 92
        1
 93
        1
 72
     4
 94
        3
 73
     0
 74
     1
 95
       29
 96
       25
 40
0.0
 40
0.0
 40
0.0
 40
0.0
 40
1.0
 40
1.0
 40
1.0
 40
2.0
 40
2.0
 40
2.0
 40
3.0
 40
3.0
 40
3.0
 40
4.0
 40
4.0
 40
4.0
 40
5.0
 40
5.0
 40
5.0
 40
6.0
 40
6.0
 40
6.0
 40
7.0
 40
7.0
 40
7.0
 40
8.0
 40
8.0
 40
8.0
 40
8.0
 10
2.159268304254334
 20
-1.99124185950921
 10
2.159268304254334
 20
-1.99124185950921
 10
2.329135607092237
 20
-1.991241859603987
 10
2.329135607092237
 20
-1.991241859603987
 10
2.340161896104392
 20
-1.991241859610138
 10
2.349183405314963
 20
-1.982220350423404
 10
2.349183405337979
 20
-1.971194061411249
 10
2.349183405337979
 20
-1.971194061411249
 10
2.34918340536107
 20
-1.960139061488866
 10
2.34918340536107
 20
-1.960139061488866
 10
2.349183405384085
 20
-1.949112772448984
 10
2.34016189618847
 20
-1.940091263238426
 10
2.329135607148575
 20
-1.940091263243175
 10
2.329135607148575
 20
-1.940091263243175
 10
2.159268304251277
 20
-1.940091263316377
 10
2.159268304251277
 20
-1.940091263316377
 10
2.148242015250263
 20
-1.940091263321127
 10
2.139220506061166
 20
-1.949112772507647
 10
2.139220506053284
 20
-1.960139061508648
 10
2.139220506053284
 20
-1.960139061508648
 10
2.139220506045376
 20
-1.971194061274723
 10
2.139220506045376
 20
-1.971194061274723
 10
2.139220506037469
 20
-1.98222035029754
 10
2.148242015231517
 20
-1.991241859503058
 10
2.159268304254334
 20
-1.99124185950921
 97
        0
 97
        0
 75
     2
 76
     1
 98
        0
  0
SPLINE
  5
CE
330
41
100
AcDbEntity
  8
Layer 1
370
     0
100
AcDbSpline
210
0.0
220
0.0
230
1.0
 70
    11
 71
     3
 72
    29
 73
    25
 74
     0
 42
0.0000000001
 43
0.0000000001
 12
1.0
 22
0.0
 32
0.0
 13
1.0
 23
0.0
 33
0.0
 40
0.0
 40
0.0
 40
0.0
 40
0.0
 40
1.0
 40
1.0
 40
1.0
 40
2.0
 40
2.0
 40
2.0
 40
3.0
 40
3.0
 40
3.0
 40
4.0
 40
4.0
 40
4.0
 40
5.0
 40
5.0
 40
5.0
 40
6.0
 40
6.0
 40
6.0
 40
7.0
 40
7.0
 40
7.0
 40
8.0
 40
8.0
 40
8.0
 40
8.0
 10
2.652319024221672
 20
-1.991241859532225
 30
0.0
 10
2.652319024221672
 20
-1.991241859532225
 30
0.0
 10
2.822186327162929
 20
-1.991241859431701
 30
0.0
 10
2.822186327162929
 20
-1.991241859431701
 30
0.0
 10
2.833212616145728
 20
-1.991241859425183
 30
0.0
 10
2.842234125346143
 20
-1.982220350252103
 30
0.0
 10
2.84223412538606
 20
-1.97119406126933
 30
0.0
 10
2.84223412538606
 20
-1.97119406126933
 30
0.0
 10
2.842234125426128
 20
-1.960139061547466
 30
0.0
 10
2.842234125426128
 20
-1.960139061547466
 30
0.0
 10
2.842234125466045
 20
-1.949112772579825
 30
0.0
 10
2.833212616343391
 20
-1.940091263420211
 30
0.0
 10
2.822186327375751
 20
-1.940091263414981
 30
0.0
 10
2.822186327375751
 20
-1.940091263414981
 30
0.0
 10
2.652319024175338
 20
-1.940091263334504
 30
0.0
 10
2.652319024175338
 20
-1.940091263334504
 30
0.0
 10
2.641292735153582
 20
-1.940091263329274
 30
0.0
 10
2.632271225961378
 20
-1.949112772524611
 30
0.0
 10
2.632271225970397
 20
-1.960139061546354
 30
0.0
 10
2.632271225970397
 20
-1.960139061546354
 30
0.0
 10
2.632271225979467
 20
-1.971194061318291
 30
0.0
 10
2.632271225979467
 20
-1.971194061318291
 30
0.0
 10
2.632271225988486
 20
-1.982220350342484
 30
0.0
 10
2.641292735197491
 20
-1.991241859538743
 30
0.0
 10
2.652319024221672
 20
-1.991241859532225
 30
0.0
  0
HATCH
  5
CF
330
41
100
AcDbEntity
  8
Layer 1
 62
     7
100
AcDbHatch
 10
0.0
 20
0.0
 30
0.0
210
0.0
220
0.0
230
1.0
  2
SOLID
 70
     1
 71
     0
 91
        1
 92
        1
 93
        1
 72
     4
 94
        3
 73
     0
 74
     1
 95
       29
 96
       25
 40
0.0
 40
0.0
 40
0.0
 40
0.0
 40
1.0
 40
1.0
 40
1.0
 40
2.0
 40
2.0
 40
2.0
 40
3.0
 40
3.0
 40
3.0
 40
4.0
 40
4.0
 40
4.0
 40
5.0
 40
5.0
 40
5.0
 40
6.0
 40
6.0
 40
6.0
 40
7.0
 40
7.0
 40
7.0
 40
8.0
 40
8.0
 40
8.0
 40
8.0
 10
2.652319024221672
 20
-1.991241859532225
 10
2.652319024221672
 20
-1.991241859532225
 10
2.822186327162929
 20
-1.991241859431701
 10
2.822186327162929
 20
-1.991241859431701
 10
2.833212616145728
 20
-1.991241859425183
 10
2.842234125346143
 20
-1.982220350252103
 10
2.84223412538606
 20
-1.97119406126933
 10
2.84223412538606
 20
-1.97119406126933
 10
2.842234125426128
 20
-1.960139061547466
 10
2.842234125426128
 20
-1.960139061547466
 10
2.842234125466045
 20
-1.949112772579825
 10
2.833212616343391
 20
-1.940091263420211
 10
2.822186327375751
 20
-1.940091263414981
 10
2.822186327375751
 20
-1.940091263414981
 10
2.652319024175338
 20
-1.940091263334504
 10
2.652319024175338
 20
-1.940091263334504
 10
2.641292735153582
 20
-1.940091263329274
 10
2.632271225961378
 20
-1.949112772524611
 10
2.632271225970397
 20
-1.960139061546354
 10
2.632271225970397
 20
-1.960139061546354
 10
2.632271225979467
 20
-1.971194061318291
 10
2.632271225979467
 20
-1.971194061318291
 10
2.632271225988486
 20
-1.982220350342484
 10
2.641292735197491
 20
-1.991241859538743
 10
2.652319024221672
 20
-1.991241859532225
 97
        0
 97
        0
 75
     2
 76
     1
 98
        0
  0
INSERT
  5
D1
330
41
100
AcDbEntity
  8
Layer 1
100
AcDbBlockReference
  2
block 10
 10
0.0
 20
0.0
 30
0.0
  0
POLYLINE
  5
D8
330
41
100
AcDbEntity
  8
Layer 1
370
     0
100
AcDb2dPolyline
 66
     1
 10
0.0
 20
0.0
 30
0.0
  0
VERTEX
  5
D9
330
D8
100
AcDbEntity
  8
Layer 1
370
     0
100
AcDbVertex
100
AcDb2dVertex
 10
2.594749598305422
 20
-3.210842591238462
 30
0.0
  0
VERTEX
  5
DA
330
D8
100
AcDbEntity
  8
Layer 1
370
     0
100
AcDbVertex
100
AcDb2dVertex
 10
2.495968554166514
 20
-3.330296943862852
 30
0.0
  0
VERTEX
  5
DB
330
D8
100
AcDbEntity
  8
Layer 1
370
     0
100
AcDbVertex
100
AcDb2dVertex
 10
2.397187510027556
 20
-3.210842591238462
 30
0.0
  0
VERTEX
  5
DC
330
D8
100
AcDbEntity
  8
Layer 1
370
     0
100
AcDbVertex
100
AcDb2dVertex
 10
2.495968554166514
 20
-3.140431792782818
 30
0.0
  0
VERTEX
  5
DD
330
D8
100
AcDbEntity
  8
Layer 1
370
     0
100
AcDbVertex
100
AcDb2dVertex
 10
2.594749598305422
 20
-3.210842591238462
 30
0.0
  0
SEQEND
  5
DF
330
D8
100
AcDbEntity
  8
Layer 1
370
     0
  0
HATCH
  5
DE
330
41
100
AcDbEntity
  8
Layer 1
 62
     1
100
AcDbHatch
 10
0.0
 20
0.0
 30
0.0
210
0.0
220
0.0
230
1.0
  2
SOLID
 70
     1
 71
     0
 91
        1
 92
        1
 93
        4
 72
     1
 10
2.594749598305422
 20
-3.210842591238462
 11
2.495968554166514
 21
-3.330296943862852
 72
     1
 10
2.495968554166514
 20
-3.330296943862852
 11
2.397187510027556
 21
-3.210842591238462
 72
     1
 10
2.397187510027556
 20
-3.210842591238462
 11
2.495968554166514
 21
-3.140431792782818
 72
     1
 10
2.495968554166514
 20
-3.140431792782818
 11
2.594749598305422
 21
-3.210842591238462
 97
        0
 75
     2
 76
     1
 98
        0
  0
INSERT
  5
E1
330
41
100
AcDbEntity
  8
Layer 1
100
AcDbBlockReference
  2
block 11
 10
0.0
 20
0.0
 30
0.0
  0
INSERT
  5
E7
330
41
100
AcDbEntity
  8
Layer 1
100
AcDbBlockReference
  2
block 12
 10
0.0
 20
0.0
 30
0.0
  0
POLYLINE
  5
EC
330
41
100
AcDbEntity
  8
Layer 1
370
     0
100
AcDb2dPolyline
 66
     1
 10
0.0
 20
0.0
 30
0.0
  0
VERTEX
  5
ED
330
EC
100
AcDbEntity
  8
Layer 1
370
     0
100
AcDbVertex
100
AcDb2dVertex
 10
2.581416828025441
 20
-3.226965699233283
 30
0.0
  0
VERTEX
  5
EE
330
EC
100
AcDbEntity
  8
Layer 1
370
     0
100
AcDbVertex
100
AcDb2dVertex
 10
2.777461439588428
 20
-2.968823095952505
 30
0.0
  0
VERTEX
  5
EF
330
EC
100
AcDbEntity
  8
Layer 1
370
     0
100
AcDbVertex
100
AcDb2dVertex
 10
2.853109438868917
 20
-3.039739274383186
 30
0.0
  0
VERTEX
  5
F0
330
EC
100
AcDbEntity
  8
Layer 1
370
     0
100
AcDbVertex
100
AcDb2dVertex
 10
2.755645219811741
 20
-3.403061381074697
 30
0.0
  0
VERTEX
  5
F1
330
EC
100
AcDbEntity
  8
Layer 1
370
     0
100
AcDbVertex
100
AcDb2dVertex
 10
2.581416828025441
 20
-3.226965699233283
 30
0.0
  0
SEQEND
  5
F3
330
EC
100
AcDbEntity
  8
Layer 1
370
     0
  0
HATCH
  5
F2
330
41
100
AcDbEntity
  8
Layer 1
 62
     7
100
AcDbHatch
 10
0.0
 20
0.0
 30
0.0
210
0.0
220
0.0
230
1.0
  2
SOLID
 70
     1
 71
     0
 91
        1
 92
        1
 93
        4
 72
     1
 10
2.581416828025441
 20
-3.226965699233283
 11
2.777461439588428
 21
-2.968823095952505
 72
     1
 10
2.777461439588428
 20
-2.968823095952505
 11
2.853109438868917
 21
-3.039739274383186
 72
     1
 10
2.853109438868917
 20
-3.039739274383186
 11
2.755645219811741
 21
-3.403061381074697
 72
     1
 10
2.755645219811741
 20
-3.403061381074697
 11
2.581416828025441
 21
-3.226965699233283
 97
        0
 75
     2
 76
     1
 98
        0
  0
POLYLINE
  5
F4
330
41
100
AcDbEntity
  8
Layer 1
370
     0
100
AcDb2dPolyline
 66
     1
 10
0.0
 20
0.0
 30
0.0
  0
VERTEX
  5
F5
330
F4
100
AcDbEntity
  8
Layer 1
370
     0
100
AcDbVertex
100
AcDb2dVertex
 10
2.414235500890173
 20
-3.231458456658629
 30
0.0
  0
VERTEX
  5
F6
330
F4
100
AcDbEntity
  8
Layer 1
370
     0
100
AcDbVertex
100
AcDb2dVertex
 10
2.214475624771644
 20
-2.968823095947957
 30
0.0
  0
VERTEX
  5
F7
330
F4
100
AcDbEntity
  8
Layer 1
370
     0
100
AcDbVertex
100
AcDb2dVertex
 10
2.138827625488021
 20
-3.039739274375354
 30
0.0
  0
VERTEX
  5
F8
330
F4
100
AcDbEntity
  8
Layer 1
370
     0
100
AcDbVertex
100
AcDb2dVertex
 10
2.236291844530115
 20
-3.40306138107111
 30
0.0
  0
VERTEX
  5
F9
330
F4
100
AcDbEntity
  8
Layer 1
370
     0
100
AcDbVertex
100
AcDb2dVertex
 10
2.414235500890173
 20
-3.231458456658629
 30
0.0
  0
SEQEND
  5
FB
330
F4
100
AcDbEntity
  8
Layer 1
370
     0
  0
HATCH
  5
FA
330
41
100
AcDbEntity
  8
Layer 1
 62
     7
100
AcDbHatch
 10
0.0
 20
0.0
 30
0.0
210
0.0
220
0.0
230
1.0
  2
SOLID
 70
     1
 71
     0
 91
        1
 92
        1
 93
        4
 72
     1
 10
2.414235500890173
 20
-3.231458456658629
 11
2.214475624771644
 21
-2.968823095947957
 72
     1
 10
2.214475624771644
 20
-2.968823095947957
 11
2.138827625488021
 21
-3.039739274375354
 72
     1
 10
2.138827625488021
 20
-3.039739274375354
 11
2.236291844530115
 21
-3.40306138107111
 72
     1
 10
2.236291844530115
 20
-3.40306138107111
 11
2.414235500890173
 21
-3.231458456658629
 97
        0
 75
     2
 76
     1
 98
        0
  0
POLYLINE
  5
FC
330
41
100
AcDbEntity
  8
Layer 1
370
     0
100
AcDb2dPolyline
 66
     1
 10
0.0
 20
0.0
 30
0.0
  0
VERTEX
  5
FD
330
FC
100
AcDbEntity
  8
Layer 1
370
     0
100
AcDbVertex
100
AcDb2dVertex
 10
2.600957791033074
 20
-3.706780704541895
 30
0.0
  0
VERTEX
  5
FE
330
FC
100
AcDbEntity
  8
Layer 1
370
     0
100
AcDbVertex
100
AcDb2dVertex
 10
2.390979317299929
 20
-3.706780704541895
 30
0.0
  0
VERTEX
  5
FF
330
FC
100
AcDbEntity
  8
Layer 1
370
     0
100
AcDbVertex
100
AcDb2dVertex
 10
2.439171098156875
 20
-3.218586492377906
 30
0.0
  0
VERTEX
  5
100
330
FC
100
AcDbEntity
  8
Layer 1
370
     0
100
AcDbVertex
100
AcDb2dVertex
 10
2.552766010176204
 20
-3.218586492377906
 30
0.0
  0
VERTEX
  5
101
330
FC
100
AcDbEntity
  8
Layer 1
370
     0
100
AcDbVertex
100
AcDb2dVertex
 10
2.600957791033074
 20
-3.706780704541895
 30
0.0
  0
SEQEND
  5
103
330
FC
100
AcDbEntity
  8
Layer 1
370
     0
  0
HATCH
  5
102
330
41
100
AcDbEntity
  8
Layer 1
 62
     1
100
AcDbHatch
 10
0.0
 20
0.0
 30
0.0
210
0.0
220
0.0
230
1.0
  2
SOLID
 70
     1
 71
     0
 91
        1
 92
        1
 93
        4
 72
     1
 10
2.600957791033074
 20
-3.706780704541895
 11
2.390979317299929
 21
-3.706780704541895
 72
     1
 10
2.390979317299929
 20
-3.706780704541895
 11
2.439171098156875
 21
-3.218586492377906
 72
     1
 10
2.439171098156875
 20
-3.218586492377906
 11
2.552766010176204
 21
-3.218586492377906
 72
     1
 10
2.552766010176204
 20
-3.218586492377906
 11
2.600957791033074
 21
-3.706780704541895
 97
        0
 75
     2
 76
     1
 98
        0
  0
POLYLINE
  5
104
330
41
100
AcDbEntity
  8
Layer 1
370
     0
100
AcDb2dPolyline
 66
     1
 10
0.0
 20
0.0
 30
0.0
  0
VERTEX
  5
105
330
104
100
AcDbEntity
  8
Layer 1
370
     0
100
AcDbVertex
100
AcDb2dVertex
 10
2.495968524845314
 20
-3.140322533556678
 30
0.0
  0
VERTEX
  5
106
330
104
100
AcDbEntity
  8
Layer 1
370
     0
100
AcDbVertex
100
AcDb2dVertex
 10
2.214475610111877
 20
-2.936254463787009
 30
0.0
  0
VERTEX
  5
107
330
104
100
AcDbEntity
  8
Layer 1
370
     0
100
AcDbVertex
100
AcDb2dVertex
 10
2.138827610828154
 20
-3.005914138638117
 30
0.0
  0
VERTEX
  5
108
330
104
100
AcDbEntity
  8
Layer 1
370
     0
100
AcDbVertex
100
AcDb2dVertex
 10
2.236291829870626
 20
-3.32448281145005
 30
0.0
  0
VERTEX
  5
109
330
104
100
AcDbEntity
  8
Layer 1
370
     0
100
AcDbVertex
100
AcDb2dVertex
 10
2.495968524845314
 20
-3.140322533556678
 30
0.0
  0
SEQEND
  5
10B
330
104
100
AcDbEntity
  8
Layer 1
370
     0
  0
HATCH
  5
10A
330
41
100
AcDbEntity
  8
Layer 1
 62
     7
100
AcDbHatch
 10
0.0
 20
0.0
 30
0.0
210
0.0
220
0.0
230
1.0
  2
SOLID
 70
     1
 71
     0
 91
        1
 92
        1
 93
        4
 72
     1
 10
2.495968524845314
 20
-3.140322533556678
 11
2.214475610111877
 21
-2.936254463787009
 72
     1
 10
2.214475610111877
 20
-2.936254463787009
 11
2.138827610828154
 21
-3.005914138638117
 72
     1
 10
2.138827610828154
 20
-3.005914138638117
 11
2.236291829870626
 21
-3.32448281145005
 72
     1
 10
2.236291829870626
 20
-3.32448281145005
 11
2.495968524845314
 21
-3.140322533556678
 97
        0
 75
     2
 76
     1
 98
        0
  0
POLYLINE
  5
10C
330
41
100
AcDbEntity
  8
Layer 1
370
     0
100
AcDb2dPolyline
 66
     1
 10
0.0
 20
0.0
 30
0.0
  0
VERTEX
  5
10D
330
10C
100
AcDbEntity
  8
Layer 1
370
     0
100
AcDbVertex
100
AcDb2dVertex
 10
2.495968524845314
 20
-3.140322533544854
 30
0.0
  0
VERTEX
  5
10E
330
10C
100
AcDbEntity
  8
Layer 1
370
     0
100
AcDbVertex
100
AcDb2dVertex
 10
2.777461439588428
 20
-2.936254463787463
 30
0.0
  0
VERTEX
  5
10F
330
10C
100
AcDbEntity
  8
Layer 1
370
     0
100
AcDbVertex
100
AcDb2dVertex
 10
2.853109438868917
 20
-3.005914138641856
 30
0.0
  0
VERTEX
  5
110
330
10C
100
AcDbEntity
  8
Layer 1
370
     0
100
AcDbVertex
100
AcDb2dVertex
 10
2.755645219811741
 20
-3.324482811449545
 30
0.0
  0
VERTEX
  5
111
330
10C
100
AcDbEntity
  8
Layer 1
370
     0
100
AcDbVertex
100
AcDb2dVertex
 10
2.495968524845314
 20
-3.140322533544854
 30
0.0
  0
SEQEND
  5
113
330
10C
100
AcDbEntity
  8
Layer 1
370
     0
  0
HATCH
  5
112
330
41
100
AcDbEntity
  8
Layer 1
 62
     7
100
AcDbHatch
 10
0.0
 20
0.0
 30
0.0
210
0.0
220
0.0
230
1.0
  2
SOLID
 70
     1
 71
     0
 91
        1
 92
        1
 93
        4
 72
     1
 10
2.495968524845314
 20
-3.140322533544854
 11
2.777461439588428
 21
-2.936254463787463
 72
     1
 10
2.777461439588428
 20
-2.936254463787463
 11
2.853109438868917
 21
-3.005914138641856
 72
     1
 10
2.853109438868917
 20
-3.005914138641856
 11
2.755645219811741
 21
-3.324482811449545
 72
     1
 10
2.755645219811741
 20
-3.324482811449545
 11
2.495968524845314
 21
-3.140322533544854
 97
        0
 75
     2
 76
     1
 98
        0
  0
POLYLINE
  5
114
330
41
100
AcDbEntity
  8
Layer 1
370
     0
100
AcDb2dPolyline
 66
     1
 10
0.0
 20
0.0
 30
0.0
  0
VERTEX
  5
115
330
114
100
AcDbEntity
  8
Layer 1
370
     0
100
AcDbVertex
100
AcDb2dVertex
 10
2.137345476754338
 20
-3.005387186364209
 30
0.0
  0
VERTEX
  5
116
330
114
100
AcDbEntity
  8
Layer 1
370
     0
100
AcDbVertex
100
AcDb2dVertex
 10
1.94890121578227
 20
-3.303430311890831
 30
0.0
  0
VERTEX
  5
117
330
114
100
AcDbEntity
  8
Layer 1
370
     0
100
AcDbVertex
100
AcDb2dVertex
 10
2.366537460915626
 20
-3.491434327690917
 30
0.0
  0
VERTEX
  5
118
330
114
100
AcDbEntity
  8
Layer 1
370
     0
100
AcDbVertex
100
AcDb2dVertex
 10
2.137345476754338
 20
-3.005387186364209
 30
0.0
  0
SEQEND
  5
11A
330
114
100
AcDbEntity
  8
Layer 1
370
     0
  0
HATCH
  5
119
330
41
100
AcDbEntity
  8
Layer 1
 62
     7
100
AcDbHatch
 10
0.0
 20
0.0
 30
0.0
210
0.0
220
0.0
230
1.0
  2
SOLID
 70
     1
 71
     0
 91
        1
 92
        1
 93
        3
 72
     1
 10
2.137345476754338
 20
-3.005387186364209
 11
1.94890121578227
 21
-3.303430311890831
 72
     1
 10
1.94890121578227
 20
-3.303430311890831
 11
2.366537460915626
 21
-3.491434327690917
 72
     1
 10
2.366537460915626
 20
-3.491434327690917
 11
2.137345476754338
 21
-3.005387186364209
 97
        0
 75
     2
 76
     1
 98
        0
  0
POLYLINE
  5
11B
330
41
100
AcDbEntity
  8
Layer 1
370
     0
100
AcDb2dPolyline
 66
     1
 10
0.0
 20
0.0
 30
0.0
  0
VERTEX
  5
11C
330
11B
100
AcDbEntity
  8
Layer 1
370
     0
100
AcDbVertex
100
AcDb2dVertex
 10
2.853634356198654
 20
-3.005387186365068
 30
0.0
  0
VERTEX
  5
11D
330
11B
100
AcDbEntity
  8
Layer 1
370
     0
100
AcDbVertex
100
AcDb2dVertex
 10
3.042078617156752
 20
-3.303430311899824
 30
0.0
  0
VERTEX
  5
11E
330
11B
100
AcDbEntity
  8
Layer 1
370
     0
100
AcDbVertex
100
AcDb2dVertex
 10
2.624442372014528
 20
-3.491434327681898
 30
0.0
  0
VERTEX
  5
11F
330
11B
100
AcDbEntity
  8
Layer 1
370
     0
100
AcDbVertex
100
AcDb2dVertex
 10
2.853634356198654
 20
-3.005387186365068
 30
0.0
  0
SEQEND
  5
121
330
11B
100
AcDbEntity
  8
Layer 1
370
     0
  0
HATCH
  5
120
330
41
100
AcDbEntity
  8
Layer 1
 62
     7
100
AcDbHatch
 10
0.0
 20
0.0
 30
0.0
210
0.0
220
0.0
230
1.0
  2
SOLID
 70
     1
 71
     0
 91
        1
 92
        1
 93
        3
 72
     1
 10
2.853634356198654
 20
-3.005387186365068
 11
3.042078617156752
 21
-3.303430311899824
 72
     1
 10
3.042078617156752
 20
-3.303430311899824
 11
2.624442372014528
 21
-3.491434327681898
 72
     1
 10
2.624442372014528
 20
-3.491434327681898
 11
2.853634356198654
 21
-3.005387186365068
 97
        0
 75
     2
 76
     1
 98
        0
  0
INSERT
  5
123
330
41
100
AcDbEntity
  8
Layer 1
100
AcDbBlockReference
  2
block 13
 10
0.0
 20
0.0
 30
0.0
  0
ENDBLK
  5
44
330
41
100
AcDbEntity
  8
0
100
AcDbBlockEnd
  0
BLOCK
  5
49
330
47
100
AcDbEntity
  8
0
100
AcDbBlockBegin
  2
block 3
 70
     0
 10
0.0
 20
0.0
 30
0.0
  3
block 3
  1

  0
SPLINE
  5
4B
330
47
100
AcDbEntity
  8
Layer 1
370
     0
100
AcDbSpline
210
0.0
220
0.0
230
1.0
 70
     8
 71
     3
 72
    26
 73
    22
 74
     0
 42
0.0000000001
 43
0.0000000001
 12
1.0
 22
0.0
 32
0.0
 13
1.0
 23
0.0
 33
0.0
 40
0.0
 40
0.0
 40
0.0
 40
0.0
 40
1.0
 40
1.0
 40
1.0
 40
2.0
 40
2.0
 40
2.0
 40
3.0
 40
3.0
 40
3.0
 40
4.0
 40
4.0
 40
4.0
 40
5.0
 40
5.0
 40
5.0
 40
6.0
 40
6.0
 40
6.0
 40
7.0
 40
7.0
 40
7.0
 40
7.0
 10
1.92809410756369
 20
-2.303884370967706
 30
0.0
 10
1.92809410756369
 20
-2.303884370967706
 30
0.0
 10
1.92809410756369
 20
-1.875479482979712
 30
0.0
 10
1.92809410756369
 20
-1.875479482979712
 30
0.0
 10
1.92809410756369
 20
-1.57425925271371
 30
0.0
 10
2.182180449918759
 20
-1.367979403710466
 30
0.0
 10
2.495611837323799
 20
-1.367979403710466
 30
0.0
 10
2.495611837323799
 20
-1.367979403710466
 30
0.0
 10
2.495612972360327
 20
-1.367979403710466
 30
0.0
 10
2.495612972360327
 20
-1.367979403710466
 30
0.0
 10
2.80904435976514
 20
-1.367979403710466
 30
0.0
 10
3.063130702120336
 20
-1.57425925271371
 30
0.0
 10
3.063130702120336
 20
-1.875479482979712
 30
0.0
 10
3.063130702120336
 20
-1.875479482979712
 30
0.0
 10
3.063130702120336
 20
-2.303884370967706
 30
0.0
 10
3.063130702120336
 20
-2.303884370967706
 30
0.0
 10
3.063130702120336
 20
-2.605104601233557
 30
0.0
 10
2.80904435976514
 20
-2.902934297821882
 30
0.0
 10
2.495612972360327
 20
-2.902934297821882
 30
0.0
 10
2.495612972360327
 20
-2.902934297821882
 30
0.0
 10
2.495611837323799
 20
-2.902934297821882
 30
0.0
 10
2.495611837323799
 20
-2.902934297821882
 30
0.0
  0
HATCH
  5
4C
330
47
100
AcDbEntity
  8
Layer 1
 62
     2
100
AcDbHatch
 10
0.0
 20
0.0
 30
0.0
210
0.0
220
0.0
230
1.0
  2
SOLID
 70
     1
 71
     0
 91
        1
 92
        1
 93
        2
 72
     4
 94
        3
 73
     0
 74
     0
 95
       26
 96
       22
 40
0.0
 40
0.0
 40
0.0
 40
0.0
 40
0.0138888888888889
 40
0.0138888888888889
 40
0.0138888888888889
 40
0.0277777777777778
 40
0.0277777777777778
 40
0.0277777777777778
 40
0.0416666666666667
 40
0.0416666666666667
 40
0.0416666666666667
 40
0.0555555555555556
 40
0.0555555555555556
 40
0.0555555555555556
 40
0.0694444444444444
 40
0.0694444444444444
 40
0.0694444444444444
 40
0.0833333333333333
 40
0.0833333333333333
 40
0.0833333333333333
 40
0.0972222222222222
 40
0.0972222222222222
 40
0.0972222222222222
 40
0.0972222222222222
 10
1.92809410756369
 20
-2.303884370967706
 10
1.92809410756369
 20
-2.303884370967706
 10
1.92809410756369
 20
-1.875479482979712
 10
1.92809410756369
 20
-1.875479482979712
 10
1.92809410756369
 20
-1.57425925271371
 10
2.182180449918759
 20
-1.367979403710466
 10
2.495611837323799
 20
-1.367979403710466
 10
2.495611837323799
 20
-1.367979403710466
 10
2.495612972360327
 20
-1.367979403710466
 10
2.495612972360327
 20
-1.367979403710466
 10
2.80904435976514
 20
-1.367979403710466
 10
3.063130702120336
 20
-1.57425925271371
 10
3.063130702120336
 20
-1.875479482979712
 10
3.063130702120336
 20
-1.875479482979712
 10
3.063130702120336
 20
-2.303884370967706
 10
3.063130702120336
 20
-2.303884370967706
 10
3.063130702120336
 20
-2.605104601233557
 10
2.80904435976514
 20
-2.902934297821882
 10
2.495612972360327
 20
-2.902934297821882
 10
2.495612972360327
 20
-2.902934297821882
 10
2.495611837323799
 20
-2.902934297821882
 10
2.495611837323799
 20
-2.902934297821882
 97
        0
 72
     1
 10
2.495611837323799
 20
-2.902934297821882
 11
1.92809410756369
 21
-2.303884370967706
 97
        0
 75
     2
 76
     1
 98
        0
  0
SPLINE
  5
4D
330
47
100
AcDbEntity
  8
Layer 1
370
     0
100
AcDbSpline
210
0.0
220
0.0
230
1.0
 70
    11
 71
     3
 72
    38
 73
    34
 74
     0
 42
0.0000000001
 43
0.0000000001
 12
1.0
 22
0.0
 32
0.0
 13
1.0
 23
0.0
 33
0.0
 40
0.0
 40
0.0
 40
0.0
 40
0.0
 40
1.0
 40
1.0
 40
1.0
 40
2.0
 40
2.0
 40
2.0
 40
3.0
 40
3.0
 40
3.0
 40
4.0
 40
4.0
 40
4.0
 40
5.0
 40
5.0
 40
5.0
 40
6.0
 40
6.0
 40
6.0
 40
7.0
 40
7.0
 40
7.0
 40
8.0
 40
8.0
 40
8.0
 40
9.0
 40
9.0
 40
9.0
 40
10.0
 40
10.0
 40
10.0
 40
11.0
 40
11.0
 40
11.0
 40
11.0
 10
2.495615097432417
 20
-1.367978701042438
 30
0.0
 10
2.182180708185216
 20
-1.367978701042438
 30
0.0
 10
1.928095469144889
 20
-1.574259803399918
 30
0.0
 10
1.928095469144889
 20
-1.875481334880647
 30
0.0
 10
1.928095469144889
 20
-1.875481334880647
 30
0.0
 10
1.928095469144889
 20
-2.078559568917399
 30
0.0
 10
1.928095469144889
 20
-2.078559568917399
 30
0.0
 10
1.913332813414197
 20
-2.0674122405959
 30
0.0
 10
1.894910790966605
 20
-2.060644715618688
 30
0.0
 10
1.874919092795355
 20
-2.060644715618688
 30
0.0
 10
1.827231766521789
 20
-2.060644715618688
 30
0.0
 10
1.788577298092378
 20
-2.097795535639003
 30
0.0
 10
1.788577298092378
 20
-2.143624983416518
 30
0.0
 10
1.788577298092378
 20
-2.143624983416518
 30
0.0
 10
1.788577298092378
 20
-2.234990041134829
 30
0.0
 10
1.788577298092378
 20
-2.234990041134829
 30
0.0
 10
1.788577298092378
 20
-2.304125225355291
 30
0.0
 10
1.846896047671028
 20
-2.360171900585606
 30
0.0
 10
1.9188314934027
 20
-2.360171900585606
 30
0.0
 10
1.9188314934027
 20
-2.360171900585606
 30
0.0
 10
1.931109631730124
 20
-2.360171900585606
 30
0.0
 10
1.931109631730124
 20
-2.360171900585606
 30
0.0
 10
1.960423085118135
 20
-2.634942669396398
 30
0.0
 10
2.20196054828327
 20
-2.90293403997786
 30
0.0
 10
2.495615097432417
 20
-2.90293403997786
 30
0.0
 10
2.809039856767438
 20
-2.90293403997786
 30
0.0
 10
3.0631347257204
 20
-2.605105403719032
 30
0.0
 10
3.0631347257204
 20
-2.303884602244958
 30
0.0
 10
3.0631347257204
 20
-2.303884602244958
 30
0.0
 10
3.0631347257204
 20
-1.875481334880647
 30
0.0
 10
3.0631347257204
 20
-1.875481334880647
 30
0.0
 10
3.0631347257204
 20
-1.574259803399918
 30
0.0
 10
2.809039856767438
 20
-1.367978701042438
 30
0.0
 10
2.495615097432417
 20
-1.367978701042438
 30
0.0
  0
HATCH
  5
4E
330
47
100
AcDbEntity
  8
Layer 1
 62
     1
100
AcDbHatch
 10
0.0
 20
0.0
 30
0.0
210
0.0
220
0.0
230
1.0
  2
SOLID
 70
     1
 71
     0
 91
        1
 92
        1
 93
        1
 72
     4
 94
        3
 73
     0
 74
     1
 95
       38
 96
       34
 40
0.0
 40
0.0
 40
0.0
 40
0.0
 40
1.0
 40
1.0
 40
1.0
 40
2.0
 40
2.0
 40
2.0
 40
3.0
 40
3.0
 40
3.0
 40
4.0
 40
4.0
 40
4.0
 40
5.0
 40
5.0
 40
5.0
 40
6.0
 40
6.0
 40
6.0
 40
7.0
 40
7.0
 40
7.0
 40
8.0
 40
8.0
 40
8.0
 40
9.0
 40
9.0
 40
9.0
 40
10.0
 40
10.0
 40
10.0
 40
11.0
 40
11.0
 40
11.0
 40
11.0
 10
2.495615097432417
 20
-1.367978701042438
 10
2.182180708185216
 20
-1.367978701042438
 10
1.928095469144889
 20
-1.574259803399918
 10
1.928095469144889
 20
-1.875481334880647
 10
1.928095469144889
 20
-1.875481334880647
 10
1.928095469144889
 20
-2.078559568917399
 10
1.928095469144889
 20
-2.078559568917399
 10
1.913332813414197
 20
-2.0674122405959
 10
1.894910790966605
 20
-2.060644715618688
 10
1.874919092795355
 20
-2.060644715618688
 10
1.827231766521789
 20
-2.060644715618688
 10
1.788577298092378
 20
-2.097795535639003
 10
1.788577298092378
 20
-2.143624983416518
 10
1.788577298092378
 20
-2.143624983416518
 10
1.788577298092378
 20
-2.234990041134829
 10
1.788577298092378
 20
-2.234990041134829
 10
1.788577298092378
 20
-2.304125225355291
 10
1.846896047671028
 20
-2.360171900585606
 10
1.9188314934027
 20
-2.360171900585606
 10
1.9188314934027
 20
-2.360171900585606
 10
1.931109631730124
 20
-2.360171900585606
 10
1.931109631730124
 20
-2.360171900585606
 10
1.960423085118135
 20
-2.634942669396398
 10
2.20196054828327
 20
-2.90293403997786
 10
2.495615097432417
 20
-2.90293403997786
 10
2.809039856767438
 20
-2.90293403997786
 10
3.0631347257204
 20
-2.605105403719032
 10
3.0631347257204
 20
-2.303884602244958
 10
3.0631347257204
 20
-2.303884602244958
 10
3.0631347257204
 20
-1.875481334880647
 10
3.0631347257204
 20
-1.875481334880647
 10
3.0631347257204
 20
-1.574259803399918
 10
2.809039856767438
 20
-1.367978701042438
 10
2.495615097432417
 20
-1.367978701042438
 97
        0
 97
        0
 75
     2
 76
     1
 98
        0
  0
INSERT
  5
50
330
47
100
AcDbEntity
  8
Layer 1
100
AcDbBlockReference
  2
block 4
 10
0.0
 20
0.0
 30
0.0
  0
SPLINE
  5
55
330
47
100
AcDbEntity
  8
Layer 1
370
     0
100
AcDbSpline
210
0.0
220
0.0
230
1.0
 70
    11
 71
     3
 72
    74
 73
    70
 74
     0
 42
0.0000000001
 43
0.0000000001
 12
1.0
 22
0.0
 32
0.0
 13
1.0
 23
0.0
 33
0.0
 40
0.0
 40
0.0
 40
0.0
 40
0.0
 40
1.0
 40
1.0
 40
1.0
 40
2.0
 40
2.0
 40
2.0
 40
3.0
 40
3.0
 40
3.0
 40
4.0
 40
4.0
 40
4.0
 40
5.0
 40
5.0
 40
5.0
 40
6.0
 40
6.0
 40
6.0
 40
7.0
 40
7.0
 40
7.0
 40
8.0
 40
8.0
 40
8.0
 40
9.0
 40
9.0
 40
9.0
 40
10.0
 40
10.0
 40
10.0
 40
11.0
 40
11.0
 40
11.0
 40
12.0
 40
12.0
 40
12.0
 40
13.0
 40
13.0
 40
13.0
 40
14.0
 40
14.0
 40
14.0
 40
15.0
 40
15.0
 40
15.0
 40
16.0
 40
16.0
 40
16.0
 40
17.0
 40
17.0
 40
17.0
 40
18.0
 40
18.0
 40
18.0
 40
19.0
 40
19.0
 40
19.0
 40
20.0
 40
20.0
 40
20.0
 40
21.0
 40
21.0
 40
21.0
 40
22.0
 40
22.0
 40
22.0
 40
23.0
 40
23.0
 40
23.0
 40
23.0
 10
3.133481235903673
 20
-2.060644715618688
 30
0.0
 10
3.090657015399327
 20
-2.060644715618688
 30
0.0
 10
3.054304096036655
 20
-2.075481795568799
 30
0.0
 10
3.048054282880205
 20
-2.116195688568622
 30
0.0
 10
3.048054282880205
 20
-2.116195688568622
 30
0.0
 10
3.035959112888375
 20
-2.210409464944001
 30
0.0
 10
3.035959112888375
 20
-2.210409464944001
 30
0.0
 10
3.035959112888375
 20
-2.210409464944001
 30
0.0
 10
3.035959112888375
 20
-2.210407151260268
 30
0.0
 10
3.035959112888375
 20
-2.210407151260268
 30
0.0
 10
3.006327872390632
 20
-2.122070705574452
 30
0.0
 10
2.896995389434121
 20
-2.023841736658798
 30
0.0
 10
2.896995389434121
 20
-2.023841736658798
 30
0.0
 10
2.896995389434121
 20
-2.023841736658798
 30
0.0
 10
2.685603732274229
 20
-2.014456125996541
 30
0.0
 10
2.685603732274229
 20
-2.014456125996541
 30
0.0
 10
2.605540640465001
 20
-2.014456125996541
 30
0.0
 10
2.540876077218374
 20
-2.063689002574518
 30
0.0
 10
2.557035070248882
 20
-2.139054937141534
 30
0.0
 10
2.557035070248882
 20
-2.139054937141534
 30
0.0
 10
2.588963250429338
 20
-2.340714412035747
 30
0.0
 10
2.588963250429338
 20
-2.340714412035747
 30
0.0
 10
2.597504982740575
 20
-2.380609260987057
 30
0.0
 10
2.605672641529711
 20
-2.41799607675019
 30
0.0
 10
2.563291396995939
 20
-2.41799607675019
 30
0.0
 10
2.563291396995939
 20
-2.41799607675019
 30
0.0
 10
2.532686938119746
 20
-2.41799607675019
 30
0.0
 10
2.532686938119746
 20
-2.41799607675019
 30
0.0
 10
2.502333454191279
 20
-2.41799607675019
 30
0.0
 10
2.497261215230461
 20
-2.48761885643042
 30
0.0
 10
2.497261215230461
 20
-2.516787467503264
 30
0.0
 10
2.497261215230461
 20
-2.516787467503264
 30
0.0
 10
2.497261215230461
 20
-2.804119225612415
 30
0.0
 10
2.497261215230461
 20
-2.804119225612415
 30
0.0
 10
2.497261215230461
 20
-2.847338838116634
 30
0.0
 10
2.493140209942314
 20
-2.869531387637228
 30
0.0
 10
2.458462895339734
 20
-2.897061910612996
 30
0.0
 10
2.458462895339734
 20
-2.897061910612996
 30
0.0
 10
2.453638309220423
 20
-2.900897998275266
 30
0.0
 10
2.453638309220423
 20
-2.900897998275266
 30
0.0
 10
2.453994615979582
 20
-2.900923448796574
 30
0.0
 10
2.454350922739018
 20
-2.901337598188345
 30
0.0
 10
2.454707229498176
 20
-2.90143014553842
 30
0.0
 10
2.368288395496089
 20
-2.895435390934658
 30
0.0
 10
2.287329721832621
 20
-2.855410401736031
 30
0.0
 10
2.21589503154635
 20
-2.816404007345833
 30
0.0
 10
2.21589503154635
 20
-2.816404007345833
 30
0.0
 10
2.21589503154635
 20
-2.993054335837087
 30
0.0
 10
2.21589503154635
 20
-2.993054335837087
 30
0.0
 10
2.21589503154635
 20
-2.993054335837087
 30
0.0
 10
2.775335163318889
 20
-2.993054335837087
 30
0.0
 10
2.775335163318889
 20
-2.993054335837087
 30
0.0
 10
2.775335163318889
 20
-2.993054335837087
 30
0.0
 10
2.775335163318889
 20
-2.831910889814985
 30
0.0
 10
2.775335163318889
 20
-2.831910889814985
 30
0.0
 10
2.931031587226673
 20
-2.746926971887155
 30
0.0
 10
3.04061036058412
 20
-2.539648976665679
 30
0.0
 10
3.059812405937388
 20
-2.360171900585606
 30
0.0
 10
3.059812405937388
 20
-2.360171900585606
 30
0.0
 10
3.089568835296354
 20
-2.360171900585606
 30
0.0
 10
3.089568835296354
 20
-2.360171900585606
 30
0.0
 10
3.161504281027924
 20
-2.360171900585606
 30
0.0
 10
3.219823030606499
 20
-2.357767678332821
 30
0.0
 10
3.219823030606499
 20
-2.288632494112385
 30
0.0
 10
3.219823030606499
 20
-2.288632494112385
 30
0.0
 10
3.219823030606499
 20
-2.197267436394061
 30
0.0
 10
3.219823030606499
 20
-2.197267436394061
 30
0.0
 10
3.219823030606499
 20
-2.151437988616585
 30
0.0
 10
3.181168562177264
 20
-2.060644715618688
 30
0.0
 10
3.133481235903673
 20
-2.060644715618688
 30
0.0
  0
HATCH
  5
56
330
47
100
AcDbEntity
  8
Layer 1
 62
     1
100
AcDbHatch
 10
0.0
 20
0.0
 30
0.0
210
0.0
220
0.0
230
1.0
  2
SOLID
 70
     1
 71
     0
 91
        1
 92
        1
 93
        1
 72
     4
 94
        3
 73
     0
 74
     1
 95
       74
 96
       70
 40
0.0
 40
0.0
 40
0.0
 40
0.0
 40
1.0
 40
1.0
 40
1.0
 40
2.0
 40
2.0
 40
2.0
 40
3.0
 40
3.0
 40
3.0
 40
4.0
 40
4.0
 40
4.0
 40
5.0
 40
5.0
 40
5.0
 40
6.0
 40
6.0
 40
6.0
 40
7.0
 40
7.0
 40
7.0
 40
8.0
 40
8.0
 40
8.0
 40
9.0
 40
9.0
 40
9.0
 40
10.0
 40
10.0
 40
10.0
 40
11.0
 40
11.0
 40
11.0
 40
12.0
 40
12.0
 40
12.0
 40
13.0
 40
13.0
 40
13.0
 40
14.0
 40
14.0
 40
14.0
 40
15.0
 40
15.0
 40
15.0
 40
16.0
 40
16.0
 40
16.0
 40
17.0
 40
17.0
 40
17.0
 40
18.0
 40
18.0
 40
18.0
 40
19.0
 40
19.0
 40
19.0
 40
20.0
 40
20.0
 40
20.0
 40
21.0
 40
21.0
 40
21.0
 40
22.0
 40
22.0
 40
22.0
 40
23.0
 40
23.0
 40
23.0
 40
23.0
 10
3.133481235903673
 20
-2.060644715618688
 10
3.090657015399327
 20
-2.060644715618688
 10
3.054304096036655
 20
-2.075481795568799
 10
3.048054282880205
 20
-2.116195688568622
 10
3.048054282880205
 20
-2.116195688568622
 10
3.035959112888375
 20
-2.210409464944001
 10
3.035959112888375
 20
-2.210409464944001
 10
3.035959112888375
 20
-2.210409464944001
 10
3.035959112888375
 20
-2.210407151260268
 10
3.035959112888375
 20
-2.210407151260268
 10
3.006327872390632
 20
-2.122070705574452
 10
2.896995389434121
 20
-2.023841736658798
 10
2.896995389434121
 20
-2.023841736658798
 10
2.896995389434121
 20
-2.023841736658798
 10
2.685603732274229
 20
-2.014456125996541
 10
2.685603732274229
 20
-2.014456125996541
 10
2.605540640465001
 20
-2.014456125996541
 10
2.540876077218374
 20
-2.063689002574518
 10
2.557035070248882
 20
-2.139054937141534
 10
2.557035070248882
 20
-2.139054937141534
 10
2.588963250429338
 20
-2.340714412035747
 10
2.588963250429338
 20
-2.340714412035747
 10
2.597504982740575
 20
-2.380609260987057
 10
2.605672641529711
 20
-2.41799607675019
 10
2.563291396995939
 20
-2.41799607675019
 10
2.563291396995939
 20
-2.41799607675019
 10
2.532686938119746
 20
-2.41799607675019
 10
2.532686938119746
 20
-2.41799607675019
 10
2.502333454191279
 20
-2.41799607675019
 10
2.497261215230461
 20
-2.48761885643042
 10
2.497261215230461
 20
-2.516787467503264
 10
2.497261215230461
 20
-2.516787467503264
 10
2.497261215230461
 20
-2.804119225612415
 10
2.497261215230461
 20
-2.804119225612415
 10
2.497261215230461
 20
-2.847338838116634
 10
2.493140209942314
 20
-2.869531387637228
 10
2.458462895339734
 20
-2.897061910612996
 10
2.458462895339734
 20
-2.897061910612996
 10
2.453638309220423
 20
-2.900897998275266
 10
2.453638309220423
 20
-2.900897998275266
 10
2.453994615979582
 20
-2.900923448796574
 10
2.454350922739018
 20
-2.901337598188345
 10
2.454707229498176
 20
-2.90143014553842
 10
2.368288395496089
 20
-2.895435390934658
 10
2.287329721832621
 20
-2.855410401736031
 10
2.21589503154635
 20
-2.816404007345833
 10
2.21589503154635
 20
-2.816404007345833
 10
2.21589503154635
 20
-2.993054335837087
 10
2.21589503154635
 20
-2.993054335837087
 10
2.21589503154635
 20
-2.993054335837087
 10
2.775335163318889
 20
-2.993054335837087
 10
2.775335163318889
 20
-2.993054335837087
 10
2.775335163318889
 20
-2.993054335837087
 10
2.775335163318889
 20
-2.831910889814985
 10
2.775335163318889
 20
-2.831910889814985
 10
2.931031587226673
 20
-2.746926971887155
 10
3.04061036058412
 20
-2.539648976665679
 10
3.059812405937388
 20
-2.360171900585606
 10
3.059812405937388
 20
-2.360171900585606
 10
3.089568835296354
 20
-2.360171900585606
 10
3.089568835296354
 20
-2.360171900585606
 10
3.161504281027924
 20
-2.360171900585606
 10
3.219823030606499
 20
-2.357767678332821
 10
3.219823030606499
 20
-2.288632494112385
 10
3.219823030606499
 20
-2.288632494112385
 10
3.219823030606499
 20
-2.197267436394061
 10
3.219823030606499
 20
-2.197267436394061
 10
3.219823030606499
 20
-2.151437988616585
 10
3.181168562177264
 20
-2.060644715618688
 10
3.133481235903673
 20
-2.060644715618688
 97
        0
 97
        0
 75
     2
 76
     1
 98
        0
  0
SPLINE
  5
57
330
47
100
AcDbEntity
  8
Layer 1
370
     0
100
AcDbSpline
210
0.0
220
0.0
230
1.0
 70
     8
 71
     3
 72
    26
 73
    22
 74
     0
 42
0.0000000001
 43
0.0000000001
 12
1.0
 22
0.0
 32
0.0
 13
1.0
 23
0.0
 33
0.0
 40
0.0
 40
0.0
 40
0.0
 40
0.0
 40
1.0
 40
1.0
 40
1.0
 40
2.0
 40
2.0
 40
2.0
 40
3.0
 40
3.0
 40
3.0
 40
4.0
 40
4.0
 40
4.0
 40
5.0
 40
5.0
 40
5.0
 40
6.0
 40
6.0
 40
6.0
 40
7.0
 40
7.0
 40
7.0
 40
7.0
 10
1.92809410756369
 20
-2.303884370967706
 30
0.0
 10
1.92809410756369
 20
-2.303884370967706
 30
0.0
 10
1.92809410756369
 20
-1.875479482979712
 30
0.0
 10
1.92809410756369
 20
-1.875479482979712
 30
0.0
 10
1.92809410756369
 20
-1.57425925271371
 30
0.0
 10
2.182180449918759
 20
-1.367979403710466
 30
0.0
 10
2.495611837323799
 20
-1.367979403710466
 30
0.0
 10
2.495611837323799
 20
-1.367979403710466
 30
0.0
 10
2.495612972360327
 20
-1.367979403710466
 30
0.0
 10
2.495612972360327
 20
-1.367979403710466
 30
0.0
 10
2.80904435976514
 20
-1.367979403710466
 30
0.0
 10
3.063130702120336
 20
-1.57425925271371
 30
0.0
 10
3.063130702120336
 20
-1.875479482979712
 30
0.0
 10
3.063130702120336
 20
-1.875479482979712
 30
0.0
 10
3.063130702120336
 20
-2.303884370967706
 30
0.0
 10
3.063130702120336
 20
-2.303884370967706
 30
0.0
 10
3.063130702120336
 20
-2.605104601233557
 30
0.0
 10
2.80904435976514
 20
-2.902934297821882
 30
0.0
 10
2.495612972360327
 20
-2.902934297821882
 30
0.0
 10
2.495612972360327
 20
-2.902934297821882
 30
0.0
 10
2.495611837323799
 20
-2.902934297821882
 30
0.0
 10
2.495611837323799
 20
-2.902934297821882
 30
0.0
  0
ENDBLK
  5
4A
330
47
100
AcDbEntity
  8
0
100
AcDbBlockEnd
  0
BLOCK
  5
51
330
4F
100
AcDbEntity
  8
0
100
AcDbBlockBegin
  2
block 4
 70
     0
 10
0.0
 20
0.0
 30
0.0
  3
block 4
  1

  0
SPLINE
  5
53
330
4F
100
AcDbEntity
  8
Layer 1
370
     0
100
AcDbSpline
210
0.0
220
0.0
230
1.0
 70
    11
 71
     3
 72
    23
 73
    19
 74
     0
 42
0.0000000001
 43
0.0000000001
 12
1.0
 22
0.0
 32
0.0
 13
1.0
 23
0.0
 33
0.0
 40
0.0
 40
0.0
 40
0.0
 40
0.0
 40
1.0
 40
1.0
 40
1.0
 40
2.0
 40
2.0
 40
2.0
 40
3.0
 40
3.0
 40
3.0
 40
4.0
 40
4.0
 40
4.0
 40
5.0
 40
5.0
 40
5.0
 40
6.0
 40
6.0
 40
6.0
 40
6.0
 10
2.280631770803943
 20
-1.367979403710466
 30
0.0
 10
2.252561404523097
 20
-1.367979403710466
 30
0.0
 10
2.249100785106141
 20
-1.716070949065347
 30
0.0
 10
2.222122428317966
 20
-1.719300116991563
 30
0.0
 10
2.20124588591903
 20
-1.682990582324098
 30
0.0
 10
2.782497409558851
 20
-1.692013509659281
 30
0.0
 10
2.782497409558851
 20
-1.966187453158416
 30
0.0
 10
2.782497409558851
 20
-1.966187453158416
 30
0.0
 10
2.782497409558851
 20
-2.827686468462692
 30
0.0
 10
2.782497409558851
 20
-2.827686468462692
 30
0.0
 10
2.949989730164437
 20
-2.732864533008397
 30
0.0
 10
3.062459555003544
 20
-2.504222030250225
 30
0.0
 10
3.062459555003544
 20
-2.303885299928778
 30
0.0
 10
3.062459555003544
 20
-2.303885299928778
 30
0.0
 10
3.062459555003544
 20
-1.875481782197893
 30
0.0
 10
3.062459555003544
 20
-1.875481782197893
 30
0.0
 10
3.062459555003544
 20
-1.574260048596898
 30
0.0
 10
2.594057569586918
 20
-1.367979403710466
 30
0.0
 10
2.280631770803943
 20
-1.367979403710466
 30
0.0
  0
HATCH
  5
54
330
4F
100
AcDbEntity
  8
Layer 1
 62
     1
100
AcDbHatch
 10
0.0
 20
0.0
 30
0.0
210
0.0
220
0.0
230
1.0
  2
SOLID
 70
     1
 71
     0
 91
        1
 92
        1
 93
        1
 72
     4
 94
        3
 73
     0
 74
     1
 95
       23
 96
       19
 40
0.0
 40
0.0
 40
0.0
 40
0.0
 40
1.0
 40
1.0
 40
1.0
 40
2.0
 40
2.0
 40
2.0
 40
3.0
 40
3.0
 40
3.0
 40
4.0
 40
4.0
 40
4.0
 40
5.0
 40
5.0
 40
5.0
 40
6.0
 40
6.0
 40
6.0
 40
6.0
 10
2.280631770803943
 20
-1.367979403710466
 10
2.252561404523097
 20
-1.367979403710466
 10
2.249100785106141
 20
-1.716070949065347
 10
2.222122428317966
 20
-1.719300116991563
 10
2.20124588591903
 20
-1.682990582324098
 10
2.782497409558851
 20
-1.692013509659281
 10
2.782497409558851
 20
-1.966187453158416
 10
2.782497409558851
 20
-1.966187453158416
 10
2.782497409558851
 20
-2.827686468462692
 10
2.782497409558851
 20
-2.827686468462692
 10
2.949989730164437
 20
-2.732864533008397
 10
3.062459555003544
 20
-2.504222030250225
 10
3.062459555003544
 20
-2.303885299928778
 10
3.062459555003544
 20
-2.303885299928778
 10
3.062459555003544
 20
-1.875481782197893
 10
3.062459555003544
 20
-1.875481782197893
 10
3.062459555003544
 20
-1.574260048596898
 10
2.594057569586918
 20
-1.367979403710466
 10
2.280631770803943
 20
-1.367979403710466
 97
        0
 97
        0
 75
     2
 76
     1
 98
        0
  0
ENDBLK
  5
52
330
4F
100
AcDbEntity
  8
0
100
AcDbBlockEnd
  0
BLOCK
  5
76
330
74
100
AcDbEntity
  8
0
100
AcDbBlockBegin
  2
block 5
 70
     0
 10
0.0
 20
0.0
 30
0.0
  3
block 5
  1

  0
SPLINE
  5
78
330
74
100
AcDbEntity
  8
Layer 1
370
     0
100
AcDbSpline
210
0.0
220
0.0
230
1.0
 70
    11
 71
     3
 72
    23
 73
    19
 74
     0
 42
0.0000000001
 43
0.0000000001
 12
1.0
 22
0.0
 32
0.0
 13
1.0
 23
0.0
 33
0.0
 40
0.0
 40
0.0
 40
0.0
 40
0.0
 40
1.0
 40
1.0
 40
1.0
 40
2.0
 40
2.0
 40
2.0
 40
3.0
 40
3.0
 40
3.0
 40
4.0
 40
4.0
 40
4.0
 40
5.0
 40
5.0
 40
5.0
 40
6.0
 40
6.0
 40
6.0
 40
6.0
 10
2.495612734203051
 20
-2.903170615616242
 30
0.0
 10
2.482680774115377
 20
-2.903170615616242
 30
0.0
 10
2.469893979113395
 20
-2.902604717869659
 30
0.0
 10
2.457178744364733
 20
-2.90178632755212
 30
0.0
 10
2.457178744364733
 20
-2.90178632755212
 30
0.0
 10
2.457178744364733
 20
-3.242226875028968
 30
0.0
 10
2.457178744364733
 20
-3.242226875028968
 30
0.0
 10
2.457178744364733
 20
-3.242226875028968
 30
0.0
 10
2.77576703729993
 20
-3.242226875028968
 30
0.0
 10
2.77576703729993
 20
-3.242226875028968
 30
0.0
 10
2.77576703729993
 20
-3.242226875028968
 30
0.0
 10
2.77576703729993
 20
-2.832015359983668
 30
0.0
 10
2.77576703729993
 20
-2.832015359983668
 30
0.0
 10
2.693092454200546
 20
-2.877220863567269
 30
0.0
 10
2.597534980901703
 20
-2.903170615616242
 30
0.0
 10
2.495614778781702
 20
-2.903170615616242
 30
0.0
 10
2.495614778781702
 20
-2.903170615616242
 30
0.0
 10
2.495612734203051
 20
-2.903170615616242
 30
0.0
 10
2.495612734203051
 20
-2.903170615616242
 30
0.0
  0
HATCH
  5
79
330
74
100
AcDbEntity
  8
Layer 1
 62
     1
100
AcDbHatch
 10
0.0
 20
0.0
 30
0.0
210
0.0
220
0.0
230
1.0
  2
SOLID
 70
     1
 71
     0
 91
        1
 92
        1
 93
        1
 72
     4
 94
        3
 73
     0
 74
     1
 95
       23
 96
       19
 40
0.0
 40
0.0
 40
0.0
 40
0.0
 40
1.0
 40
1.0
 40
1.0
 40
2.0
 40
2.0
 40
2.0
 40
3.0
 40
3.0
 40
3.0
 40
4.0
 40
4.0
 40
4.0
 40
5.0
 40
5.0
 40
5.0
 40
6.0
 40
6.0
 40
6.0
 40
6.0
 10
2.495612734203051
 20
-2.903170615616242
 10
2.482680774115377
 20
-2.903170615616242
 10
2.469893979113395
 20
-2.902604717869659
 10
2.457178744364733
 20
-2.90178632755212
 10
2.457178744364733
 20
-2.90178632755212
 10
2.457178744364733
 20
-3.242226875028968
 10
2.457178744364733
 20
-3.242226875028968
 10
2.457178744364733
 20
-3.242226875028968
 10
2.77576703729993
 20
-3.242226875028968
 10
2.77576703729993
 20
-3.242226875028968
 10
2.77576703729993
 20
-3.242226875028968
 10
2.77576703729993
 20
-2.832015359983668
 10
2.77576703729993
 20
-2.832015359983668
 10
2.693092454200546
 20
-2.877220863567269
 10
2.597534980901703
 20
-2.903170615616242
 10
2.495614778781702
 20
-2.903170615616242
 10
2.495614778781702
 20
-2.903170615616242
 10
2.495612734203051
 20
-2.903170615616242
 10
2.495612734203051
 20
-2.903170615616242
 97
        0
 97
        0
 75
     2
 76
     1
 98
        0
  0
ENDBLK
  5
77
330
74
100
AcDbEntity
  8
0
100
AcDbBlockEnd
  0
BLOCK
  5
A1
330
9F
100
AcDbEntity
  8
0
100
AcDbBlockBegin
  2
block 6
 70
     0
 10
0.0
 20
0.0
 30
0.0
  3
block 6
  1

  0
SPLINE
  5
A3
330
9F
100
AcDbEntity
  8
Layer 1
370
     0
100
AcDbSpline
210
0.0
220
0.0
230
1.0
 70
    11
 71
     3
 72
    29
 73
    25
 74
     0
 42
0.0000000001
 43
0.0000000001
 12
1.0
 22
0.0
 32
0.0
 13
1.0
 23
0.0
 33
0.0
 40
0.0
 40
0.0
 40
0.0
 40
0.0
 40
1.0
 40
1.0
 40
1.0
 40
2.0
 40
2.0
 40
2.0
 40
3.0
 40
3.0
 40
3.0
 40
4.0
 40
4.0
 40
4.0
 40
5.0
 40
5.0
 40
5.0
 40
6.0
 40
6.0
 40
6.0
 40
7.0
 40
7.0
 40
7.0
 40
8.0
 40
8.0
 40
8.0
 40
8.0
 10
2.391772895629275
 20
-2.006792918428346
 30
0.0
 10
2.391772895629275
 20
-2.006792918428346
 30
0.0
 10
2.112229031775415
 20
-2.006792918428346
 30
0.0
 10
2.112229031775415
 20
-2.006792918428346
 30
0.0
 10
2.064920908682198
 20
-2.006792918428346
 30
0.0
 10
2.026215535205008
 20
-2.043991187458889
 30
0.0
 10
2.026215535205008
 20
-2.089455364769239
 30
0.0
 10
2.026215535205008
 20
-2.089455364769239
 30
0.0
 10
2.028052981726078
 20
-2.229679393249196
 30
0.0
 10
2.033710567061537
 20
-2.276043318459794
 30
0.0
 10
2.043284538410388
 20
-2.354474006568984
 30
0.0
 10
2.081781667948386
 20
-2.386330968438566
 30
0.0
 10
2.123012217929954
 20
-2.386330968438566
 30
0.0
 10
2.123012217929954
 20
-2.386330968438566
 30
0.0
 10
2.373818418195899
 20
-2.386330968438566
 30
0.0
 10
2.373818418195899
 20
-2.386330968438566
 30
0.0
 10
2.415050718126521
 20
-2.386330968438566
 30
0.0
 10
2.437038828160742
 20
-2.353516237542433
 30
0.0
 10
2.44878623625161
 20
-2.276043318459794
 30
0.0
 10
2.44878623625161
 20
-2.276043318459794
 30
0.0
 10
2.477786392199707
 20
-2.089455364769239
 30
0.0
 10
2.477786392199707
 20
-2.089455364769239
 30
0.0
 10
2.477786392199707
 20
-2.043991187458889
 30
0.0
 10
2.439079268773538
 20
-2.006792918428346
 30
0.0
 10
2.391772895629275
 20
-2.006792918428346
 30
0.0
  0
SPLINE
  5
A4
330
9F
100
AcDbEntity
  8
Layer 1
370
     0
100
AcDbSpline
210
0.0
220
0.0
230
1.0
 70
    11
 71
     3
 72
    29
 73
    25
 74
     0
 42
0.0000000001
 43
0.0000000001
 12
1.0
 22
0.0
 32
0.0
 13
1.0
 23
0.0
 33
0.0
 40
0.0
 40
0.0
 40
0.0
 40
0.0
 40
1.0
 40
1.0
 40
1.0
 40
2.0
 40
2.0
 40
2.0
 40
3.0
 40
3.0
 40
3.0
 40
4.0
 40
4.0
 40
4.0
 40
5.0
 40
5.0
 40
5.0
 40
6.0
 40
6.0
 40
6.0
 40
7.0
 40
7.0
 40
7.0
 40
8.0
 40
8.0
 40
8.0
 40
8.0
 10
2.407075056090409
 20
-2.259196563636503
 30
0.0
 10
2.39781773572943
 20
-2.320248498336392
 30
0.0
 10
2.380491200294475
 20
-2.346107486127014
 30
0.0
 10
2.347998170842124
 20
-2.346107486127014
 30
0.0
 10
2.347998170842124
 20
-2.346107486127014
 30
0.0
 10
2.150351905915613
 20
-2.346107486127014
 30
0.0
 10
2.150351905915613
 20
-2.346107486127014
 30
0.0
 10
2.117860526609395
 20
-2.346107486127014
 30
0.0
 10
2.087522588135824
 20
-2.321003366371972
 30
0.0
 10
2.079979769709856
 20
-2.259196563636503
 30
0.0
 10
2.075519424444944
 20
-2.2226599991996
 30
0.0
 10
2.074072246199598
 20
-2.112157864739692
 30
0.0
 10
2.074072246199598
 20
-2.112157864739692
 30
0.0
 10
2.074072246199598
 20
-2.07632978201477
 30
0.0
 10
2.104573549150069
 20
-2.047016400739848
 30
0.0
 10
2.141853652821383
 20
-2.047016400739848
 30
0.0
 10
2.141853652821383
 20
-2.047016400739848
 30
0.0
 10
2.362146524634454
 20
-2.047016400739848
 30
0.0
 10
2.362146524634454
 20
-2.047016400739848
 30
0.0
 10
2.399426628305592
 20
-2.047016400739848
 30
0.0
 10
2.429927931256139
 20
-2.07632978201477
 30
0.0
 10
2.429927931256139
 20
-2.112157864739692
 30
0.0
 10
2.429927931256139
 20
-2.112157864739692
 30
0.0
 10
2.407075056090409
 20
-2.259196563636503
 30
0.0
 10
2.407075056090409
 20
-2.259196563636503
 30
0.0
  0
HATCH
  5
A5
330
9F
100
AcDbEntity
  8
Layer 1
 62
     1
100
AcDbHatch
 10
0.0
 20
0.0
 30
0.0
210
0.0
220
0.0
230
1.0
  2
SOLID
 70
     1
 71
     0
 91
        2
 92
        1
 93
        1
 72
     4
 94
        3
 73
     0
 74
     1
 95
       29
 96
       25
 40
0.0
 40
0.0
 40
0.0
 40
0.0
 40
1.0
 40
1.0
 40
1.0
 40
2.0
 40
2.0
 40
2.0
 40
3.0
 40
3.0
 40
3.0
 40
4.0
 40
4.0
 40
4.0
 40
5.0
 40
5.0
 40
5.0
 40
6.0
 40
6.0
 40
6.0
 40
7.0
 40
7.0
 40
7.0
 40
8.0
 40
8.0
 40
8.0
 40
8.0
 10
2.391772895629275
 20
-2.006792918428346
 10
2.391772895629275
 20
-2.006792918428346
 10
2.112229031775415
 20
-2.006792918428346
 10
2.112229031775415
 20
-2.006792918428346
 10
2.064920908682198
 20
-2.006792918428346
 10
2.026215535205008
 20
-2.043991187458889
 10
2.026215535205008
 20
-2.089455364769239
 10
2.026215535205008
 20
-2.089455364769239
 10
2.028052981726078
 20
-2.229679393249196
 10
2.033710567061537
 20
-2.276043318459794
 10
2.043284538410388
 20
-2.354474006568984
 10
2.081781667948386
 20
-2.386330968438566
 10
2.123012217929954
 20
-2.386330968438566
 10
2.123012217929954
 20
-2.386330968438566
 10
2.373818418195899
 20
-2.386330968438566
 10
2.373818418195899
 20
-2.386330968438566
 10
2.415050718126521
 20
-2.386330968438566
 10
2.437038828160742
 20
-2.353516237542433
 10
2.44878623625161
 20
-2.276043318459794
 10
2.44878623625161
 20
-2.276043318459794
 10
2.477786392199707
 20
-2.089455364769239
 10
2.477786392199707
 20
-2.089455364769239
 10
2.477786392199707
 20
-2.043991187458889
 10
2.439079268773538
 20
-2.006792918428346
 10
2.391772895629275
 20
-2.006792918428346
 97
        0
 97
        0
 92
        1
 93
        1
 72
     4
 94
        3
 73
     0
 74
     1
 95
       29
 96
       25
 40
0.0
 40
0.0
 40
0.0
 40
0.0
 40
1.0
 40
1.0
 40
1.0
 40
2.0
 40
2.0
 40
2.0
 40
3.0
 40
3.0
 40
3.0
 40
4.0
 40
4.0
 40
4.0
 40
5.0
 40
5.0
 40
5.0
 40
6.0
 40
6.0
 40
6.0
 40
7.0
 40
7.0
 40
7.0
 40
8.0
 40
8.0
 40
8.0
 40
8.0
 10
2.407075056090409
 20
-2.259196563636503
 10
2.39781773572943
 20
-2.320248498336392
 10
2.380491200294475
 20
-2.346107486127014
 10
2.347998170842124
 20
-2.346107486127014
 10
2.347998170842124
 20
-2.346107486127014
 10
2.150351905915613
 20
-2.346107486127014
 10
2.150351905915613
 20
-2.346107486127014
 10
2.117860526609395
 20
-2.346107486127014
 10
2.087522588135824
 20
-2.321003366371972
 10
2.079979769709856
 20
-2.259196563636503
 10
2.075519424444944
 20
-2.2226599991996
 10
2.074072246199598
 20
-2.112157864739692
 10
2.074072246199598
 20
-2.112157864739692
 10
2.074072246199598
 20
-2.07632978201477
 10
2.104573549150069
 20
-2.047016400739848
 10
2.141853652821383
 20
-2.047016400739848
 10
2.141853652821383
 20
-2.047016400739848
 10
2.362146524634454
 20
-2.047016400739848
 10
2.362146524634454
 20
-2.047016400739848
 10
2.399426628305592
 20
-2.047016400739848
 10
2.429927931256139
 20
-2.07632978201477
 10
2.429927931256139
 20
-2.112157864739692
 10
2.429927931256139
 20
-2.112157864739692
 10
2.407075056090409
 20
-2.259196563636503
 10
2.407075056090409
 20
-2.259196563636503
 97
        0
 97
        0
 75
     2
 76
     1
 98
        0
  0
ENDBLK
  5
A2
330
9F
100
AcDbEntity
  8
0
100
AcDbBlockEnd
  0
BLOCK
  5
A8
330
A6
100
AcDbEntity
  8
0
100
AcDbBlockBegin
  2
block 7
 70
     0
 10
0.0
 20
0.0
 30
0.0
  3
block 7
  1

  0
SPLINE
  5
AA
330
A6
100
AcDbEntity
  8
Layer 1
370
     0
100
AcDbSpline
210
0.0
220
0.0
230
1.0
 70
    11
 71
     3
 72
    29
 73
    25
 74
     0
 42
0.0000000001
 43
0.0000000001
 12
1.0
 22
0.0
 32
0.0
 13
1.0
 23
0.0
 33
0.0
 40
0.0
 40
0.0
 40
0.0
 40
0.0
 40
1.0
 40
1.0
 40
1.0
 40
2.0
 40
2.0
 40
2.0
 40
3.0
 40
3.0
 40
3.0
 40
4.0
 40
4.0
 40
4.0
 40
5.0
 40
5.0
 40
5.0
 40
6.0
 40
6.0
 40
6.0
 40
7.0
 40
7.0
 40
7.0
 40
8.0
 40
8.0
 40
8.0
 40
8.0
 10
2.551114060596698
 20
-2.0894553647595
 30
0.0
 10
2.551114060596698
 20
-2.0894553647595
 30
0.0
 10
2.580114216536231
 20
-2.27604331845128
 30
0.0
 10
2.580114216536231
 20
-2.27604331845128
 30
0.0
 10
2.591861624623359
 20
-2.35351623753445
 30
0.0
 10
2.613849734655989
 20
-2.386330968431492
 30
0.0
 10
2.655082034586864
 20
-2.386330968433286
 30
0.0
 10
2.655082034586864
 20
-2.386330968433286
 30
0.0
 10
2.905888234852556
 20
-2.386330968444149
 30
0.0
 10
2.905888234852556
 20
-2.386330968444149
 30
0.0
 10
2.947118784834124
 20
-2.386330968445868
 30
0.0
 10
2.985615914373713
 20
-2.354474006578003
 30
0.0
 10
2.995189885726278
 20
-2.276043318469192
 30
0.0
 10
3.000847471063859
 20
-2.229679393258872
 30
0.0
 10
3.002684917591321
 20
-2.089455364778953
 30
0.0
 10
3.002684917591321
 20
-2.089455364778953
 30
0.0
 10
3.002684917593544
 20
-2.043991187468641
 30
0.0
 10
2.963979544118274
 20
-2.006792918436379
 30
0.0
 10
2.91667142102483
 20
-2.006792918434371
 30
0.0
 10
2.91667142102483
 20
-2.006792918434371
 30
0.0
 10
2.637127557170996
 20
-2.00679291842227
 30
0.0
 10
2.637127557170996
 20
-2.00679291842227
 30
0.0
 10
2.589821184026707
 20
-2.006792918420236
 30
0.0
 10
2.551114060598921
 20
-2.043991187449137
 30
0.0
 10
2.551114060596698
 20
-2.0894553647595
 30
0.0
  0
SPLINE
  5
AB
330
A6
100
AcDbEntity
  8
Layer 1
370
     0
100
AcDbSpline
210
0.0
220
0.0
230
1.0
 70
    11
 71
     3
 72
    29
 73
    25
 74
     0
 42
0.0000000001
 43
0.0000000001
 12
1.0
 22
0.0
 32
0.0
 13
1.0
 23
0.0
 33
0.0
 40
0.0
 40
0.0
 40
0.0
 40
0.0
 40
1.0
 40
1.0
 40
1.0
 40
2.0
 40
2.0
 40
2.0
 40
3.0
 40
3.0
 40
3.0
 40
4.0
 40
4.0
 40
4.0
 40
5.0
 40
5.0
 40
5.0
 40
6.0
 40
6.0
 40
6.0
 40
7.0
 40
7.0
 40
7.0
 40
8.0
 40
8.0
 40
8.0
 40
8.0
 10
2.598972521539331
 20
-2.112157864732012
 30
0.0
 10
2.598972521541049
 20
-2.076329782007077
 30
0.0
 10
2.629473824492783
 20
-2.047016400733481
 30
0.0
 10
2.666753928164124
 20
-2.047016400735098
 30
0.0
 10
2.666753928164124
 20
-2.047016400735098
 30
0.0
 10
2.887046799977143
 20
-2.04701640074461
 30
0.0
 10
2.887046799977143
 20
-2.04701640074461
 30
0.0
 10
2.924326903648256
 20
-2.047016400746202
 30
0.0
 10
2.954828206597489
 20
-2.076329782022425
 30
0.0
 10
2.954828206595822
 20
-2.112157864747347
 30
0.0
 10
2.954828206595822
 20
-2.112157864747347
 30
0.0
 10
2.953381028345348
 20
-2.222659999207205
 30
0.0
 10
2.948920683078692
 20
-2.259196563643905
 30
0.0
 10
2.941377864649793
 20
-2.321003366379071
 30
0.0
 10
2.911039926174984
 20
-2.346107486132799
 30
0.0
 10
2.878548546868766
 20
-2.346107486131409
 30
0.0
 10
2.878548546868766
 20
-2.346107486131409
 30
0.0
 10
2.680902281942483
 20
-2.346107486122896
 30
0.0
 10
2.680902281942483
 20
-2.346107486122896
 30
0.0
 10
2.648409252490081
 20
-2.346107486121481
 30
0.0
 10
2.631082717056163
 20
-2.320248498330102
 30
0.0
 10
2.621825396698114
 20
-2.259196563629807
 30
0.0
 10
2.621825396698114
 20
-2.259196563629807
 30
0.0
 10
2.598972521539331
 20
-2.112157864732012
 30
0.0
 10
2.598972521539331
 20
-2.112157864732012
 30
0.0
  0
HATCH
  5
AC
330
A6
100
AcDbEntity
  8
Layer 1
 62
     1
100
AcDbHatch
 10
0.0
 20
0.0
 30
0.0
210
0.0
220
0.0
230
1.0
  2
SOLID
 70
     1
 71
     0
 91
        2
 92
        1
 93
        1
 72
     4
 94
        3
 73
     0
 74
     1
 95
       29
 96
       25
 40
0.0
 40
0.0
 40
0.0
 40
0.0
 40
1.0
 40
1.0
 40
1.0
 40
2.0
 40
2.0
 40
2.0
 40
3.0
 40
3.0
 40
3.0
 40
4.0
 40
4.0
 40
4.0
 40
5.0
 40
5.0
 40
5.0
 40
6.0
 40
6.0
 40
6.0
 40
7.0
 40
7.0
 40
7.0
 40
8.0
 40
8.0
 40
8.0
 40
8.0
 10
2.551114060596698
 20
-2.0894553647595
 10
2.551114060596698
 20
-2.0894553647595
 10
2.580114216536231
 20
-2.27604331845128
 10
2.580114216536231
 20
-2.27604331845128
 10
2.591861624623359
 20
-2.35351623753445
 10
2.613849734655989
 20
-2.386330968431492
 10
2.655082034586864
 20
-2.386330968433286
 10
2.655082034586864
 20
-2.386330968433286
 10
2.905888234852556
 20
-2.386330968444149
 10
2.905888234852556
 20
-2.386330968444149
 10
2.947118784834124
 20
-2.386330968445868
 10
2.985615914373713
 20
-2.354474006578003
 10
2.995189885726278
 20
-2.276043318469192
 10
3.000847471063859
 20
-2.229679393258872
 10
3.002684917591321
 20
-2.089455364778953
 10
3.002684917591321
 20
-2.089455364778953
 10
3.002684917593544
 20
-2.043991187468641
 10
2.963979544118274
 20
-2.006792918436379
 10
2.91667142102483
 20
-2.006792918434371
 10
2.91667142102483
 20
-2.006792918434371
 10
2.637127557170996
 20
-2.00679291842227
 10
2.637127557170996
 20
-2.00679291842227
 10
2.589821184026707
 20
-2.006792918420236
 10
2.551114060598921
 20
-2.043991187449137
 10
2.551114060596698
 20
-2.0894553647595
 97
        0
 97
        0
 92
        1
 93
        1
 72
     4
 94
        3
 73
     0
 74
     1
 95
       29
 96
       25
 40
0.0
 40
0.0
 40
0.0
 40
0.0
 40
1.0
 40
1.0
 40
1.0
 40
2.0
 40
2.0
 40
2.0
 40
3.0
 40
3.0
 40
3.0
 40
4.0
 40
4.0
 40
4.0
 40
5.0
 40
5.0
 40
5.0
 40
6.0
 40
6.0
 40
6.0
 40
7.0
 40
7.0
 40
7.0
 40
8.0
 40
8.0
 40
8.0
 40
8.0
 10
2.598972521539331
 20
-2.112157864732012
 10
2.598972521541049
 20
-2.076329782007077
 10
2.629473824492783
 20
-2.047016400733481
 10
2.666753928164124
 20
-2.047016400735098
 10
2.666753928164124
 20
-2.047016400735098
 10
2.887046799977143
 20
-2.04701640074461
 10
2.887046799977143
 20
-2.04701640074461
 10
2.924326903648256
 20
-2.047016400746202
 10
2.954828206597489
 20
-2.076329782022425
 10
2.954828206595822
 20
-2.112157864747347
 10
2.954828206595822
 20
-2.112157864747347
 10
2.953381028345348
 20
-2.222659999207205
 10
2.948920683078692
 20
-2.259196563643905
 10
2.941377864649793
 20
-2.321003366379071
 10
2.911039926174984
 20
-2.346107486132799
 10
2.878548546868766
 20
-2.346107486131409
 10
2.878548546868766
 20
-2.346107486131409
 10
2.680902281942483
 20
-2.346107486122896
 10
2.680902281942483
 20
-2.346107486122896
 10
2.648409252490081
 20
-2.346107486121481
 10
2.631082717056163
 20
-2.320248498330102
 10
2.621825396698114
 20
-2.259196563629807
 10
2.621825396698114
 20
-2.259196563629807
 10
2.598972521539331
 20
-2.112157864732012
 10
2.598972521539331
 20
-2.112157864732012
 97
        0
 97
        0
 75
     2
 76
     1
 98
        0
  0
ENDBLK
  5
A9
330
A6
100
AcDbEntity
  8
0
100
AcDbBlockEnd
  0
BLOCK
  5
AF
330
AD
100
AcDbEntity
  8
0
100
AcDbBlockBegin
  2
block 8
 70
     0
 10
0.0
 20
0.0
 30
0.0
  3
block 8
  1

  0
SPLINE
  5
B1
330
AD
100
AcDbEntity
  8
Layer 1
370
     0
100
AcDbSpline
210
0.0
220
0.0
230
1.0
 70
    11
 71
     3
 72
    29
 73
    25
 74
     0
 42
0.0000000001
 43
0.0000000001
 12
1.0
 22
0.0
 32
0.0
 13
1.0
 23
0.0
 33
0.0
 40
0.0
 40
0.0
 40
0.0
 40
0.0
 40
1.0
 40
1.0
 40
1.0
 40
2.0
 40
2.0
 40
2.0
 40
3.0
 40
3.0
 40
3.0
 40
4.0
 40
4.0
 40
4.0
 40
5.0
 40
5.0
 40
5.0
 40
6.0
 40
6.0
 40
6.0
 40
7.0
 40
7.0
 40
7.0
 40
8.0
 40
8.0
 40
8.0
 40
8.0
 10
2.536344397322839
 20
-2.069842781760548
 30
0.0
 10
2.536344397322839
 20
-2.069842781760548
 30
0.0
 10
2.565344553262245
 20
-2.256430735452366
 30
0.0
 10
2.565344553262245
 20
-2.256430735452366
 30
0.0
 10
2.577091961349424
 20
-2.333903654535511
 30
0.0
 10
2.599080071382155
 20
-2.366718385432553
 30
0.0
 10
2.640312371312878
 20
-2.366718385434347
 30
0.0
 10
2.640312371312878
 20
-2.366718385434347
 30
0.0
 10
2.89111857157857
 20
-2.366718385445185
 30
0.0
 10
2.89111857157857
 20
-2.366718385445185
 30
0.0
 10
2.93234912156029
 20
-2.366718385446979
 30
0.0
 10
2.970846251099677
 20
-2.334861423579064
 30
0.0
 10
2.980420222452242
 20
-2.256430735470253
 30
0.0
 10
2.986077807789848
 20
-2.210066810259958
 30
0.0
 10
2.987915254317461
 20
-2.069842781780052
 30
0.0
 10
2.987915254317461
 20
-2.069842781780052
 30
0.0
 10
2.987915254319533
 20
-2.024378604469701
 30
0.0
 10
2.949209880844339
 20
-1.98718033543744
 30
0.0
 10
2.901901757750946
 20
-1.987180335435407
 30
0.0
 10
2.901901757750946
 20
-1.987180335435407
 30
0.0
 10
2.622357893897035
 20
-1.987180335423343
 30
0.0
 10
2.622357893897035
 20
-1.987180335423343
 30
0.0
 10
2.575051520752772
 20
-1.987180335421272
 30
0.0
 10
2.536344397324961
 20
-2.02437860445021
 30
0.0
 10
2.536344397322839
 20
-2.069842781760548
 30
0.0
  0
SPLINE
  5
B2
330
AD
100
AcDbEntity
  8
Layer 1
370
     0
100
AcDbSpline
210
0.0
220
0.0
230
1.0
 70
    11
 71
     3
 72
    29
 73
    25
 74
     0
 42
0.0000000001
 43
0.0000000001
 12
1.0
 22
0.0
 32
0.0
 13
1.0
 23
0.0
 33
0.0
 40
0.0
 40
0.0
 40
0.0
 40
0.0
 40
1.0
 40
1.0
 40
1.0
 40
2.0
 40
2.0
 40
2.0
 40
3.0
 40
3.0
 40
3.0
 40
4.0
 40
4.0
 40
4.0
 40
5.0
 40
5.0
 40
5.0
 40
6.0
 40
6.0
 40
6.0
 40
7.0
 40
7.0
 40
7.0
 40
8.0
 40
8.0
 40
8.0
 40
8.0
 10
2.584202858265346
 20
-2.09254528173306
 30
0.0
 10
2.584202858267013
 20
-2.056717199008125
 30
0.0
 10
2.614704161218899
 20
-2.027403817734542
 30
0.0
 10
2.651984264890214
 20
-2.027403817736159
 30
0.0
 10
2.651984264890214
 20
-2.027403817736159
 30
0.0
 10
2.872277136703208
 20
-2.027403817745645
 30
0.0
 10
2.872277136703208
 20
-2.027403817745645
 30
0.0
 10
2.909557240374296
 20
-2.027403817747262
 30
0.0
 10
2.940058543323554
 20
-2.056717199023486
 30
0.0
 10
2.940058543321786
 20
-2.09254528174842
 30
0.0
 10
2.940058543321786
 20
-2.09254528174842
 30
0.0
 10
2.938611365071311
 20
-2.203047416208265
 30
0.0
 10
2.934151019804706
 20
-2.239583980644991
 30
0.0
 10
2.926608201375757
 20
-2.301390783380131
 30
0.0
 10
2.896270262901024
 20
-2.32649490313386
 30
0.0
 10
2.863778883594831
 20
-2.326494903132445
 30
0.0
 10
2.863778883594831
 20
-2.326494903132445
 30
0.0
 10
2.666132618668598
 20
-2.326494903123931
 30
0.0
 10
2.666132618668598
 20
-2.326494903123931
 30
0.0
 10
2.633639589216146
 20
-2.326494903122541
 30
0.0
 10
2.616313053782253
 20
-2.300635915331137
 30
0.0
 10
2.607055733424077
 20
-2.239583980630894
 30
0.0
 10
2.607055733424077
 20
-2.239583980630894
 30
0.0
 10
2.584202858265346
 20
-2.09254528173306
 30
0.0
 10
2.584202858265346
 20
-2.09254528173306
 30
0.0
  0
HATCH
  5
B3
330
AD
100
AcDbEntity
  8
Layer 1
 62
     2
100
AcDbHatch
 10
0.0
 20
0.0
 30
0.0
210
0.0
220
0.0
230
1.0
  2
SOLID
 70
     1
 71
     0
 91
        2
 92
        1
 93
        1
 72
     4
 94
        3
 73
     0
 74
     1
 95
       29
 96
       25
 40
0.0
 40
0.0
 40
0.0
 40
0.0
 40
1.0
 40
1.0
 40
1.0
 40
2.0
 40
2.0
 40
2.0
 40
3.0
 40
3.0
 40
3.0
 40
4.0
 40
4.0
 40
4.0
 40
5.0
 40
5.0
 40
5.0
 40
6.0
 40
6.0
 40
6.0
 40
7.0
 40
7.0
 40
7.0
 40
8.0
 40
8.0
 40
8.0
 40
8.0
 10
2.536344397322839
 20
-2.069842781760548
 10
2.536344397322839
 20
-2.069842781760548
 10
2.565344553262245
 20
-2.256430735452366
 10
2.565344553262245
 20
-2.256430735452366
 10
2.577091961349424
 20
-2.333903654535511
 10
2.599080071382155
 20
-2.366718385432553
 10
2.640312371312878
 20
-2.366718385434347
 10
2.640312371312878
 20
-2.366718385434347
 10
2.89111857157857
 20
-2.366718385445185
 10
2.89111857157857
 20
-2.366718385445185
 10
2.93234912156029
 20
-2.366718385446979
 10
2.970846251099677
 20
-2.334861423579064
 10
2.980420222452242
 20
-2.256430735470253
 10
2.986077807789848
 20
-2.210066810259958
 10
2.987915254317461
 20
-2.069842781780052
 10
2.987915254317461
 20
-2.069842781780052
 10
2.987915254319533
 20
-2.024378604469701
 10
2.949209880844339
 20
-1.98718033543744
 10
2.901901757750946
 20
-1.987180335435407
 10
2.901901757750946
 20
-1.987180335435407
 10
2.622357893897035
 20
-1.987180335423343
 10
2.622357893897035
 20
-1.987180335423343
 10
2.575051520752772
 20
-1.987180335421272
 10
2.536344397324961
 20
-2.02437860445021
 10
2.536344397322839
 20
-2.069842781760548
 97
        0
 97
        0
 92
        1
 93
        1
 72
     4
 94
        3
 73
     0
 74
     1
 95
       29
 96
       25
 40
0.0
 40
0.0
 40
0.0
 40
0.0
 40
1.0
 40
1.0
 40
1.0
 40
2.0
 40
2.0
 40
2.0
 40
3.0
 40
3.0
 40
3.0
 40
4.0
 40
4.0
 40
4.0
 40
5.0
 40
5.0
 40
5.0
 40
6.0
 40
6.0
 40
6.0
 40
7.0
 40
7.0
 40
7.0
 40
8.0
 40
8.0
 40
8.0
 40
8.0
 10
2.584202858265346
 20
-2.09254528173306
 10
2.584202858267013
 20
-2.056717199008125
 10
2.614704161218899
 20
-2.027403817734542
 10
2.651984264890214
 20
-2.027403817736159
 10
2.651984264890214
 20
-2.027403817736159
 10
2.872277136703208
 20
-2.027403817745645
 10
2.872277136703208
 20
-2.027403817745645
 10
2.909557240374296
 20
-2.027403817747262
 10
2.940058543323554
 20
-2.056717199023486
 10
2.940058543321786
 20
-2.09254528174842
 10
2.940058543321786
 20
-2.09254528174842
 10
2.938611365071311
 20
-2.203047416208265
 10
2.934151019804706
 20
-2.239583980644991
 10
2.926608201375757
 20
-2.301390783380131
 10
2.896270262901024
 20
-2.32649490313386
 10
2.863778883594831
 20
-2.326494903132445
 10
2.863778883594831
 20
-2.326494903132445
 10
2.666132618668598
 20
-2.326494903123931
 10
2.666132618668598
 20
-2.326494903123931
 10
2.633639589216146
 20
-2.326494903122541
 10
2.616313053782253
 20
-2.300635915331137
 10
2.607055733424077
 20
-2.239583980630894
 10
2.607055733424077
 20
-2.239583980630894
 10
2.584202858265346
 20
-2.09254528173306
 10
2.584202858265346
 20
-2.09254528173306
 97
        0
 97
        0
 75
     2
 76
     1
 98
        0
  0
ENDBLK
  5
B0
330
AD
100
AcDbEntity
  8
0
100
AcDbBlockEnd
  0
BLOCK
  5
B8
330
B6
100
AcDbEntity
  8
0
100
AcDbBlockBegin
  2
block 9
 70
     0
 10
0.0
 20
0.0
 30
0.0
  3
block 9
  1

  0
SPLINE
  5
BA
330
B6
100
AcDbEntity
  8
Layer 1
370
     0
100
AcDbSpline
210
0.0
220
0.0
230
1.0
 70
    11
 71
     3
 72
    29
 73
    25
 74
     0
 42
0.0000000001
 43
0.0000000001
 12
1.0
 22
0.0
 32
0.0
 13
1.0
 23
0.0
 33
0.0
 40
0.0
 40
0.0
 40
0.0
 40
0.0
 40
1.0
 40
1.0
 40
1.0
 40
2.0
 40
2.0
 40
2.0
 40
3.0
 40
3.0
 40
3.0
 40
4.0
 40
4.0
 40
4.0
 40
5.0
 40
5.0
 40
5.0
 40
6.0
 40
6.0
 40
6.0
 40
7.0
 40
7.0
 40
7.0
 40
8.0
 40
8.0
 40
8.0
 40
8.0
 10
2.381389070643738
 20
-1.987180335429381
 30
0.0
 10
2.381389070643738
 20
-1.987180335429381
 30
0.0
 10
2.101845206789878
 20
-1.987180335429381
 30
0.0
 10
2.101845206789878
 20
-1.987180335429381
 30
0.0
 10
2.054537083696636
 20
-1.987180335429381
 30
0.0
 10
2.015831710219547
 20
-2.024378604459963
 30
0.0
 10
2.015831710219547
 20
-2.0698427817703
 30
0.0
 10
2.015831710219547
 20
-2.0698427817703
 30
0.0
 10
2.01766915674039
 20
-2.210066810250257
 30
0.0
 10
2.023326742075874
 20
-2.256430735460854
 30
0.0
 10
2.032900713424826
 20
-2.33486142357007
 30
0.0
 10
2.071397842962748
 20
-2.366718385439627
 30
0.0
 10
2.112628392944417
 20
-2.366718385439627
 30
0.0
 10
2.112628392944417
 20
-2.366718385439627
 30
0.0
 10
2.363434593210185
 20
-2.366718385439627
 30
0.0
 10
2.363434593210185
 20
-2.366718385439627
 30
0.0
 10
2.404666893140857
 20
-2.366718385439627
 30
0.0
 10
2.42665500317518
 20
-2.333903654543545
 30
0.0
 10
2.438402411265871
 20
-2.256430735460854
 30
0.0
 10
2.438402411265871
 20
-2.256430735460854
 30
0.0
 10
2.467402567214069
 20
-2.0698427817703
 30
0.0
 10
2.467402567214069
 20
-2.0698427817703
 30
0.0
 10
2.467402567214069
 20
-2.024378604459963
 30
0.0
 10
2.428695443788027
 20
-1.987180335429381
 30
0.0
 10
2.381389070643738
 20
-1.987180335429381
 30
0.0
  0
SPLINE
  5
BB
330
B6
100
AcDbEntity
  8
Layer 1
370
     0
100
AcDbSpline
210
0.0
220
0.0
230
1.0
 70
    11
 71
     3
 72
    29
 73
    25
 74
     0
 42
0.0000000001
 43
0.0000000001
 12
1.0
 22
0.0
 32
0.0
 13
1.0
 23
0.0
 33
0.0
 40
0.0
 40
0.0
 40
0.0
 40
0.0
 40
1.0
 40
1.0
 40
1.0
 40
2.0
 40
2.0
 40
2.0
 40
3.0
 40
3.0
 40
3.0
 40
4.0
 40
4.0
 40
4.0
 40
5.0
 40
5.0
 40
5.0
 40
6.0
 40
6.0
 40
6.0
 40
7.0
 40
7.0
 40
7.0
 40
8.0
 40
8.0
 40
8.0
 40
8.0
 10
2.396691231104872
 20
-2.239583980637589
 30
0.0
 10
2.387433910743817
 20
-2.300635915337453
 30
0.0
 10
2.370107375308837
 20
-2.326494903128049
 30
0.0
 10
2.33761434585641
 20
-2.326494903128049
 30
0.0
 10
2.33761434585641
 20
-2.326494903128049
 30
0.0
 10
2.139968080930026
 20
-2.326494903128049
 30
0.0
 10
2.139968080930026
 20
-2.326494903128049
 30
0.0
 10
2.10747670162396
 20
-2.326494903128049
 30
0.0
 10
2.077138763150288
 20
-2.301390783373032
 30
0.0
 10
2.069595944724218
 20
-2.239583980637589
 30
0.0
 10
2.065135599459407
 20
-2.203047416200661
 30
0.0
 10
2.063688421214061
 20
-2.09254528174074
 30
0.0
 10
2.063688421214061
 20
-2.09254528174074
 30
0.0
 10
2.063688421214061
 20
-2.056717199015818
 30
0.0
 10
2.094189724164607
 20
-2.027403817740896
 30
0.0
 10
2.131469827835745
 20
-2.027403817740896
 30
0.0
 10
2.131469827835745
 20
-2.027403817740896
 30
0.0
 10
2.351762699648816
 20
-2.027403817740896
 30
0.0
 10
2.351762699648816
 20
-2.027403817740896
 30
0.0
 10
2.389042803319853
 20
-2.027403817740896
 30
0.0
 10
2.419544106270526
 20
-2.056717199015818
 30
0.0
 10
2.419544106270526
 20
-2.09254528174074
 30
0.0
 10
2.419544106270526
 20
-2.09254528174074
 30
0.0
 10
2.396691231104872
 20
-2.239583980637589
 30
0.0
 10
2.396691231104872
 20
-2.239583980637589
 30
0.0
  0
HATCH
  5
BC
330
B6
100
AcDbEntity
  8
Layer 1
 62
     2
100
AcDbHatch
 10
0.0
 20
0.0
 30
0.0
210
0.0
220
0.0
230
1.0
  2
SOLID
 70
     1
 71
     0
 91
        2
 92
        1
 93
        1
 72
     4
 94
        3
 73
     0
 74
     1
 95
       29
 96
       25
 40
0.0
 40
0.0
 40
0.0
 40
0.0
 40
1.0
 40
1.0
 40
1.0
 40
2.0
 40
2.0
 40
2.0
 40
3.0
 40
3.0
 40
3.0
 40
4.0
 40
4.0
 40
4.0
 40
5.0
 40
5.0
 40
5.0
 40
6.0
 40
6.0
 40
6.0
 40
7.0
 40
7.0
 40
7.0
 40
8.0
 40
8.0
 40
8.0
 40
8.0
 10
2.381389070643738
 20
-1.987180335429381
 10
2.381389070643738
 20
-1.987180335429381
 10
2.101845206789878
 20
-1.987180335429381
 10
2.101845206789878
 20
-1.987180335429381
 10
2.054537083696636
 20
-1.987180335429381
 10
2.015831710219547
 20
-2.024378604459963
 10
2.015831710219547
 20
-2.0698427817703
 10
2.015831710219547
 20
-2.0698427817703
 10
2.01766915674039
 20
-2.210066810250257
 10
2.023326742075874
 20
-2.256430735460854
 10
2.032900713424826
 20
-2.33486142357007
 10
2.071397842962748
 20
-2.366718385439627
 10
2.112628392944417
 20
-2.366718385439627
 10
2.112628392944417
 20
-2.366718385439627
 10
2.363434593210185
 20
-2.366718385439627
 10
2.363434593210185
 20
-2.366718385439627
 10
2.404666893140857
 20
-2.366718385439627
 10
2.42665500317518
 20
-2.333903654543545
 10
2.438402411265871
 20
-2.256430735460854
 10
2.438402411265871
 20
-2.256430735460854
 10
2.467402567214069
 20
-2.0698427817703
 10
2.467402567214069
 20
-2.0698427817703
 10
2.467402567214069
 20
-2.024378604459963
 10
2.428695443788027
 20
-1.987180335429381
 10
2.381389070643738
 20
-1.987180335429381
 97
        0
 97
        0
 92
        1
 93
        1
 72
     4
 94
        3
 73
     0
 74
     1
 95
       29
 96
       25
 40
0.0
 40
0.0
 40
0.0
 40
0.0
 40
1.0
 40
1.0
 40
1.0
 40
2.0
 40
2.0
 40
2.0
 40
3.0
 40
3.0
 40
3.0
 40
4.0
 40
4.0
 40
4.0
 40
5.0
 40
5.0
 40
5.0
 40
6.0
 40
6.0
 40
6.0
 40
7.0
 40
7.0
 40
7.0
 40
8.0
 40
8.0
 40
8.0
 40
8.0
 10
2.396691231104872
 20
-2.239583980637589
 10
2.387433910743817
 20
-2.300635915337453
 10
2.370107375308837
 20
-2.326494903128049
 10
2.33761434585641
 20
-2.326494903128049
 10
2.33761434585641
 20
-2.326494903128049
 10
2.139968080930026
 20
-2.326494903128049
 10
2.139968080930026
 20
-2.326494903128049
 10
2.10747670162396
 20
-2.326494903128049
 10
2.077138763150288
 20
-2.301390783373032
 10
2.069595944724218
 20
-2.239583980637589
 10
2.065135599459407
 20
-2.203047416200661
 10
2.063688421214061
 20
-2.09254528174074
 10
2.063688421214061
 20
-2.09254528174074
 10
2.063688421214061
 20
-2.056717199015818
 10
2.094189724164607
 20
-2.027403817740896
 10
2.131469827835745
 20
-2.027403817740896
 10
2.131469827835745
 20
-2.027403817740896
 10
2.351762699648816
 20
-2.027403817740896
 10
2.351762699648816
 20
-2.027403817740896
 10
2.389042803319853
 20
-2.027403817740896
 10
2.419544106270526
 20
-2.056717199015818
 10
2.419544106270526
 20
-2.09254528174074
 10
2.419544106270526
 20
-2.09254528174074
 10
2.396691231104872
 20
-2.239583980637589
 10
2.396691231104872
 20
-2.239583980637589
 97
        0
 97
        0
 75
     2
 76
     1
 98
        0
  0
ENDBLK
  5
B9
330
B6
100
AcDbEntity
  8
0
100
AcDbBlockEnd
  0
BLOCK
  5
D2
330
D0
100
AcDbEntity
  8
0
100
AcDbBlockBegin
  2
block 10
 70
     0
 10
0.0
 20
0.0
 30
0.0
  3
block 10
  1

  0
SPLINE
  5
D4
330
D0
100
AcDbEntity
  8
Layer 1
370
     0
100
AcDbSpline
210
0.0
220
0.0
230
1.0
 70
    11
 71
     3
 72
    20
 73
    16
 74
     0
 42
0.0000000001
 43
0.0000000001
 12
1.0
 22
0.0
 32
0.0
 13
1.0
 23
0.0
 33
0.0
 40
0.0
 40
0.0
 40
0.0
 40
0.0
 40
1.0
 40
1.0
 40
1.0
 40
2.0
 40
2.0
 40
2.0
 40
3.0
 40
3.0
 40
3.0
 40
4.0
 40
4.0
 40
4.0
 40
5.0
 40
5.0
 40
5.0
 40
5.0
 10
2.301827668637316
 20
-1.323265148672981
 30
0.0
 10
2.227255668030264
 20
-1.33292928409623
 30
0.0
 10
2.175108219059666
 20
-1.340496608024851
 30
0.0
 10
2.175108219059666
 20
-1.340496608024851
 30
0.0
 10
1.943535155826162
 20
-1.354575600396124
 30
0.0
 10
1.898438815982192
 20
-1.443557021135979
 30
0.0
 10
1.878901286663222
 20
-1.526464564099835
 30
0.0
 10
1.85668893019369
 20
-1.620718649568453
 30
0.0
 10
1.839271405799764
 20
-1.911148323068207
 30
0.0
 10
1.839271405799764
 20
-1.911148323068207
 30
0.0
 10
1.839271405799764
 20
-1.911148323068207
 30
0.0
 10
2.019738528451095
 20
-1.897325644035972
 30
0.0
 10
2.019738528451095
 20
-1.897325644035972
 30
0.0
 10
2.155397429466726
 20
-1.79090790036307
 30
0.0
 10
2.293583205039643
 20
-1.612138700860492
 30
0.0
 10
2.301827668637316
 20
-1.323265148672981
 30
0.0
  0
HATCH
  5
D5
330
D0
100
AcDbEntity
  8
Layer 1
 62
     2
100
AcDbHatch
 10
0.0
 20
0.0
 30
0.0
210
0.0
220
0.0
230
1.0
  2
SOLID
 70
     1
 71
     0
 91
        1
 92
        1
 93
        1
 72
     4
 94
        3
 73
     0
 74
     1
 95
       20
 96
       16
 40
0.0
 40
0.0
 40
0.0
 40
0.0
 40
1.0
 40
1.0
 40
1.0
 40
2.0
 40
2.0
 40
2.0
 40
3.0
 40
3.0
 40
3.0
 40
4.0
 40
4.0
 40
4.0
 40
5.0
 40
5.0
 40
5.0
 40
5.0
 10
2.301827668637316
 20
-1.323265148672981
 10
2.227255668030264
 20
-1.33292928409623
 10
2.175108219059666
 20
-1.340496608024851
 10
2.175108219059666
 20
-1.340496608024851
 10
1.943535155826162
 20
-1.354575600396124
 10
1.898438815982192
 20
-1.443557021135979
 10
1.878901286663222
 20
-1.526464564099835
 10
1.85668893019369
 20
-1.620718649568453
 10
1.839271405799764
 20
-1.911148323068207
 10
1.839271405799764
 20
-1.911148323068207
 10
1.839271405799764
 20
-1.911148323068207
 10
2.019738528451095
 20
-1.897325644035972
 10
2.019738528451095
 20
-1.897325644035972
 10
2.155397429466726
 20
-1.79090790036307
 10
2.293583205039643
 20
-1.612138700860492
 10
2.301827668637316
 20
-1.323265148672981
 97
        0
 97
        0
 75
     2
 76
     1
 98
        0
  0
SPLINE
  5
D6
330
D0
100
AcDbEntity
  8
Layer 1
370
     0
100
AcDbSpline
210
0.0
220
0.0
230
1.0
 70
    11
 71
     3
 72
    14
 73
    10
 74
     0
 42
0.0000000001
 43
0.0000000001
 12
1.0
 22
0.0
 32
0.0
 13
1.0
 23
0.0
 33
0.0
 40
0.0
 40
0.0
 40
0.0
 40
0.0
 40
1.0
 40
1.0
 40
1.0
 40
2.0
 40
2.0
 40
2.0
 40
3.0
 40
3.0
 40
3.0
 40
3.0
 10
2.755269273018156
 20
-1.282552320823962
 30
0.0
 10
2.751852736155368
 20
-1.536348363564053
 30
0.0
 10
2.846369135713581
 20
-1.709631615705323
 30
0.0
 10
2.957948752139095
 20
-1.825441746535047
 30
0.0
 10
2.957948752139095
 20
-1.825441746535047
 30
0.0
 10
3.120435741192422
 20
-1.812996517837847
 30
0.0
 10
3.120435741192422
 20
-1.812996517837847
 30
0.0
 10
3.119135315765485
 20
-1.331323884908948
 30
0.0
 10
2.903198505570041
 20
-1.284302548040753
 30
0.0
 10
2.755269273018156
 20
-1.282552320823962
 30
0.0
  0
HATCH
  5
D7
330
D0
100
AcDbEntity
  8
Layer 1
 62
     1
100
AcDbHatch
 10
0.0
 20
0.0
 30
0.0
210
0.0
220
0.0
230
1.0
  2
SOLID
 70
     1
 71
     0
 91
        1
 92
        1
 93
        1
 72
     4
 94
        3
 73
     0
 74
     1
 95
       14
 96
       10
 40
0.0
 40
0.0
 40
0.0
 40
0.0
 40
1.0
 40
1.0
 40
1.0
 40
2.0
 40
2.0
 40
2.0
 40
3.0
 40
3.0
 40
3.0
 40
3.0
 10
2.755269273018156
 20
-1.282552320823962
 10
2.751852736155368
 20
-1.536348363564053
 10
2.846369135713581
 20
-1.709631615705323
 10
2.957948752139095
 20
-1.825441746535047
 10
2.957948752139095
 20
-1.825441746535047
 10
3.120435741192422
 20
-1.812996517837847
 10
3.120435741192422
 20
-1.812996517837847
 10
3.119135315765485
 20
-1.331323884908948
 10
2.903198505570041
 20
-1.284302548040753
 10
2.755269273018156
 20
-1.282552320823962
 97
        0
 97
        0
 75
     2
 76
     1
 98
        0
  0
ENDBLK
  5
D3
330
D0
100
AcDbEntity
  8
0
100
AcDbBlockEnd
  0
BLOCK
  5
E2
330
E0
100
AcDbEntity
  8
0
100
AcDbBlockBegin
  2
block 11
 70
     0
 10
0.0
 20
0.0
 30
0.0
  3
block 11
  1

  0
SPLINE
  5
E4
330
E0
100
AcDbEntity
  8
Layer 1
370
     0
100
AcDbSpline
210
0.0
220
0.0
230
1.0
 70
    11
 71
     3
 72
    23
 73
    19
 74
     0
 42
0.0000000001
 43
0.0000000001
 12
1.0
 22
0.0
 32
0.0
 13
1.0
 23
0.0
 33
0.0
 40
0.0
 40
0.0
 40
0.0
 40
0.0
 40
1.0
 40
1.0
 40
1.0
 40
2.0
 40
2.0
 40
2.0
 40
3.0
 40
3.0
 40
3.0
 40
4.0
 40
4.0
 40
4.0
 40
5.0
 40
5.0
 40
5.0
 40
6.0
 40
6.0
 40
6.0
 40
6.0
 10
3.442183612761255
 20
-1.844584847529632
 30
0.0
 10
3.442191510108235
 20
-1.844334427793961
 30
0.0
 10
3.442256199428534
 20
-1.844082507885635
 30
0.0
 10
3.442239780219804
 20
-1.843833078379235
 30
0.0
 10
3.439126435795995
 20
-1.796537256978505
 30
0.0
 10
3.01232722102044
 20
-1.783991585656142
 30
0.0
 10
2.48895673216556
 20
-1.815811347798634
 30
0.0
 10
1.965586243310604
 20
-1.847631109941138
 30
0.0
 10
1.543834734980515
 20
-1.911766778693656
 30
0.0
 10
1.5469480794044
 20
-1.959062600094373
 30
0.0
 10
1.546964498613129
 20
-1.95931202960076
 30
0.0
 10
1.547061706288332
 20
-1.959554106531691
 30
0.0
 10
1.547102378040209
 20
-1.959801573374143
 30
0.0
 10
1.735792516427611
 20
-1.924735725270188
 30
0.0
 10
2.087842397890856
 20
-1.887479261120663
 30
0.0
 10
2.492056697974804
 20
-1.862903930342251
 30
0.0
 10
2.896270998058779
 20
-1.838328599563864
 30
0.0
 10
3.250399621759091
 20
-1.832650980606028
 30
0.0
 10
3.442183612761255
 20
-1.844584847529632
 30
0.0
  0
HATCH
  5
E5
330
E0
100
AcDbEntity
  8
Layer 1
 62
     2
100
AcDbHatch
 10
0.0
 20
0.0
 30
0.0
210
0.0
220
0.0
230
1.0
  2
SOLID
 70
     1
 71
     0
 91
        1
 92
        1
 93
        1
 72
     4
 94
        3
 73
     0
 74
     1
 95
       23
 96
       19
 40
0.0
 40
0.0
 40
0.0
 40
0.0
 40
1.0
 40
1.0
 40
1.0
 40
2.0
 40
2.0
 40
2.0
 40
3.0
 40
3.0
 40
3.0
 40
4.0
 40
4.0
 40
4.0
 40
5.0
 40
5.0
 40
5.0
 40
6.0
 40
6.0
 40
6.0
 40
6.0
 10
3.442183612761255
 20
-1.844584847529632
 10
3.442191510108235
 20
-1.844334427793961
 10
3.442256199428534
 20
-1.844082507885635
 10
3.442239780219804
 20
-1.843833078379235
 10
3.439126435795995
 20
-1.796537256978505
 10
3.01232722102044
 20
-1.783991585656142
 10
2.48895673216556
 20
-1.815811347798634
 10
1.965586243310604
 20
-1.847631109941138
 10
1.543834734980515
 20
-1.911766778693656
 10
1.5469480794044
 20
-1.959062600094373
 10
1.546964498613129
 20
-1.95931202960076
 10
1.547061706288332
 20
-1.959554106531691
 10
1.547102378040209
 20
-1.959801573374143
 10
1.735792516427611
 20
-1.924735725270188
 10
2.087842397890856
 20
-1.887479261120663
 10
2.492056697974804
 20
-1.862903930342251
 10
2.896270998058779
 20
-1.838328599563864
 10
3.250399621759091
 20
-1.832650980606028
 10
3.442183612761255
 20
-1.844584847529632
 97
        0
 97
        0
 75
     2
 76
     1
 98
        0
  0
ENDBLK
  5
E3
330
E0
100
AcDbEntity
  8
0
100
AcDbBlockEnd
  0
BLOCK
  5
E8
330
E6
100
AcDbEntity
  8
0
100
AcDbBlockBegin
  2
block 12
 70
     0
 10
0.0
 20
0.0
 30
0.0
  3
block 12
  1

  0
SPLINE
  5
EA
330
E6
100
AcDbEntity
  8
Layer 1
370
     0
100
AcDbSpline
210
0.0
220
0.0
230
1.0
 70
    11
 71
     3
 72
    17
 73
    13
 74
     0
 42
0.0000000001
 43
0.0000000001
 12
1.0
 22
0.0
 32
0.0
 13
1.0
 23
0.0
 33
0.0
 40
0.0
 40
0.0
 40
0.0
 40
0.0
 40
1.0
 40
1.0
 40
1.0
 40
2.0
 40
2.0
 40
2.0
 40
3.0
 40
3.0
 40
3.0
 40
4.0
 40
4.0
 40
4.0
 40
4.0
 10
1.54694806975067
 20
-1.95900718879654
 30
0.0
 10
1.546965590452398
 20
-1.959256486259531
 30
0.0
 10
1.547062927684945
 20
-1.959498767846488
 30
0.0
 10
1.547101862577948
 20
-1.9597461944092
 30
0.0
 10
1.705712883030729
 20
-1.930270628140773
 30
0.0
 10
1.979765861297109
 20
-1.899249698236758
 30
0.0
 10
2.303184390427305
 20
-1.875511247692935
 30
0.0
 10
2.303184390427305
 20
-1.875511247692935
 30
0.0
 10
2.345720761055039
 20
-1.825441746535047
 30
0.0
 10
2.345720761055039
 20
-1.825441746535047
 30
0.0
 10
1.890760695846236
 20
-1.859369120032145
 30
0.0
 10
1.544125290006453
 20
-1.916113525682577
 30
0.0
 10
1.54694806975067
 20
-1.95900718879654
 30
0.0
  0
HATCH
  5
EB
330
E6
100
AcDbEntity
  8
Layer 1
 62
     1
100
AcDbHatch
 10
0.0
 20
0.0
 30
0.0
210
0.0
220
0.0
230
1.0
  2
SOLID
 70
     1
 71
     0
 91
        1
 92
        1
 93
        1
 72
     4
 94
        3
 73
     0
 74
     1
 95
       17
 96
       13
 40
0.0
 40
0.0
 40
0.0
 40
0.0
 40
1.0
 40
1.0
 40
1.0
 40
2.0
 40
2.0
 40
2.0
 40
3.0
 40
3.0
 40
3.0
 40
4.0
 40
4.0
 40
4.0
 40
4.0
 10
1.54694806975067
 20
-1.95900718879654
 10
1.546965590452398
 20
-1.959256486259531
 10
1.547062927684945
 20
-1.959498767846488
 10
1.547101862577948
 20
-1.9597461944092
 10
1.705712883030729
 20
-1.930270628140773
 10
1.979765861297109
 20
-1.899249698236758
 10
2.303184390427305
 20
-1.875511247692935
 10
2.303184390427305
 20
-1.875511247692935
 10
2.345720761055039
 20
-1.825441746535047
 10
2.345720761055039
 20
-1.825441746535047
 10
1.890760695846236
 20
-1.859369120032145
 10
1.544125290006453
 20
-1.916113525682577
 10
1.54694806975067
 20
-1.95900718879654
 97
        0
 97
        0
 75
     2
 76
     1
 98
        0
  0
ENDBLK
  5
E9
330
E6
100
AcDbEntity
  8
0
100
AcDbBlockEnd
  0
BLOCK
  5
124
330
122
100
AcDbEntity
  8
0
100
AcDbBlockBegin
  2
block 13
 70
     0
 10
0.0
 20
0.0
 30
0.0
  3
block 13
  1

  0
POLYLINE
  5
126
330
122
100
AcDbEntity
  8
Layer 1
370
     0
100
AcDb2dPolyline
 66
     1
 10
0.0
 20
0.0
 30
0.0
  0
VERTEX
  5
127
330
126
100
AcDbEntity
  8
Layer 1
370
     0
100
AcDbVertex
100
AcDb2dVertex
 10
2.264203607937361
 20
-3.272067958980339
 30
0.0
  0
VERTEX
  5
128
330
126
100
AcDbEntity
  8
Layer 1
370
     0
100
AcDbVertex
100
AcDb2dVertex
 10
2.07575872570558
 20
-3.570111261190656
 30
0.0
  0
VERTEX
  5
129
330
126
100
AcDbEntity
  8
Layer 1
370
     0
100
AcDbVertex
100
AcDb2dVertex
 10
2.379359394287045
 20
-3.70678052702538
 30
0.0
  0
VERTEX
  5
12A
330
126
100
AcDbEntity
  8
Layer 1
370
     0
100
AcDbVertex
100
AcDb2dVertex
 10
2.469188032725267
 20
-3.70678052702538
 30
0.0
  0
VERTEX
  5
12B
330
126
100
AcDbEntity
  8
Layer 1
370
     0
100
AcDbVertex
100
AcDb2dVertex
 10
2.264203607937361
 20
-3.272067958980339
 30
0.0
  0
SEQEND
  5
12D
330
126
100
AcDbEntity
  8
Layer 1
370
     0
  0
HATCH
  5
12C
330
122
100
AcDbEntity
  8
Layer 1
 62
     7
100
AcDbHatch
 10
0.0
 20
0.0
 30
0.0
210
0.0
220
0.0
230
1.0
  2
SOLID
 70
     1
 71
     0
 91
        1
 92
        1
 93
        4
 72
     1
 10
2.264203607937361
 20
-3.272067958980339
 11
2.07575872570558
 21
-3.570111261190656
 72
     1
 10
2.07575872570558
 20
-3.570111261190656
 11
2.379359394287045
 21
-3.70678052702538
 72
     1
 10
2.379359394287045
 20
-3.70678052702538
 11
2.469188032725267
 21
-3.70678052702538
 72
     1
 10
2.469188032725267
 20
-3.70678052702538
 11
2.264203607937361
 21
-3.272067958980339
 97
        0
 75
     2
 76
     1
 98
        0
  0
POLYLINE
  5
12E
330
122
100
AcDbEntity
  8
Layer 1
370
     0
100
AcDb2dPolyline
 66
     1
 10
0.0
 20
0.0
 30
0.0
  0
VERTEX
  5
12F
330
12E
100
AcDbEntity
  8
Layer 1
370
     0
100
AcDbVertex
100
AcDb2dVertex
 10
2.916686225686261
 20
-3.570111261190656
 30
0.0
  0
VERTEX
  5
130
330
12E
100
AcDbEntity
  8
Layer 1
370
     0
100
AcDbVertex
100
AcDb2dVertex
 10
2.728241343454455
 20
-3.272067958980339
 30
0.0
  0
VERTEX
  5
131
330
12E
100
AcDbEntity
  8
Layer 1
370
     0
100
AcDbVertex
100
AcDb2dVertex
 10
2.523256918666448
 20
-3.70678052702538
 30
0.0
  0
VERTEX
  5
132
330
12E
100
AcDbEntity
  8
Layer 1
370
     0
100
AcDbVertex
100
AcDb2dVertex
 10
2.61308750384948
 20
-3.70678052702538
 30
0.0
  0
VERTEX
  5
133
330
12E
100
AcDbEntity
  8
Layer 1
370
     0
100
AcDbVertex
100
AcDb2dVertex
 10
2.916686225686261
 20
-3.570111261190656
 30
0.0
  0
SEQEND
  5
135
330
12E
100
AcDbEntity
  8
Layer 1
370
     0
  0
HATCH
  5
134
330
122
100
AcDbEntity
  8
Layer 1
 62
     7
100
AcDbHatch
 10
0.0
 20
0.0
 30
0.0
210
0.0
220
0.0
230
1.0
  2
SOLID
 70
     1
 71
     0
 91
        1
 92
        1
 93
        4
 72
     1
 10
2.916686225686261
 20
-3.570111261190656
 11
2.728241343454455
 21
-3.272067958980339
 72
     1
 10
2.728241343454455
 20
-3.272067958980339
 11
2.523256918666448
 21
-3.70678052702538
 72
     1
 10
2.523256918666448
 20
-3.70678052702538
 11
2.61308750384948
 21
-3.70678052702538
 72
     1
 10
2.61308750384948
 20
-3.70678052702538
 11
2.916686225686261
 21
-3.570111261190656
 97
        0
 75
     2
 76
     1
 98
        0
  0
ENDBLK
  5
125
330
122
100
AcDbEntity
  8
0
100
AcDbBlockEnd
  0
ENDSEC
  0
SECTION
  2
ENTITIES
  0
INSERT
  5
42
330
1F
100
AcDbEntity
  8
Layer 1
100
AcDbBlockReference
  2
block 2
 10
0.0
 20
0.0
 30
0.0
  0
ENDSEC
  0
SECTION
  2
OBJECTS
  0
DICTIONARY
  5
C
330
0
100
AcDbDictionary
281
     1
  3
ACAD_GROUP
350
D
  3
ACAD_LAYOUT
350
1A
  3
ACAD_MATERIAL
350
3B
  3
ACAD_MLEADERSTYLE
350
138
  3
ACAD_MLINESTYLE
350
17
  3
ACAD_PLOTSETTINGS
350
19
  3
ACAD_PLOTSTYLENAME
350
E
  3
ACAD_TABLESTYLE
350
137
  3
ACAD_VISUALSTYLE
350
2A
  0
SUN
  5
3F
330
29
100
AcDbSun
 90
        1
290
     0
 63
     7
421
 16777215
 40
1.0
291
     1
 91
  2455826
 92
 54000000
292
     0
 70
     2
 71
   256
280
     1
  0
DICTIONARY
  5
D
102
{ACAD_REACTORS
330
C
102
}
330
C
100
AcDbDictionary
281
     1
  0
DICTIONARY
  5
1A
102
{ACAD_REACTORS
330
C
102
}
330
C
100
AcDbDictionary
281
     1
  3
Layout1
350
1E
  3
Layout2
350
26
  3
Model
350
22
  0
DICTIONARY
  5
3B
102
{ACAD_REACTORS
330
C
102
}
330
C
100
AcDbDictionary
281
     1
  3
ByBlock
350
3D
  3
ByLayer
350
3C
  3
Global
350
3E
  0
DICTIONARY
  5
138
102
{ACAD_REACTORS
330
C
102
}
330
C
100
AcDbDictionary
281
     1
  0
DICTIONARY
  5
17
102
{ACAD_REACTORS
330
C
102
}
330
C
100
AcDbDictionary
281
     1
  3
Standard
350
18
  0
DICTIONARY
  5
19
102
{ACAD_REACTORS
330
C
102
}
330
C
100
AcDbDictionary
281
     1
  0
ACDBDICTIONARYWDFLT
  5
E
102
{ACAD_REACTORS
330
C
102
}
330
C
100
AcDbDictionary
281
     1
  3
Normal
350
F
100
AcDbDictionaryWithDefault
340
F
  0
DICTIONARY
  5
137
102
{ACAD_REACTORS
330
C
102
}
330
C
100
AcDbDictionary
281
     1
  0
DICTIONARY
  5
2A
102
{ACAD_REACTORS
330
C
102
}
330
C
100
AcDbDictionary
281
     1
  3
2dWireframe
350
2F
  3
3D Hidden
350
31
  3
3dWireframe
350
30
  3
Basic
350
32
  3
Brighten
350
36
  3
ColorChange
350
3A
  3
Conceptual
350
34
  3
Dim
350
35
  3
Facepattern
350
39
  3
Flat
350
2B
  3
FlatWithEdges
350
2C
  3
Gouraud
350
2D
  3
GouraudWithEdges
350
2E
  3
Linepattern
350
38
  3
Realistic
350
33
  3
Thicken
350
37
  0
LAYOUT
  5
1E
102
{ACAD_REACTORS
330
1A
102
}
330
1A
100
AcDbPlotSettings
  1

  2
none_device
  4

  6

 40
0.0
 41
0.0
 42
0.0
 43
0.0
 44
0.0
 45
0.0
 46
0.0
 47
0.0
 48
0.0
 49
0.0
140
0.0
141
0.0
142
1.0
143
1.0
 70
   688
 72
     0
 73
     0
 74
     5
  7

 75
    16
 76
     0
 77
     2
 78
   300
147
1.0
148
0.0
149
0.0
100
AcDbLayout
  1
Layout1
 70
     1
 71
     1
 10
0.0
 20
0.0
 11
12.0
 21
9.0
 12
0.0
 22
0.0
 32
0.0
 14
1.000000000000000E+20
 24
1.000000000000000E+20
 34
1.000000000000000E+20
 15
-1.000000000000000E+20
 25
-1.000000000000000E+20
 35
-1.000000000000000E+20
146
0.0
 13
0.0
 23
0.0
 33
0.0
 16
1.0
 26
0.0
 36
0.0
 17
0.0
 27
1.0
 37
0.0
 76
     0
330
1B
  0
LAYOUT
  5
26
102
{ACAD_REACTORS
330
1A
102
}
330
1A
100
AcDbPlotSettings
  1

  2
none_device
  4

  6

 40
0.0
 41
0.0
 42
0.0
 43
0.0
 44
0.0
 45
0.0
 46
0.0
 47
0.0
 48
0.0
 49
0.0
140
0.0
141
0.0
142
1.0
143
1.0
 70
   688
 72
     0
 73
     0
 74
     5
  7

 75
    16
 76
     0
 77
     2
 78
   300
147
1.0
148
0.0
149
0.0
100
AcDbLayout
  1
Layout2
 70
     1
 71
     2
 10
0.0
 20
0.0
 11
0.0
 21
0.0
 12
0.0
 22
0.0
 32
0.0
 14
0.0
 24
0.0
 34
0.0
 15
0.0
 25
0.0
 35
0.0
146
0.0
 13
0.0
 23
0.0
 33
0.0
 16
1.0
 26
0.0
 36
0.0
 17
0.0
 27
1.0
 37
0.0
 76
     0
330
23
  0
LAYOUT
  5
22
102
{ACAD_REACTORS
330
1A
102
}
330
1A
100
AcDbPlotSettings
  1

  2
none_device
  4

  6

 40
0.0
 41
0.0
 42
0.0
 43
0.0
 44
0.0
 45
0.0
 46
0.0
 47
0.0
 48
0.0
 49
0.0
140
0.0
141
0.0
142
1.0
143
1.0
 70
  1712
 72
     0
 73
     0
 74
     0
  7

 75
     0
 76
     0
 77
     2
 78
   300
147
1.0
148
0.0
149
0.0
100
AcDbLayout
  1
Model
 70
     1
 71
     0
 10
0.0
 20
0.0
 11
12.0
 21
9.0
 12
0.0
 22
0.0
 32
0.0
 14
1.000000000000000E+20
 24
1.000000000000000E+20
 34
1.000000000000000E+20
 15
-1.000000000000000E+20
 25
-1.000000000000000E+20
 35
-1.000000000000000E+20
146
0.0
 13
0.0
 23
0.0
 33
0.0
 16
1.0
 26
0.0
 36
0.0
 17
0.0
 27
1.0
 37
0.0
 76
     0
330
1F
331
29
  0
MATERIAL
  5
3D
102
{ACAD_REACTORS
330
3B
102
}
330
3B
100
AcDbMaterial
  1
ByBlock
 72
     1
 94
      127
  0
MATERIAL
  5
3C
102
{ACAD_REACTORS
330
3B
102
}
330
3B
100
AcDbMaterial
  1
ByLayer
 72
     1
 94
      127
  0
MATERIAL
  5
3E
102
{ACAD_REACTORS
330
3B
102
}
330
3B
100
AcDbMaterial
  1
Global
 72
     1
 94
      127
  0
MLINESTYLE
  5
18
102
{ACAD_REACTORS
330
17
102
}
330
17
100
AcDbMlineStyle
  2
Standard
 70
     0
  3

 62
   256
 51
90.0
 52
90.0
 71
     2
 49
0.5
 62
   256
  6
BYLAYER
 49
-0.5
 62
   256
  6
BYLAYER
  0
ACDBPLACEHOLDER
  5
F
102
{ACAD_REACTORS
330
E
102
}
330
E
  0
VISUALSTYLE
  5
2F
102
{ACAD_REACTORS
330
2A
102
}
330
2A
100
AcDbVisualStyle
  2
2dWireframe
 70
     4
177
     2
291
     0
 71
     0
176
     1
 72
     2
176
     1
 73
     0
176
     1
 90
        0
176
     1
 40
-0.6
176
     1
 41
-30.0
176
     1
 62
     5
 63
     7
421
 16777215
176
     1
 74
     1
176
     1
 91
        4
176
     1
 64
     7
176
     1
 65
   257
176
     1
 75
     1
176
     1
175
     1
176
     1
 42
1.0
176
     1
 92
        0
176
     1
 66
   257
176
     1
 43
1.0
176
     1
 76
     1
176
     1
 77
     6
176
     1
 78
     2
176
     1
 67
     7
176
     1
 79
     5
176
     1
170
     0
176
     1
171
     0
176
     1
290
     0
176
     1
 93
        1
176
     1
 44
0.0
176
     1
173
     0
176
     1
  0
VISUALSTYLE
  5
31
102
{ACAD_REACTORS
330
2A
102
}
330
2A
100
AcDbVisualStyle
  2
3D Hidden
 70
     6
177
     2
291
     0
 71
     1
176
     1
 72
     2
176
     1
 73
     2
176
     1
 90
        0
176
     1
 40
-0.6
176
     1
 41
-30.0
176
     1
 62
     5
 63
     7
421
 16777215
176
     1
 74
     2
176
     1
 91
        2
176
     1
 64
     7
176
     1
 65
   257
176
     1
 75
     2
176
     1
175
     1
176
     1
 42
40.0
176
     1
 92
        0
176
     1
 66
   257
176
     1
 43
1.0
176
     1
 76
     1
176
     1
 77
     6
176
     1
 78
     2
176
     1
 67
     7
176
     1
 79
     3
176
     1
170
     0
176
     1
171
     0
176
     1
290
     0
176
     1
 93
        1
176
     1
 44
0.0
176
     1
173
     0
176
     1
  0
VISUALSTYLE
  5
30
102
{ACAD_REACTORS
330
2A
102
}
330
2A
100
AcDbVisualStyle
  2
3dWireframe
 70
     5
177
     2
291
     0
 71
     0
176
     1
 72
     2
176
     1
 73
     0
176
     1
 90
        0
176
     1
 40
-0.6
176
     1
 41
-30.0
176
     1
 62
     5
 63
     7
421
 16777215
176
     1
 74
     1
176
     1
 91
        4
176
     1
 64
     7
176
     1
 65
   257
176
     1
 75
     1
176
     1
175
     1
176
     1
 42
1.0
176
     1
 92
        0
176
     1
 66
   257
176
     1
 43
1.0
176
     1
 76
     1
176
     1
 77
     6
176
     1
 78
     2
176
     1
 67
     7
176
     1
 79
     5
176
     1
170
     0
176
     1
171
     0
176
     1
290
     0
176
     1
 93
        1
176
     1
 44
0.0
176
     1
173
     0
176
     1
  0
VISUALSTYLE
  5
32
102
{ACAD_REACTORS
330
2A
102
}
330
2A
100
AcDbVisualStyle
  2
Basic
 70
     7
177
     2
291
     1
 71
     1
176
     1
 72
     0
176
     1
 73
     1
176
     1
 90
        0
176
     1
 40
-0.6
176
     1
 41
-30.0
176
     1
 62
     5
 63
     7
421
 16777215
176
     1
 74
     0
176
     1
 91
        4
176
     1
 64
     7
176
     1
 65
   257
176
     1
 75
     1
176
     1
175
     1
176
     1
 42
1.0
176
     1
 92
        8
176
     1
 66
     7
176
     1
 43
1.0
176
     1
 76
     1
176
     1
 77
     6
176
     1
 78
     2
176
     1
 67
     7
176
     1
 79
     5
176
     1
170
     0
176
     1
171
     0
176
     1
290
     0
176
     1
 93
        1
176
     1
 44
0.0
176
     1
173
     0
176
     1
  0
VISUALSTYLE
  5
36
102
{ACAD_REACTORS
330
2A
102
}
330
2A
100
AcDbVisualStyle
  2
Brighten
 70
    12
177
     2
291
     1
 71
     2
176
     1
 72
     2
176
     1
 73
     0
176
     1
 90
        0
176
     1
 40
-0.6
176
     1
 41
-30.0
176
     1
 62
     5
 63
     7
421
 16777215
176
     1
 74
     1
176
     1
 91
        4
176
     1
 64
     7
176
     1
 65
   257
176
     1
 75
     1
176
     1
175
     1
176
     1
 42
1.0
176
     1
 92
        8
176
     1
 66
     7
176
     1
 43
1.0
176
     1
 76
     1
176
     1
 77
     6
176
     1
 78
     2
176
     1
 67
     7
176
     1
 79
     5
176
     1
170
     0
176
     1
171
     0
176
     1
290
     0
176
     1
 93
        1
176
     1
 44
50.0
176
     1
173
     0
176
     1
  0
VISUALSTYLE
  5
3A
102
{ACAD_REACTORS
330
2A
102
}
330
2A
100
AcDbVisualStyle
  2
ColorChange
 70
    16
177
     2
291
     1
 71
     2
176
     1
 72
     2
176
     1
 73
     3
176
     1
 90
        0
176
     1
 40
-0.6
176
     1
 41
-30.0
176
     1
 62
     5
 63
     8
421
  8421504
176
     1
 74
     1
176
     1
 91
        4
176
     1
 64
     7
176
     1
 65
   257
176
     1
 75
     1
176
     1
175
     1
176
     1
 42
1.0
176
     1
 92
        8
176
     1
 66
     8
424
  8421504
176
     1
 43
1.0
176
     1
 76
     1
176
     1
 77
     6
176
     1
 78
     2
176
     1
 67
     7
176
     1
 79
     5
176
     1
170
     0
176
     1
171
     0
176
     1
290
     0
176
     1
 93
        1
176
     1
 44
0.0
176
     1
173
     0
176
     1
  0
VISUALSTYLE
  5
34
102
{ACAD_REACTORS
330
2A
102
}
330
2A
100
AcDbVisualStyle
  2
Conceptual
 70
     9
177
     2
291
     0
 71
     3
176
     1
 72
     2
176
     1
 73
     0
176
     1
 90
        0
176
     1
 40
-0.6
176
     1
 41
-30.0
176
     1
 62
     5
 63
     7
421
 16777215
176
     1
 74
     2
176
     1
 91
        2
176
     1
 64
     7
176
     1
 65
   257
176
     1
 75
     1
176
     1
175
     1
176
     1
 42
40.0
176
     1
 92
        8
176
     1
 66
     7
176
     1
 43
1.0
176
     1
 76
     1
176
     1
 77
     6
176
     1
 78
     2
176
     1
 67
     7
176
     1
 79
     3
176
     1
170
     0
176
     1
171
     0
176
     1
290
     0
176
     1
 93
        1
176
     1
 44
0.0
176
     1
173
     0
176
     1
  0
VISUALSTYLE
  5
35
102
{ACAD_REACTORS
330
2A
102
}
330
2A
100
AcDbVisualStyle
  2
Dim
 70
    11
177
     2
291
     1
 71
     2
176
     1
 72
     2
176
     1
 73
     0
176
     1
 90
        0
176
     1
 40
-0.6
176
     1
 41
-30.0
176
     1
 62
     5
 63
     7
421
 16777215
176
     1
 74
     1
176
     1
 91
        4
176
     1
 64
     7
176
     1
 65
   257
176
     1
 75
     1
176
     1
175
     1
176
     1
 42
1.0
176
     1
 92
        8
176
     1
 66
     7
176
     1
 43
1.0
176
     1
 76
     1
176
     1
 77
     6
176
     1
 78
     2
176
     1
 67
     7
176
     1
 79
     5
176
     1
170
     0
176
     1
171
     0
176
     1
290
     0
176
     1
 93
        1
176
     1
 44
-50.0
176
     1
173
     0
176
     1
  0
VISUALSTYLE
  5
39
102
{ACAD_REACTORS
330
2A
102
}
330
2A
100
AcDbVisualStyle
  2
Facepattern
 70
    15
177
     2
291
     1
 71
     2
176
     1
 72
     2
176
     1
 73
     0
176
     1
 90
        0
176
     1
 40
-0.6
176
     1
 41
-30.0
176
     1
 62
     5
 63
     7
421
 16777215
176
     1
 74
     1
176
     1
 91
        4
176
     1
 64
     7
176
     1
 65
   257
176
     1
 75
     1
176
     1
175
     1
176
     1
 42
1.0
176
     1
 92
        8
176
     1
 66
     7
176
     1
 43
1.0
176
     1
 76
     1
176
     1
 77
     6
176
     1
 78
     2
176
     1
 67
     7
176
     1
 79
     5
176
     1
170
     0
176
     1
171
     0
176
     1
290
     0
176
     1
 93
        1
176
     1
 44
0.0
176
     1
173
     0
176
     1
  0
VISUALSTYLE
  5
2B
102
{ACAD_REACTORS
330
2A
102
}
330
2A
100
AcDbVisualStyle
  2
Flat
 70
     0
177
     2
291
     1
 71
     2
176
     1
 72
     1
176
     1
 73
     1
176
     1
 90
        2
176
     1
 40
-0.6
176
     1
 41
30.0
176
     1
 62
     5
 63
     7
421
 16777215
176
     1
 74
     0
176
     1
 91
        4
176
     1
 64
     7
176
     1
 65
   257
176
     1
 75
     1
176
     1
175
     1
176
     1
 42
1.0
176
     1
 92
        8
176
     1
 66
     7
176
     1
 43
1.0
176
     1
 76
     1
176
     1
 77
     6
176
     1
 78
     2
176
     1
 67
     7
176
     1
 79
     5
176
     1
170
     0
176
     1
171
     0
176
     1
290
     0
176
     1
 93
       13
176
     1
 44
0.0
176
     1
173
     0
176
     1
  0
VISUALSTYLE
  5
2C
102
{ACAD_REACTORS
330
2A
102
}
330
2A
100
AcDbVisualStyle
  2
FlatWithEdges
 70
     1
177
     2
291
     1
 71
     2
176
     1
 72
     1
176
     1
 73
     1
176
     1
 90
        2
176
     1
 40
-0.6
176
     1
 41
30.0
176
     1
 62
     5
 63
     7
421
 16777215
176
     1
 74
     1
176
     1
 91
        4
176
     1
 64
     7
176
     1
 65
   257
176
     1
 75
     1
176
     1
175
     1
176
     1
 42
1.0
176
     1
 92
        0
176
     1
 66
   257
176
     1
 43
1.0
176
     1
 76
     1
176
     1
 77
     6
176
     1
 78
     2
176
     1
 67
     7
176
     1
 79
     5
176
     1
170
     0
176
     1
171
     0
176
     1
290
     0
176
     1
 93
       13
176
     1
 44
0.0
176
     1
173
     0
176
     1
  0
VISUALSTYLE
  5
2D
102
{ACAD_REACTORS
330
2A
102
}
330
2A
100
AcDbVisualStyle
  2
Gouraud
 70
     2
177
     2
291
     1
 71
     2
176
     1
 72
     2
176
     1
 73
     1
176
     1
 90
        2
176
     1
 40
-0.6
176
     1
 41
30.0
176
     1
 62
     5
 63
     7
421
 16777215
176
     1
 74
     0
176
     1
 91
        4
176
     1
 64
     7
176
     1
 65
   257
176
     1
 75
     1
176
     1
175
     1
176
     1
 42
1.0
176
     1
 92
        0
176
     1
 66
     7
176
     1
 43
1.0
176
     1
 76
     1
176
     1
 77
     6
176
     1
 78
     2
176
     1
 67
     7
176
     1
 79
     5
176
     1
170
     0
176
     1
171
     0
176
     1
290
     0
176
     1
 93
       13
176
     1
 44
0.0
176
     1
173
     0
176
     1
  0
VISUALSTYLE
  5
2E
102
{ACAD_REACTORS
330
2A
102
}
330
2A
100
AcDbVisualStyle
  2
GouraudWithEdges
 70
     3
177
     2
291
     1
 71
     2
176
     1
 72
     2
176
     1
 73
     1
176
     1
 90
        2
176
     1
 40
-0.6
176
     1
 41
30.0
176
     1
 62
     5
 63
     7
421
 16777215
176
     1
 74
     1
176
     1
 91
        4
176
     1
 64
     7
176
     1
 65
   257
176
     1
 75
     1
176
     1
175
     1
176
     1
 42
1.0
176
     1
 92
        0
176
     1
 66
   257
176
     1
 43
1.0
176
     1
 76
     1
176
     1
 77
     6
176
     1
 78
     2
176
     1
 67
     7
176
     1
 79
     5
176
     1
170
     0
176
     1
171
     0
176
     1
290
     0
176
     1
 93
       13
176
     1
 44
0.0
176
     1
173
     0
176
     1
  0
VISUALSTYLE
  5
38
102
{ACAD_REACTORS
330
2A
102
}
330
2A
100
AcDbVisualStyle
  2
Linepattern
 70
    14
177
     2
291
     1
 71
     2
176
     1
 72
     2
176
     1
 73
     0
176
     1
 90
        0
176
     1
 40
-0.6
176
     1
 41
-30.0
176
     1
 62
     5
 63
     7
421
 16777215
176
     1
 74
     1
176
     1
 91
        4
176
     1
 64
     7
176
     1
 65
   257
176
     1
 75
     7
176
     1
175
     7
176
     1
 42
1.0
176
     1
 92
        8
176
     1
 66
     7
176
     1
 43
1.0
176
     1
 76
     1
176
     1
 77
     6
176
     1
 78
     2
176
     1
 67
     7
176
     1
 79
     5
176
     1
170
     0
176
     1
171
     0
176
     1
290
     0
176
     1
 93
        1
176
     1
 44
0.0
176
     1
173
     0
176
     1
  0
VISUALSTYLE
  5
33
102
{ACAD_REACTORS
330
2A
102
}
330
2A
100
AcDbVisualStyle
  2
Realistic
 70
     8
177
     2
291
     0
 71
     2
176
     1
 72
     2
176
     1
 73
     0
176
     1
 90
        0
176
     1
 40
-0.6
176
     1
 41
-30.0
176
     1
 62
     5
 63
     7
421
 16777215
176
     1
 74
     1
176
     1
 91
        0
176
     1
 64
     7
176
     1
 65
   257
176
     1
 75
     1
176
     1
175
     1
176
     1
 42
1.0
176
     1
 92
        8
176
     1
 66
     8
424
  7895160
176
     1
 43
1.0
176
     1
 76
     1
176
     1
 77
     6
176
     1
 78
     2
176
     1
 67
     7
176
     1
 79
     5
176
     1
170
     0
176
     1
171
     0
176
     1
290
     0
176
     1
 93
       13
176
     1
 44
0.0
176
     1
173
     0
176
     1
  0
VISUALSTYLE
  5
37
102
{ACAD_REACTORS
330
2A
102
}
330
2A
100
AcDbVisualStyle
  2
Thicken
 70
    13
177
     2
291
     1
 71
     2
176
     1
 72
     2
176
     1
 73
     0
176
     1
 90
        0
176
     1
 40
-0.6
176
     1
 41
-30.0
176
     1
 62
     5
 63
     7
421
 16777215
176
     1
 74
     1
176
     1
 91
        4
176
     1
 64
     7
176
     1
 65
   257
176
     1
 75
     1
176
     1
175
     1
176
     1
 42
1.0
176
     1
 92
       12
176
     1
 66
     7
176
     1
 43
1.0
176
     1
 76
     1
176
     1
 77
     6
176
     1
 78
     2
176
     1
 67
     7
176
     1
 79
     5
176
     1
170
     0
176
     1
171
     0
176
     1
290
     0
176
     1
 93
        1
176
     1
 44
0.0
176
     1
173
     0
176
     1
  0
ENDSEC
  0
EOF
